SplineFontDB: 1.0
FontName: THMaliGrade6-Italic
FullName: THMaliGrade6-Italic
FamilyName: TH Mali Grade 6
Weight: Book
Copyright: Copyright (c) 2006 by Department of Intellectual Property (DIP), Ministry of Commerce and Software Industry Promotion Agency (Public Organization) (SIPA). All rights reserved.
Version: 1.1
ItalicAngle: -14
UnderlinePosition: -55
UnderlineWidth: 50
Ascent: 1638
Descent: 410
Order2: 1
XUID: [1021 375 425136265 122978]
FSType: 0
OS2Version: 3
OS2_WeightWidthSlopeOnly: 0
OS2_UseTypoMetrics: 1
CreationTime: 1152588240
ModificationTime: 1174462609
PfmFamily: 17
TTFWeight: 400
TTFWidth: 5
LineGap: 123
VLineGap: 0
Panose: 2 0 5 6 0 0 0 2 0 4
OS2TypoAscent: 0
OS2TypoAOffset: 1
OS2TypoDescent: 0
OS2TypoDOffset: 1
OS2TypoLinegap: 0
OS2WinAscent: -18759
OS2WinAOffset: 1
OS2WinDescent: -238
OS2WinDOffset: 1
HheadAscent: -18759
HheadAOffset: 1
HheadDescent: 238
HheadDOffset: 1
OS2SubXSize: 1434
OS2SubYSize: 1331
OS2SubXOff: 0
OS2SubYOff: 287
OS2SupXSize: 1434
OS2SupYSize: 1331
OS2SupXOff: 0
OS2SupYOff: 977
OS2StrikeYSize: 49
OS2StrikeYPos: 399
OS2FamilyClass: 773
OS2Vendor: 'IPTH'
ScriptLang: 2
 1 latn 1 dflt 
 0 
ChainSub: coverage 0 0 'liga' 0 0 0 1
 1 0 1
  Coverage: 64 uni0E48.alt2 uni0E49.alt2 uni0E4A.alt2 uni0E4B.alt2 uni0E4C.alt2
  FCoverage: 7 uni0E33
 1
  SeqLookup: 0 'L027'
EndFPST
ChainSub: coverage 0 0 'liga' 0 0 0 1
 1 1 0
  Coverage: 7 uni0E47
  BCoverage: 12 uni0E2C.alt1
 1
  SeqLookup: 0 'L026'
EndFPST
ChainSub: coverage 0 0 'liga' 0 0 0 1
 1 0 1
  Coverage: 7 uni0E2C
  FCoverage: 39 uni0E34 uni0E35 uni0E36 uni0E37 uni0E47
 1
  SeqLookup: 0 'L026'
EndFPST
ChainSub: coverage 0 0 'liga' 0 0 0 1
 1 0 1
  Coverage: 15 uni0E0E uni0E0F
  FCoverage: 38 uni0E38.alt1 uni0E39.alt1 uni0E3A.alt1
 1
  SeqLookup: 0 'L026'
EndFPST
ChainSub: coverage 0 0 'liga' 0 0 0 1
 1 1 0
  Coverage: 5 a b c
  BCoverage: 23 uni0E1B uni0E1D uni0E1F
 1
  SeqLookup: 0 'L026'
EndFPST
ChainSub: coverage 0 0 'liga' 0 0 0 1
 1 0 1
  Coverage: 5 a b c

StartChar: .notdef
Encoding: 65536 -1 0
Width: 1024
Flags: W
Fore
1169 1399 m 0,0,1
 1164 1376 1164 1376 1149 1306.5 c 128,-1,2
 1134 1237 1134 1237 1112 1137.5 c 128,-1,3
 1090 1038 1090 1038 1064.5 918.5 c 128,-1,4
 1039 799 1039 799 1012 677 c 128,-1,5
 985 555 985 555 960 440.5 c 128,-1,6
 935 326 935 326 915 236.5 c 128,-1,7
 895 147 895 147 882.5 94 c 128,-1,8
 870 41 870 41 869 27.5 c 128,-1,9
 868 14 868 14 842 14 c 0,10,11
 659 23 659 23 535 25 c 128,-1,12
 411 27 411 27 329 27 c 128,-1,13
 247 27 247 27 204.5 25 c 128,-1,14
 162 23 162 23 143 20 c 1,15,16
 127 23 127 23 130 37 c 0,17,18
 135 57 135 57 149.5 127 c 128,-1,19
 164 197 164 197 186 295 c 128,-1,20
 208 393 208 393 234.5 513 c 128,-1,21
 261 633 261 633 287 755 c 128,-1,22
 313 877 313 877 338.5 991.5 c 128,-1,23
 364 1106 364 1106 383.5 1195 c 128,-1,24
 403 1284 403 1284 415 1338.5 c 128,-1,25
 427 1392 427 1392 427 1393 c 0,26,27
 431 1413 431 1413 449.5 1417 c 128,-1,28
 468 1421 468 1421 489 1419 c 0,29,30
 662 1413 662 1413 780.5 1411 c 128,-1,31
 899 1409 899 1409 977 1409 c 128,-1,32
 1055 1409 1055 1409 1096.5 1411 c 128,-1,33
 1138 1413 1138 1413 1156 1415 c 1,34,35
 1172 1413 1172 1413 1169 1399 c 0,0,1
845 1358 m 2,36,37
 613 1360 613 1360 541 1362 c 128,-1,38
 469 1364 469 1364 466 1364 c 128,-1,39
 463 1364 463 1364 462 1358 c 0,40,41
 457 1335 457 1335 442.5 1271.5 c 128,-1,42
 428 1208 428 1208 409 1119 c 128,-1,43
 390 1030 390 1030 366.5 922.5 c 128,-1,44
 343 815 343 815 318.5 705.5 c 128,-1,45
 294 596 294 596 270.5 489.5 c 128,-1,46
 247 383 247 383 227.5 297 c 128,-1,47
 208 211 208 211 194.5 152.5 c 128,-1,48
 181 94 181 94 178 78 c 1,49,50
 266 76 266 76 362.5 75 c 128,-1,51
 459 74 459 74 579 74 c 128,-1,52
 699 74 699 74 835 70 c 1,53,54
 840 92 840 92 862 190.5 c 128,-1,55
 884 289 884 289 914 425 c 128,-1,56
 944 561 944 561 977.5 714.5 c 128,-1,57
 1011 868 1011 868 1041 1004.5 c 128,-1,58
 1071 1141 1071 1141 1092.5 1238 c 128,-1,59
 1114 1335 1114 1335 1122 1358 c 1,60,-1
 845 1358 l 2,36,37
EndSplineSet
EndChar
StartChar: uni0E01
Encoding: 3585 3585 5
Width: 823
Flags: W
Fore
720 -33 m 0,0,1
 718 -47 718 -47 701.5 -48 c 128,-1,2
 685 -49 685 -49 686 -33 c 0,3,4
 692 8 692 8 697 37 c 128,-1,5
 702 66 702 66 709 100 c 0,6,7
 737 262 737 262 755 378 c 128,-1,8
 773 494 773 494 762 567.5 c 128,-1,9
 751 641 751 641 702 675 c 128,-1,10
 653 709 653 709 552 709 c 0,11,12
 474 709 474 709 408 684 c 128,-1,13
 342 659 342 659 292 626.5 c 128,-1,14
 242 594 242 594 212.5 559 c 128,-1,15
 183 524 183 524 179 500 c 1,16,17
 188 496 188 496 199 492 c 1,18,19
 207 487 207 487 219 483 c 128,-1,20
 231 479 231 479 245 475 c 0,21,22
 266 467 266 467 285.5 459 c 128,-1,23
 305 451 305 451 324 438 c 0,24,25
 341 428 341 428 342 393 c 128,-1,26
 343 358 343 358 333 309 c 0,27,28
 319 242 319 242 298 175.5 c 128,-1,29
 277 109 277 109 260 53 c 2,30,-1
 237 -20 l 2,31,32
 234 -37 234 -37 217 -37 c 128,-1,33
 200 -37 200 -37 202 -20 c 0,34,35
 206 -4 206 -4 211.5 12.5 c 128,-1,36
 217 29 217 29 226 57 c 0,37,38
 243 113 243 113 263.5 178.5 c 128,-1,39
 284 244 284 244 297 309 c 0,40,41
 305 348 305 348 307.5 373.5 c 128,-1,42
 310 399 310 399 302 406 c 1,43,44
 292 412 292 412 269.5 420 c 128,-1,45
 247 428 247 428 227 438 c 0,46,47
 194 451 194 451 166.5 465 c 128,-1,48
 139 479 139 479 143 500 c 0,49,50
 149 528 149 528 183.5 570 c 128,-1,51
 218 612 218 612 272 650 c 128,-1,52
 326 688 326 688 399.5 716.5 c 128,-1,53
 473 745 473 745 560 745 c 0,54,55
 674 745 674 745 729 709.5 c 128,-1,56
 784 674 784 674 798 595 c 128,-1,57
 812 516 812 516 793 394 c 128,-1,58
 774 272 774 272 744 100 c 0,59,60
 737 66 737 66 732 37 c 128,-1,61
 727 8 727 8 720 -33 c 0,0,1
EndSplineSet
EndChar
StartChar: uni0E02
Encoding: 3586 3586 6
Width: 604
Flags: W
Fore
196 606 m 0,0,1
 170 563 170 563 182.5 521 c 128,-1,2
 195 479 195 479 251 477 c 0,3,4
 286 475 286 475 313 499.5 c 128,-1,5
 340 524 340 524 347 559 c 0,6,7
 355 594 355 594 339 619.5 c 128,-1,8
 323 645 323 645 284 647 c 0,9,10
 262 649 262 649 237 641 c 128,-1,11
 212 633 212 633 196 606 c 0,0,1
459 647 m 1,12,13
 458 686 458 686 431.5 704.5 c 128,-1,14
 405 723 405 723 371.5 724 c 128,-1,15
 338 725 338 725 307.5 711.5 c 128,-1,16
 277 698 277 698 271 678 c 1,17,18
 341 678 341 678 364 649.5 c 128,-1,19
 387 621 387 621 379 563 c 0,20,21
 378 547 378 547 366.5 527.5 c 128,-1,22
 355 508 355 508 336 490.5 c 128,-1,23
 317 473 317 473 294 462 c 128,-1,24
 271 451 271 451 245 451 c 0,25,26
 186 453 186 453 165 492.5 c 128,-1,27
 144 532 144 532 161 586 c 0,28,29
 169 612 169 612 186.5 644 c 128,-1,30
 204 676 204 676 233.5 700.5 c 128,-1,31
 263 725 263 725 305.5 740.5 c 128,-1,32
 348 756 348 756 409 750 c 0,33,34
 432 748 432 748 447.5 736.5 c 128,-1,35
 463 725 463 725 472 709.5 c 128,-1,36
 481 694 481 694 484.5 678 c 128,-1,37
 488 662 488 662 487 649 c 0,38,39
 483 608 483 608 459 551 c 128,-1,40
 435 494 435 494 404 432.5 c 128,-1,41
 373 371 373 371 346 310.5 c 128,-1,42
 319 250 319 250 308 199 c 0,43,44
 303 178 303 178 300 149.5 c 128,-1,45
 297 121 297 121 302 95.5 c 128,-1,46
 307 70 307 70 322 51.5 c 128,-1,47
 337 33 337 33 367 33 c 0,48,49
 438 31 438 31 476.5 77 c 128,-1,50
 515 123 515 123 526 178 c 2,51,52
 527 180 527 180 534 222 c 128,-1,53
 541 264 541 264 550.5 323.5 c 128,-1,54
 560 383 560 383 572.5 452.5 c 128,-1,55
 585 522 585 522 597 582.5 c 128,-1,56
 609 643 609 643 619 684 c 128,-1,57
 629 725 629 725 635 729 c 0,58,59
 655 739 655 739 659.5 732 c 128,-1,60
 664 725 664 725 663 721 c 0,61,62
 643 655 643 655 628.5 582.5 c 128,-1,63
 614 510 614 510 603 438.5 c 128,-1,64
 592 367 592 367 582 301.5 c 128,-1,65
 572 236 572 236 561 184 c 0,66,67
 553 150 553 150 539 117 c 128,-1,68
 525 84 525 84 501 57.5 c 128,-1,69
 477 31 477 31 442.5 15.5 c 128,-1,70
 408 0 408 0 360 0 c 0,71,72
 324 0 324 0 302 19.5 c 128,-1,73
 280 39 280 39 272 68.5 c 128,-1,74
 264 98 264 98 266 133 c 128,-1,75
 268 168 268 168 275 199 c 0,76,77
 290 256 290 256 315 313.5 c 128,-1,78
 340 371 340 371 368.5 426 c 128,-1,79
 397 481 397 481 422 536.5 c 128,-1,80
 447 592 447 592 459 647 c 1,12,13
EndSplineSet
EndChar
StartChar: uni0E03
Encoding: 3587 3587 7
Width: 676
Flags: W
Fore
201 600 m 0,0,1
 175 557 175 557 186 517 c 128,-1,2
 197 477 197 477 252 475 c 0,3,4
 288 473 288 473 314 498.5 c 128,-1,5
 340 524 340 524 347 559 c 0,6,7
 355 594 355 594 341.5 616.5 c 128,-1,8
 328 639 328 639 290 641 c 0,9,10
 267 643 267 643 242 635 c 128,-1,11
 217 627 217 627 201 600 c 0,0,1
342 717 m 0,12,13
 324 717 324 717 309 711 c 0,14,15
 295 707 295 707 281.5 696.5 c 128,-1,16
 268 686 268 686 265 670 c 1,17,18
 335 670 335 670 361 645.5 c 128,-1,19
 387 621 387 621 379 563 c 0,20,21
 378 547 378 547 366.5 526.5 c 128,-1,22
 355 506 355 506 337 488.5 c 128,-1,23
 319 471 319 471 296 460 c 128,-1,24
 273 449 273 449 247 449 c 0,25,26
 187 451 187 451 164 484.5 c 128,-1,27
 141 518 141 518 158 580 c 0,28,29
 167 612 167 612 186.5 643 c 128,-1,30
 206 674 206 674 232.5 697.5 c 128,-1,31
 259 721 259 721 291 735.5 c 128,-1,32
 323 750 323 750 356 750 c 0,33,34
 384 750 384 750 402 728.5 c 128,-1,35
 420 707 420 707 426 657 c 1,36,37
 447 707 447 707 469.5 726 c 128,-1,38
 492 745 492 745 514 745 c 0,39,40
 535 745 535 745 546 736 c 128,-1,41
 557 727 557 727 561.5 712.5 c 128,-1,42
 566 698 566 698 565.5 682 c 128,-1,43
 565 666 565 666 566 653 c 0,44,45
 568 612 568 612 543.5 555 c 128,-1,46
 519 498 519 498 487 434.5 c 128,-1,47
 455 371 455 371 425.5 308.5 c 128,-1,48
 396 246 396 246 385 195 c 0,49,50
 380 174 380 174 382 145.5 c 128,-1,51
 384 117 384 117 394.5 91.5 c 128,-1,52
 405 66 405 66 423.5 47.5 c 128,-1,53
 442 29 442 29 473 29 c 0,54,55
 522 29 522 29 554.5 78 c 128,-1,56
 587 127 587 127 599 182 c 2,57,58
 600 184 600 184 606.5 226 c 128,-1,59
 613 268 613 268 625 328.5 c 128,-1,60
 637 389 637 389 650 458.5 c 128,-1,61
 663 528 663 528 675 589.5 c 128,-1,62
 687 651 687 651 698 693 c 128,-1,63
 709 735 709 735 714 741 c 0,64,65
 727 754 727 754 734.5 745.5 c 128,-1,66
 742 737 742 737 741 733 c 0,67,68
 719 664 719 664 703 589 c 128,-1,69
 687 514 687 514 675.5 442.5 c 128,-1,70
 664 371 664 371 654.5 305.5 c 128,-1,71
 645 240 645 240 633 188 c 0,72,73
 626 154 626 154 612 120 c 128,-1,74
 598 86 598 86 576.5 58.5 c 128,-1,75
 555 31 555 31 528 13.5 c 128,-1,76
 501 -4 501 -4 466 -4 c 0,77,78
 429 -4 429 -4 403.5 15.5 c 128,-1,79
 378 35 378 35 363.5 64.5 c 128,-1,80
 349 94 349 94 347 129 c 128,-1,81
 345 164 345 164 352 195 c 0,82,83
 366 252 366 252 395 311.5 c 128,-1,84
 424 371 424 371 455 429 c 128,-1,85
 486 487 486 487 510.5 544.5 c 128,-1,86
 535 602 535 602 538 655 c 0,87,88
 539 680 539 680 534.5 697.5 c 128,-1,89
 530 715 530 715 507 713 c 0,90,91
 485 711 485 711 466.5 680 c 128,-1,92
 448 649 448 649 432 618 c 1,93,94
 427 616 427 616 421 614 c 0,95,96
 408 610 408 610 401 618 c 1,97,98
 401 629 401 629 398.5 645.5 c 128,-1,99
 396 662 396 662 390.5 677 c 128,-1,100
 385 692 385 692 373 704.5 c 128,-1,101
 361 717 361 717 342 717 c 0,12,13
EndSplineSet
EndChar
StartChar: uni0E04
Encoding: 3588 3588 8
Width: 836
Flags: W
Fore
590 754 m 0,0,1
 660 754 660 754 705.5 734 c 128,-1,2
 751 714 751 714 777 678 c 128,-1,3
 803 642 803 642 812.5 592.5 c 128,-1,4
 822 543 822 543 820 485 c 128,-1,5
 818 427 818 427 807.5 361.5 c 128,-1,6
 797 296 797 296 784 229 c 0,7,8
 778 201 778 201 769 162.5 c 128,-1,9
 760 124 760 124 751 88.5 c 128,-1,10
 742 53 742 53 733.5 27.5 c 128,-1,11
 725 2 725 2 720 2 c 1,12,13
 716 3 716 3 711.5 0 c 128,-1,14
 707 -3 707 -3 706 2 c 0,15,16
 706 3 706 3 707 8.5 c 128,-1,17
 708 14 708 14 713 36.5 c 128,-1,18
 718 59 718 59 728 104 c 128,-1,19
 738 149 738 149 755 229 c 0,20,21
 764 272 764 272 772 315.5 c 128,-1,22
 780 359 780 359 785 401 c 128,-1,23
 790 443 790 443 790.5 482.5 c 128,-1,24
 791 522 791 522 785 558 c 256,25,26
 779 594 779 594 766 623.5 c 128,-1,27
 753 653 753 653 729 674.5 c 128,-1,28
 705 696 705 696 669.5 708.5 c 128,-1,29
 634 721 634 721 584 723 c 0,30,31
 531 723 531 723 473 696 c 128,-1,32
 415 669 415 669 363.5 617.5 c 128,-1,33
 312 566 312 566 271 492.5 c 128,-1,34
 230 419 230 419 210 326 c 0,35,36
 206 314 206 314 201.5 294.5 c 128,-1,37
 197 275 197 275 192.5 252 c 128,-1,38
 188 229 188 229 183.5 203.5 c 128,-1,39
 179 178 179 178 175 154 c 0,40,41
 166 106 166 106 163 70 c 0,42,43
 161 35 161 35 167 39 c 1,44,45
 180 44 180 44 196 62.5 c 128,-1,46
 212 81 212 81 230 106 c 128,-1,47
 248 131 248 131 265.5 161 c 128,-1,48
 283 191 283 191 299 220 c 128,-1,49
 315 249 315 249 327 275.5 c 128,-1,50
 339 302 339 302 346 319 c 0,51,52
 382 396 382 396 414 427 c 0,53,54
 447 457 447 457 506 457 c 0,55,56
 614 457 614 457 591 344 c 0,57,58
 580 289 580 289 542 260 c 128,-1,59
 504 231 504 231 450 231 c 0,60,61
 427 231 427 231 405.5 241.5 c 128,-1,62
 384 252 384 252 360 279 c 1,63,64
 313 191 313 191 281.5 137.5 c 128,-1,65
 250 84 250 84 227 54.5 c 128,-1,66
 204 25 204 25 187 15.5 c 128,-1,67
 170 6 170 6 153 6 c 0,68,69
 143 7 143 7 137.5 15 c 128,-1,70
 132 23 132 23 133 51.5 c 128,-1,71
 134 80 134 80 143 135.5 c 128,-1,72
 152 191 152 191 171 287 c 0,73,74
 195 408 195 408 239.5 496 c 128,-1,75
 284 584 284 584 340.5 641.5 c 128,-1,76
 397 699 397 699 461 726.5 c 128,-1,77
 525 754 525 754 590 754 c 0,0,1
499 428 m 0,78,79
 470 428 470 428 449 416.5 c 128,-1,80
 428 405 428 405 414 386 c 128,-1,81
 400 367 400 367 391 344 c 128,-1,82
 382 321 382 321 376 298 c 1,83,84
 400 276 400 276 419 268 c 128,-1,85
 438 260 438 260 452 258 c 1,86,87
 483 258 483 258 518 277 c 0,88,89
 554 296 554 296 565 344 c 0,90,91
 574 391 574 391 550 409 c 0,92,93
 527 428 527 428 499 428 c 0,78,79
EndSplineSet
EndChar
StartChar: uni0E05
Encoding: 3589 3589 9
Width: 827
Flags: W
Fore
576 641 m 1,0,1
 601 672 601 672 628 696 c 0,2,3
 652 719 652 719 680.5 737.5 c 128,-1,4
 709 756 709 756 739 760 c 1,5,6
 796 752 796 752 818 695.5 c 128,-1,7
 840 639 840 639 836.5 542.5 c 128,-1,8
 833 446 833 446 807.5 312 c 128,-1,9
 782 178 782 178 746 16 c 1,10,11
 733 -3 733 -3 720 -5.5 c 128,-1,12
 707 -8 707 -8 709 2 c 0,13,14
 750 158 750 158 775 289 c 128,-1,15
 800 420 800 420 804 516 c 128,-1,16
 808 612 808 612 788 665.5 c 128,-1,17
 768 719 768 719 723 719 c 0,18,19
 705 719 705 719 678 697.5 c 128,-1,20
 651 676 651 676 625 651 c 0,21,22
 597 623 597 623 566 586 c 1,23,24
 547 621 547 621 526 647 c 0,25,26
 509 670 509 670 486 689.5 c 128,-1,27
 463 709 463 709 442 713 c 1,28,29
 411 702 411 702 375 667.5 c 128,-1,30
 339 633 339 633 306 584 c 128,-1,31
 273 535 273 535 244.5 473.5 c 128,-1,32
 216 412 216 412 200 348 c 0,33,34
 191 324 191 324 183 271.5 c 128,-1,35
 175 219 175 219 169 167 c 128,-1,36
 163 115 163 115 162 75 c 128,-1,37
 161 35 161 35 168 39 c 0,38,39
 187 47 187 47 209 81 c 128,-1,40
 231 115 231 115 253.5 159 c 128,-1,41
 276 203 276 203 297 249 c 128,-1,42
 318 295 318 295 337 326 c 0,43,44
 374 403 374 403 415 433 c 128,-1,45
 456 463 456 463 518 463 c 0,46,47
 635 463 635 463 611 350 c 0,48,49
 599 295 599 295 560 266.5 c 128,-1,50
 521 238 521 238 466 238 c 0,51,52
 441 238 441 238 408.5 248 c 128,-1,53
 376 258 376 258 351 285 c 1,54,55
 301 197 301 197 272 142.5 c 128,-1,56
 243 88 243 88 224.5 57.5 c 128,-1,57
 206 27 206 27 190.5 16.5 c 128,-1,58
 175 6 175 6 153 6 c 0,59,60
 142 6 142 6 134.5 17.5 c 128,-1,61
 127 29 127 29 124.5 62.5 c 128,-1,62
 122 96 122 96 129.5 155.5 c 128,-1,63
 137 215 137 215 158 311 c 0,64,65
 174 387 174 387 202 459.5 c 128,-1,66
 230 532 230 532 266.5 590.5 c 128,-1,67
 303 649 303 649 350.5 692 c 128,-1,68
 398 735 398 735 451 754 c 1,69,70
 478 752 478 752 500.5 735.5 c 128,-1,71
 523 719 523 719 540 696 c 0,72,73
 560 672 560 672 576 641 c 1,0,1
511 432 m 0,74,75
 451 432 451 432 422 395 c 128,-1,76
 393 358 393 358 372 307 c 1,77,78
 396 285 396 285 424.5 275.5 c 128,-1,79
 453 266 453 266 470 264 c 0,80,81
 500 264 500 264 536 283.5 c 128,-1,82
 572 303 572 303 582 350 c 256,83,84
 592 397 592 397 566 414.5 c 128,-1,85
 540 432 540 432 511 432 c 0,74,75
EndSplineSet
EndChar
StartChar: uni0E06
Encoding: 3590 3590 10
Width: 860
Flags: W
Fore
187 545 m 0,0,1
 161 502 161 502 172.5 465 c 128,-1,2
 184 428 184 428 240 426 c 0,3,4
 276 424 276 424 299.5 447.5 c 128,-1,5
 323 471 323 471 330 506 c 0,6,7
 346 582 346 582 267 586 c 0,8,9
 245 588 245 588 224 579.5 c 128,-1,10
 203 571 203 571 187 545 c 0,0,1
533 631 m 1,11,12
 534 655 534 655 531.5 668.5 c 128,-1,13
 529 682 529 682 490 682 c 0,14,15
 468 682 468 682 450 650 c 128,-1,16
 432 618 432 618 415 588 c 1,17,18
 411 586 411 586 405 584 c 0,19,20
 391 580 391 580 384 588 c 1,21,22
 385 598 385 598 382.5 614.5 c 128,-1,23
 380 631 380 631 372.5 646.5 c 128,-1,24
 365 662 365 662 349 674 c 128,-1,25
 333 686 333 686 307 686 c 0,26,27
 283 688 283 688 261 680 c 0,28,29
 242 672 242 672 224 653.5 c 128,-1,30
 206 635 206 635 200 594 c 1,31,32
 239 612 239 612 270 611 c 128,-1,33
 301 610 301 610 323 598 c 128,-1,34
 345 586 345 586 355.5 562.5 c 128,-1,35
 366 539 366 539 362 510 c 0,36,37
 361 494 361 494 350.5 474.5 c 128,-1,38
 340 455 340 455 322 437.5 c 128,-1,39
 304 420 304 420 282 409.5 c 128,-1,40
 260 399 260 399 234 399 c 0,41,42
 175 401 175 401 155 432 c 128,-1,43
 135 463 135 463 144 524 c 0,44,45
 150 561 150 561 163.5 596 c 128,-1,46
 177 631 177 631 198 657.5 c 128,-1,47
 219 684 219 684 248 701.5 c 128,-1,48
 277 719 277 719 318 719 c 0,49,50
 347 719 347 719 374 697.5 c 128,-1,51
 401 676 401 676 407 627 c 1,52,53
 428 676 428 676 451.5 695.5 c 128,-1,54
 475 715 475 715 497 715 c 0,55,56
 550 715 550 715 558.5 685 c 128,-1,57
 567 655 567 655 567 629 c 1,58,59
 557 590 557 590 543 537.5 c 128,-1,60
 529 485 529 485 514 429 c 128,-1,61
 499 373 499 373 486 317.5 c 128,-1,62
 473 262 473 262 464 217 c 1,63,64
 523 180 523 180 562 152.5 c 128,-1,65
 601 125 601 125 630.5 103.5 c 128,-1,66
 660 82 660 82 684.5 62.5 c 128,-1,67
 709 43 709 43 739 20 c 1,68,69
 742 16 742 16 753 53 c 128,-1,70
 764 90 764 90 779 150.5 c 128,-1,71
 794 211 794 211 810 286.5 c 128,-1,72
 826 362 826 362 841.5 439 c 128,-1,73
 857 516 857 516 870 583.5 c 128,-1,74
 883 651 883 651 892 696 c 1,75,76
 901 715 901 715 913 714 c 128,-1,77
 925 713 925 713 925 692 c 1,78,79
 910 643 910 643 891.5 551 c 128,-1,80
 873 459 873 459 851.5 358.5 c 128,-1,81
 830 258 830 258 810.5 165 c 128,-1,82
 791 72 791 72 778 20 c 1,83,84
 770 2 770 2 759.5 -4 c 128,-1,85
 749 -10 749 -10 738 -12 c 0,86,87
 728 -14 728 -14 715 -8 c 1,88,89
 674 20 674 20 647 43 c 128,-1,90
 620 66 620 66 594 87.5 c 128,-1,91
 568 109 568 109 536.5 131.5 c 128,-1,92
 505 154 505 154 456 182 c 1,93,94
 439 90 439 90 405 32.5 c 128,-1,95
 371 -25 371 -25 291 -27 c 0,96,97
 250 -27 250 -27 227 -14.5 c 128,-1,98
 204 -2 204 -2 193 18.5 c 128,-1,99
 182 39 182 39 181 62.5 c 128,-1,100
 180 86 180 86 185 109 c 0,101,102
 189 129 189 129 206 157.5 c 128,-1,103
 223 186 223 186 254.5 207.5 c 128,-1,104
 286 229 286 229 329.5 236.5 c 128,-1,105
 373 244 373 244 427 221 c 1,106,107
 437 266 437 266 452.5 324.5 c 128,-1,108
 468 383 468 383 483 439.5 c 128,-1,109
 498 496 498 496 512 547 c 128,-1,110
 526 598 526 598 533 631 c 1,11,12
424 186 m 1,111,112
 383 207 383 207 349 207 c 128,-1,113
 315 207 315 207 288 193.5 c 128,-1,114
 261 180 261 180 242 157.5 c 128,-1,115
 223 135 223 135 213 109 c 0,116,117
 201 74 201 74 223.5 37 c 128,-1,118
 246 0 246 0 297 2 c 0,119,120
 354 4 354 4 381.5 50 c 128,-1,121
 409 96 409 96 424 186 c 1,111,112
EndSplineSet
EndChar
StartChar: uni0E07
Encoding: 3591 3591 11
Width: 678
Flags: W
Fore
709 532 m 2,0,1
 639 254 639 254 583 126 c 128,-1,2
 527 -2 527 -2 480 -2 c 0,3,4
 445 -2 445 -2 403.5 43 c 128,-1,5
 362 88 362 88 321.5 168 c 128,-1,6
 281 248 281 248 246 356.5 c 128,-1,7
 211 465 211 465 191 592 c 0,8,9
 189 606 189 606 205.5 610 c 128,-1,10
 222 614 222 614 224 604 c 0,11,12
 257 440 257 440 294.5 331.5 c 128,-1,13
 332 223 332 223 368 156.5 c 128,-1,14
 404 90 404 90 435 62.5 c 128,-1,15
 466 35 466 35 486 35 c 0,16,17
 496 35 496 35 512.5 63.5 c 128,-1,18
 529 92 529 92 548.5 137 c 128,-1,19
 568 182 568 182 587.5 237.5 c 128,-1,20
 607 293 607 293 624 346 c 128,-1,21
 641 399 641 399 653.5 443 c 128,-1,22
 666 487 666 487 671 512 c 2,23,-1
 674 526 l 1,24,25
 654 506 654 506 624 493.5 c 128,-1,26
 594 481 594 481 565 481 c 0,27,28
 499 481 499 481 469 518 c 128,-1,29
 439 555 439 555 450 606 c 0,30,31
 466 678 466 678 510.5 717 c 128,-1,32
 555 756 555 756 619 756 c 0,33,34
 660 756 660 756 683.5 740.5 c 128,-1,35
 707 725 707 725 716.5 698.5 c 128,-1,36
 726 672 726 672 724.5 636 c 128,-1,37
 723 600 723 600 715 561 c 2,38,-1
 709 532 l 2,0,1
573 518 m 0,39,40
 622 518 622 518 649.5 548 c 128,-1,41
 677 578 677 578 684 608 c 0,42,43
 695 662 695 662 670.5 693.5 c 128,-1,44
 646 725 646 725 607 725 c 0,45,46
 557 725 557 725 525 691 c 128,-1,47
 493 657 493 657 484 614 c 0,48,49
 475 573 475 573 495.5 545.5 c 128,-1,50
 516 518 516 518 573 518 c 0,39,40
EndSplineSet
EndChar
StartChar: uni0E08
Encoding: 3592 3592 12
Width: 735
Flags: W
Fore
194 434 m 0,0,1
 189 412 189 412 173 416 c 128,-1,2
 157 420 157 420 160 434 c 0,3,4
 184 547 184 547 230.5 613.5 c 128,-1,5
 277 680 277 680 331.5 716 c 128,-1,6
 386 752 386 752 442 762 c 128,-1,7
 498 772 498 772 541 772 c 0,8,9
 639 772 639 772 686 733 c 128,-1,10
 733 694 733 694 748.5 638 c 128,-1,11
 764 582 764 582 757 520.5 c 128,-1,12
 750 459 750 459 741 418 c 0,13,14
 725 340 725 340 696 265 c 128,-1,15
 667 190 667 190 634 131 c 128,-1,16
 601 72 601 72 566.5 36 c 128,-1,17
 532 0 532 0 506 2 c 0,18,19
 473 4 473 4 467.5 33.5 c 128,-1,20
 462 63 462 63 467 104 c 128,-1,21
 472 145 472 145 484 191.5 c 128,-1,22
 496 238 496 238 500 274 c 1,23,24
 480 258 480 258 456.5 253 c 128,-1,25
 433 248 433 248 410 248 c 0,26,27
 351 248 351 248 328.5 286 c 128,-1,28
 306 324 306 324 308 354 c 0,29,30
 309 381 309 381 324 406.5 c 128,-1,31
 339 432 339 432 360 451.5 c 128,-1,32
 381 471 381 471 407.5 481.5 c 128,-1,33
 434 492 434 492 460 492 c 0,34,35
 481 492 481 492 503 484.5 c 128,-1,36
 525 477 525 477 539.5 457.5 c 128,-1,37
 554 438 554 438 556.5 403.5 c 128,-1,38
 559 369 559 369 545 311 c 0,39,40
 534 272 534 272 521.5 223 c 128,-1,41
 509 174 509 174 502 131 c 128,-1,42
 495 88 495 88 496.5 59.5 c 128,-1,43
 498 31 498 31 515 33 c 0,44,45
 531 33 531 33 559.5 76 c 128,-1,46
 588 119 588 119 618 178.5 c 128,-1,47
 648 238 648 238 673.5 304.5 c 128,-1,48
 699 371 699 371 709 418 c 0,49,50
 720 467 720 467 723.5 523.5 c 128,-1,51
 727 580 727 580 711.5 627 c 128,-1,52
 696 674 696 674 654.5 705.5 c 128,-1,53
 613 737 613 737 533 737 c 0,54,55
 504 737 504 737 455.5 730 c 128,-1,56
 407 723 407 723 357 693.5 c 128,-1,57
 307 664 307 664 261.5 602.5 c 128,-1,58
 216 541 216 541 194 434 c 0,0,1
366 410 m 0,59,60
 336 358 336 358 350.5 320.5 c 128,-1,61
 365 283 365 283 419 281 c 0,62,63
 456 279 456 279 482.5 303.5 c 128,-1,64
 509 328 509 328 516 362 c 0,65,66
 524 397 524 397 508 423 c 128,-1,67
 492 449 492 449 453 451 c 0,68,69
 432 453 432 453 406.5 444.5 c 128,-1,70
 381 436 381 436 366 410 c 0,59,60
EndSplineSet
EndChar
StartChar: uni0E09
Encoding: 3593 3593 13
Width: 836
Flags: W
Fore
618 240 m 1,0,1
 639 322 639 322 655.5 404.5 c 128,-1,2
 672 487 672 487 666 555 c 128,-1,3
 660 623 660 623 622 666 c 128,-1,4
 584 709 584 709 499 711 c 0,5,6
 380 713 380 713 315.5 653.5 c 128,-1,7
 251 594 251 594 215 492 c 0,8,9
 206 473 206 473 187.5 470 c 128,-1,10
 169 467 169 467 173 485 c 0,11,12
 179 508 179 508 196.5 552 c 128,-1,13
 214 596 214 596 250.5 639 c 128,-1,14
 287 682 287 682 348.5 715 c 128,-1,15
 410 748 410 748 506 748 c 0,16,17
 607 748 607 748 651.5 698.5 c 128,-1,18
 696 649 696 649 704 575.5 c 128,-1,19
 712 502 712 502 695.5 414 c 128,-1,20
 679 326 679 326 656 248 c 1,21,22
 691 266 691 266 719 263 c 128,-1,23
 747 260 747 260 766.5 242.5 c 128,-1,24
 786 225 786 225 795.5 196.5 c 128,-1,25
 805 168 805 168 797 131 c 0,26,27
 794 117 794 117 785 93.5 c 128,-1,28
 776 70 776 70 759 48.5 c 128,-1,29
 742 27 742 27 715.5 11.5 c 128,-1,30
 689 -4 689 -4 650 -4 c 0,31,32
 585 -4 585 -4 580.5 45 c 128,-1,33
 576 94 576 94 597 180 c 1,34,35
 541 150 541 150 511.5 130.5 c 128,-1,36
 482 111 482 111 457 93.5 c 128,-1,37
 432 76 432 76 399.5 56.5 c 128,-1,38
 367 37 367 37 312 8 c 0,39,40
 271 -10 271 -10 262.5 14.5 c 128,-1,41
 254 39 254 39 260.5 80 c 128,-1,42
 267 121 267 121 280 168 c 128,-1,43
 293 215 293 215 299 244 c 1,44,45
 284 221 284 221 257 210 c 128,-1,46
 230 199 230 199 196 199 c 0,47,48
 142 199 142 199 124 235.5 c 128,-1,49
 106 272 106 272 116.5 315 c 128,-1,50
 127 358 127 358 162 394 c 128,-1,51
 197 430 197 430 253 430 c 0,52,53
 312 430 312 430 339.5 398.5 c 128,-1,54
 367 367 367 367 349 305 c 0,55,56
 338 260 338 260 325.5 211 c 128,-1,57
 313 162 313 162 304.5 121 c 128,-1,58
 296 80 296 80 294.5 55.5 c 128,-1,59
 293 31 293 31 302 37 c 0,60,61
 337 55 337 55 367.5 73.5 c 128,-1,62
 398 92 398 92 433.5 115.5 c 128,-1,63
 469 139 469 139 512.5 169 c 128,-1,64
 556 199 556 199 618 240 c 1,0,1
636 201 m 1,65,66
 627 158 627 158 620 125 c 128,-1,67
 613 92 613 92 613 69.5 c 128,-1,68
 613 47 613 47 623.5 36 c 128,-1,69
 634 25 634 25 656 25 c 0,70,71
 685 25 685 25 704.5 34 c 128,-1,72
 724 43 724 43 737 57.5 c 128,-1,73
 750 72 750 72 756.5 89 c 128,-1,74
 763 106 763 106 769 125 c 0,75,76
 778 156 778 156 769 181.5 c 128,-1,77
 760 207 760 207 739.5 220 c 128,-1,78
 719 233 719 233 691.5 230 c 128,-1,79
 664 227 664 227 636 201 c 1,65,66
163 354 m 0,80,81
 138 311 138 311 149 271 c 128,-1,82
 160 231 160 231 214 229 c 0,83,84
 251 227 251 227 279 253 c 128,-1,85
 307 279 307 279 314 313 c 0,86,87
 321 348 321 348 308 372.5 c 128,-1,88
 295 397 295 397 256 399 c 0,89,90
 235 401 235 401 206.5 391 c 128,-1,91
 178 381 178 381 163 354 c 0,80,81
EndSplineSet
KernsSLIFO: 68 -113 0 0 67 -113 0 0 66 -113 0 0 56 -102 0 0
EndChar
StartChar: uni0E0A
Encoding: 3594 3594 14
Width: 643
Flags: W
Fore
202 606 m 0,0,1
 176 563 176 563 189 522 c 128,-1,2
 202 481 202 481 255 479 c 0,3,4
 289 477 289 477 315.5 500.5 c 128,-1,5
 342 524 342 524 349 559 c 0,6,7
 357 594 357 594 340.5 618.5 c 128,-1,8
 324 643 324 643 289 645 c 0,9,10
 266 647 266 647 242 639 c 128,-1,11
 218 631 218 631 202 606 c 0,0,1
459 647 m 1,12,13
 458 686 458 686 431.5 704.5 c 128,-1,14
 405 723 405 723 371.5 724 c 128,-1,15
 338 725 338 725 307.5 711.5 c 128,-1,16
 277 698 277 698 271 678 c 1,17,18
 341 678 341 678 364 649.5 c 128,-1,19
 387 621 387 621 379 563 c 0,20,21
 378 547 378 547 366.5 527.5 c 128,-1,22
 355 508 355 508 336 490.5 c 128,-1,23
 317 473 317 473 294 462 c 128,-1,24
 271 451 271 451 245 451 c 0,25,26
 186 453 186 453 165 492.5 c 128,-1,27
 144 532 144 532 161 586 c 0,28,29
 169 612 169 612 185.5 644 c 128,-1,30
 202 676 202 676 231 701.5 c 128,-1,31
 260 727 260 727 303.5 742.5 c 128,-1,32
 347 758 347 758 407 752 c 0,33,34
 461 745 461 745 477.5 711.5 c 128,-1,35
 494 678 494 678 486.5 629 c 128,-1,36
 479 580 479 580 454 518.5 c 128,-1,37
 429 457 429 457 399.5 397.5 c 128,-1,38
 370 338 370 338 345.5 285.5 c 128,-1,39
 321 233 321 233 314 199 c 0,40,41
 309 178 309 178 306.5 148.5 c 128,-1,42
 304 119 304 119 308.5 93.5 c 128,-1,43
 313 68 313 68 325.5 49.5 c 128,-1,44
 338 31 338 31 367 33 c 0,45,46
 427 37 427 37 461 71.5 c 128,-1,47
 495 106 495 106 512.5 159.5 c 128,-1,48
 530 213 530 213 533.5 276.5 c 128,-1,49
 537 340 537 340 535 400.5 c 128,-1,50
 533 461 533 461 529.5 510 c 128,-1,51
 526 559 526 559 530 584 c 1,52,53
 563 637 563 637 602 677 c 128,-1,54
 641 717 641 717 675 743 c 0,55,56
 717 774 717 774 758 795 c 0,57,58
 778 803 778 803 782.5 789.5 c 128,-1,59
 787 776 787 776 774 766 c 0,60,61
 730 739 730 739 689 709 c 0,62,63
 654 682 654 682 619.5 648 c 128,-1,64
 585 614 585 614 567 580 c 1,65,66
 566 543 566 543 569.5 485.5 c 128,-1,67
 573 428 573 428 574 363.5 c 128,-1,68
 575 299 575 299 568 233.5 c 128,-1,69
 561 168 561 168 539 115.5 c 128,-1,70
 517 63 517 63 474 30.5 c 128,-1,71
 431 -2 431 -2 360 0 c 0,72,73
 319 0 319 0 297.5 20.5 c 128,-1,74
 276 41 276 41 269 69.5 c 128,-1,75
 262 98 262 98 265 133 c 128,-1,76
 268 168 268 168 275 199 c 0,77,78
 290 256 290 256 315 313.5 c 128,-1,79
 340 371 340 371 368.5 426 c 128,-1,80
 397 481 397 481 422 536.5 c 128,-1,81
 447 592 447 592 459 647 c 1,12,13
EndSplineSet
EndChar
StartChar: uni0E0B
Encoding: 3595 3595 15
Width: 739
Flags: W
Fore
201 600 m 0,0,1
 175 557 175 557 186 517 c 128,-1,2
 197 477 197 477 252 475 c 0,3,4
 288 473 288 473 314 498.5 c 128,-1,5
 340 524 340 524 347 559 c 0,6,7
 355 594 355 594 341.5 616.5 c 128,-1,8
 328 639 328 639 290 641 c 0,9,10
 267 643 267 643 242 635 c 128,-1,11
 217 627 217 627 201 600 c 0,0,1
543 647 m 1,12,13
 543 672 543 672 536.5 693.5 c 128,-1,14
 530 715 530 715 507 713 c 0,15,16
 485 711 485 711 466.5 680 c 128,-1,17
 448 649 448 649 432 618 c 1,18,19
 427 616 427 616 421 614 c 0,20,21
 408 610 408 610 401 618 c 1,22,23
 401 629 401 629 398.5 645.5 c 128,-1,24
 396 662 396 662 390.5 677 c 128,-1,25
 385 692 385 692 373 704.5 c 128,-1,26
 361 717 361 717 342 717 c 0,27,28
 328 717 328 717 311 711 c 0,29,30
 295 707 295 707 277 694.5 c 128,-1,31
 259 682 259 682 242 662 c 1,32,33
 317 676 317 676 352 648.5 c 128,-1,34
 387 621 387 621 379 563 c 0,35,36
 378 547 378 547 366.5 526.5 c 128,-1,37
 355 506 355 506 337 488.5 c 128,-1,38
 319 471 319 471 296 460 c 128,-1,39
 273 449 273 449 247 449 c 0,40,41
 187 451 187 451 164 484.5 c 128,-1,42
 141 518 141 518 158 580 c 0,43,44
 167 612 167 612 186.5 643 c 128,-1,45
 206 674 206 674 232.5 697.5 c 128,-1,46
 259 721 259 721 291 735.5 c 128,-1,47
 323 750 323 750 356 750 c 0,48,49
 384 750 384 750 402 728.5 c 128,-1,50
 420 707 420 707 426 657 c 1,51,52
 447 707 447 707 469.5 726 c 128,-1,53
 492 745 492 745 514 745 c 0,54,55
 561 745 561 745 574 715.5 c 128,-1,56
 587 686 587 686 577 639 c 128,-1,57
 567 592 567 592 542.5 531.5 c 128,-1,58
 518 471 518 471 488.5 410.5 c 128,-1,59
 459 350 459 350 432.5 294 c 128,-1,60
 406 238 406 238 396 199 c 0,61,62
 389 178 389 178 387 149.5 c 128,-1,63
 385 121 385 121 390 95.5 c 128,-1,64
 395 70 395 70 409 51.5 c 128,-1,65
 423 33 423 33 451 33 c 0,66,67
 511 33 511 33 545.5 67.5 c 128,-1,68
 580 102 580 102 596.5 155.5 c 128,-1,69
 613 209 613 209 616.5 273.5 c 128,-1,70
 620 338 620 338 618.5 398.5 c 128,-1,71
 617 459 617 459 613.5 509 c 128,-1,72
 610 559 610 559 613 584 c 1,73,74
 647 637 647 637 686 677 c 128,-1,75
 725 717 725 717 759 743 c 0,76,77
 801 774 801 774 842 795 c 0,78,79
 862 803 862 803 866.5 789.5 c 128,-1,80
 871 776 871 776 858 766 c 0,81,82
 814 739 814 739 773 709 c 0,83,84
 738 682 738 682 703.5 648 c 128,-1,85
 669 614 669 614 651 580 c 1,86,87
 650 543 650 543 653.5 485.5 c 128,-1,88
 657 428 657 428 658 363.5 c 128,-1,89
 659 299 659 299 652 233.5 c 128,-1,90
 645 168 645 168 623 115.5 c 128,-1,91
 601 63 601 63 558 30.5 c 128,-1,92
 515 -2 515 -2 444 0 c 0,93,94
 403 0 403 0 381.5 20.5 c 128,-1,95
 360 41 360 41 353 69.5 c 128,-1,96
 346 98 346 98 349 133 c 128,-1,97
 352 168 352 168 359 199 c 0,98,99
 373 256 373 256 398.5 313.5 c 128,-1,100
 424 371 424 371 452.5 426 c 128,-1,101
 481 481 481 481 506 536.5 c 128,-1,102
 531 592 531 592 543 647 c 1,12,13
EndSplineSet
EndChar
StartChar: uni0E0C
Encoding: 3596 3596 16
Width: 1006
Flags: W
Fore
882 39 m 1,0,1
 887 39 887 39 896.5 74 c 128,-1,2
 906 109 906 109 918 166 c 128,-1,3
 930 223 930 223 944.5 295 c 128,-1,4
 959 367 959 367 973 439.5 c 128,-1,5
 987 512 987 512 1001.5 578.5 c 128,-1,6
 1016 645 1016 645 1028 694 c 1,7,8
 1029 709 1029 709 1035.5 716 c 128,-1,9
 1042 723 1042 723 1050 723 c 128,-1,10
 1058 723 1058 723 1065 715 c 128,-1,11
 1072 707 1072 707 1070 690 c 1,12,13
 1056 641 1056 641 1036.5 551 c 128,-1,14
 1017 461 1017 461 997.5 362.5 c 128,-1,15
 978 264 978 264 957.5 174 c 128,-1,16
 937 84 937 84 925 33 c 1,17,18
 915 14 915 14 905 8 c 128,-1,19
 895 2 895 2 885 0 c 0,20,21
 871 -2 871 -2 858 4 c 1,22,-1
 629 156 l 1,23,24
 626 135 626 135 621.5 109.5 c 128,-1,25
 617 84 617 84 604 60.5 c 128,-1,26
 591 37 591 37 566 20.5 c 128,-1,27
 541 4 541 4 502 0 c 0,28,29
 442 -6 442 -6 425 24.5 c 128,-1,30
 408 55 408 55 412 90 c 0,31,32
 415 113 415 113 428.5 138.5 c 128,-1,33
 442 164 442 164 467 184.5 c 128,-1,34
 492 205 492 205 525 213 c 128,-1,35
 558 221 558 221 601 209 c 1,36,37
 632 346 632 346 642.5 438 c 128,-1,38
 653 530 653 530 639 586.5 c 128,-1,39
 625 643 625 643 586.5 667.5 c 128,-1,40
 548 692 548 692 479 696 c 256,41,42
 410 700 410 700 355.5 684 c 128,-1,43
 301 668 301 668 262.5 642 c 128,-1,44
 224 616 224 616 201.5 586.5 c 128,-1,45
 179 557 179 557 172 532 c 1,46,-1
 288 483 l 1,47,48
 296 477 296 477 292 448.5 c 128,-1,49
 288 420 288 420 277.5 380 c 128,-1,50
 267 340 267 340 251 291 c 128,-1,51
 235 242 235 242 223 197 c 1,52,53
 233 205 233 205 246 213 c 0,54,55
 268 225 268 225 309 223 c 0,56,57
 342 223 342 223 360.5 210 c 128,-1,58
 379 197 379 197 387.5 179.5 c 128,-1,59
 396 162 396 162 396.5 143.5 c 128,-1,60
 397 125 397 125 395 113 c 1,61,62
 382 72 382 72 345.5 37 c 128,-1,63
 309 2 309 2 252 2 c 1,64,65
 240 0 240 0 221.5 6 c 128,-1,66
 203 12 203 12 188.5 25.5 c 128,-1,67
 174 39 174 39 166 60.5 c 128,-1,68
 158 82 158 82 165 113 c 0,69,70
 173 154 173 154 191 212 c 128,-1,71
 209 270 209 270 225.5 323.5 c 128,-1,72
 242 377 242 377 251 416 c 128,-1,73
 260 455 260 455 255 459 c 1,74,75
 236 469 236 469 214.5 477 c 128,-1,76
 193 485 193 485 174 492.5 c 128,-1,77
 155 500 155 500 142 507 c 128,-1,78
 129 514 129 514 131 524 c 0,79,80
 138 557 138 557 167.5 596 c 128,-1,81
 197 635 197 635 243.5 665.5 c 128,-1,82
 290 696 290 696 353 715.5 c 128,-1,83
 416 735 416 735 488 729 c 0,84,85
 559 723 559 723 605.5 702.5 c 128,-1,86
 652 682 652 682 670.5 625.5 c 128,-1,87
 689 569 689 569 680.5 465.5 c 128,-1,88
 672 362 672 362 631 195 c 1,89,-1
 882 39 l 1,0,1
362 117 m 0,90,91
 370 152 370 152 350 174.5 c 128,-1,92
 330 197 330 197 295 197 c 0,93,94
 252 197 252 197 227.5 168 c 128,-1,95
 203 139 203 139 198 113 c 0,96,97
 192 88 192 88 204.5 59.5 c 128,-1,98
 217 31 217 31 260 31 c 0,99,100
 295 31 295 31 323.5 54.5 c 128,-1,101
 352 78 352 78 362 117 c 0,90,91
593 170 m 1,102,103
 569 184 569 184 544.5 184 c 128,-1,104
 520 184 520 184 499 172 c 128,-1,105
 478 160 478 160 462.5 139.5 c 128,-1,106
 447 119 447 119 443 92 c 0,107,108
 440 70 440 70 451 47.5 c 128,-1,109
 462 25 462 25 507 27 c 0,110,111
 555 29 555 29 577 73 c 128,-1,112
 599 117 599 117 593 170 c 1,102,103
EndSplineSet
EndChar
StartChar: uni0E0D
Encoding: 3597 3597 17
Width: 1004
Flags: W
Fore
622 309 m 2,0,1
 716 696 716 696 479 696 c 0,2,3
 422 696 422 696 369.5 680 c 128,-1,4
 317 664 317 664 275.5 639.5 c 128,-1,5
 234 615 234 615 206.5 586 c 128,-1,6
 179 557 179 557 172 532 c 1,7,-1
 288 483 l 1,8,9
 297 476 297 476 292.5 448 c 128,-1,10
 288 420 288 420 277 379.5 c 128,-1,11
 266 339 266 339 250.5 291 c 128,-1,12
 235 243 235 243 223 197 c 1,13,14
 228 201 228 201 233.5 205 c 128,-1,15
 239 209 239 209 246 213 c 0,16,17
 268 225 268 225 309 223 c 0,18,19
 342 223 342 223 360.5 210 c 128,-1,20
 379 197 379 197 387 179.5 c 128,-1,21
 395 162 395 162 396 143.5 c 128,-1,22
 397 125 397 125 395 113 c 1,23,24
 381 70 381 70 345 37 c 0,25,26
 308 2 308 2 252 2 c 1,27,28
 239 0 239 0 221.5 5.5 c 128,-1,29
 204 11 204 11 189 25 c 128,-1,30
 174 39 174 39 166 61 c 128,-1,31
 158 83 158 83 165 113 c 0,32,33
 169 133 169 133 175.5 158 c 128,-1,34
 182 183 182 183 191 212 c 2,35,-1
 225 323 l 2,36,37
 234 350 234 350 240.5 374 c 128,-1,38
 247 398 247 398 251 416 c 128,-1,39
 255 434 255 434 256.5 445.5 c 128,-1,40
 258 457 258 457 255 459 c 0,41,42
 237 468 237 468 214.5 476.5 c 128,-1,43
 192 485 192 485 173 492.5 c 128,-1,44
 154 500 154 500 141.5 507.5 c 128,-1,45
 129 515 129 515 131 524 c 0,46,47
 138 557 138 557 173 595 c 128,-1,48
 208 633 208 633 259 664 c 128,-1,49
 310 695 310 695 370.5 714 c 128,-1,50
 431 733 431 733 488 729 c 0,51,52
 551 725 551 725 594 705.5 c 128,-1,53
 637 686 637 686 659.5 640.5 c 128,-1,54
 682 595 682 595 682.5 518 c 128,-1,55
 683 441 683 441 660 322 c 2,56,-1
 591 43 l 1,57,58
 605 41 605 41 624 40 c 128,-1,59
 643 39 643 39 668 38 c 256,60,61
 693 37 693 37 717.5 37 c 128,-1,62
 742 37 742 37 765 37 c 0,63,64
 793 37 793 37 822 37.5 c 128,-1,65
 851 38 851 38 882 39 c 0,66,67
 887 39 887 39 897.5 74.5 c 128,-1,68
 908 110 908 110 921.5 167 c 128,-1,69
 935 224 935 224 950.5 296 c 128,-1,70
 966 368 966 368 981 441 c 128,-1,71
 996 514 996 514 1009 582 c 128,-1,72
 1022 650 1022 650 1031 698 c 0,73,74
 1032 712 1032 712 1039 720 c 128,-1,75
 1046 728 1046 728 1053 728 c 128,-1,76
 1060 728 1060 728 1064.5 720.5 c 128,-1,77
 1069 713 1069 713 1065 696 c 0,78,79
 1058 671 1058 671 1050.5 636.5 c 128,-1,80
 1043 602 1043 602 1034 556 c 2,81,-1
 997 365 l 2,82,83
 987 315 987 315 977.5 268 c 128,-1,84
 968 221 968 221 958 175 c 0,85,86
 939 86 939 86 925 33 c 1,87,88
 913 11 913 11 896 6 c 0,89,90
 894 5 894 5 877.5 4.5 c 128,-1,91
 861 4 861 4 835.5 4 c 128,-1,92
 810 4 810 4 777.5 4 c 128,-1,93
 745 4 745 4 710 4 c 128,-1,94
 675 4 675 4 641 4 c 128,-1,95
 607 4 607 4 578 4 c 0,96,97
 567 4 567 4 559 8 c 128,-1,98
 551 12 551 12 554 27 c 2,99,-1
 622 309 l 2,0,1
362 117 m 0,100,101
 370 152 370 152 350 174.5 c 128,-1,102
 330 197 330 197 295 197 c 0,103,104
 253 197 253 197 227 168 c 0,105,106
 203 139 203 139 198 113 c 0,107,108
 192 87 192 87 204 59 c 0,109,110
 217 31 217 31 260 31 c 0,111,112
 295 31 295 31 323.5 54.5 c 128,-1,113
 352 78 352 78 362 117 c 0,100,101
501 -291 m 0,114,115
 495 -290 495 -290 513.5 -300 c 128,-1,116
 532 -310 532 -310 563 -314 c 0,117,118
 588 -318 588 -318 614 -318.5 c 128,-1,119
 640 -319 640 -319 666 -315 c 0,120,121
 712 -309 712 -309 753.5 -300.5 c 128,-1,122
 795 -292 795 -292 831 -269.5 c 128,-1,123
 867 -247 867 -247 897.5 -204.5 c 128,-1,124
 928 -162 928 -162 952 -88 c 1,125,126
 961 -70 961 -70 964 -66.5 c 128,-1,127
 967 -63 967 -63 976 -61 c 0,128,129
 986 -59 986 -59 992.5 -64.5 c 128,-1,130
 999 -70 999 -70 994 -82 c 0,131,132
 971 -153 971 -153 940 -205 c 128,-1,133
 909 -257 909 -257 864 -287 c 0,134,135
 820 -318 820 -318 769.5 -333 c 128,-1,136
 719 -348 719 -348 662 -352 c 0,137,138
 613 -356 613 -356 565.5 -350.5 c 128,-1,139
 518 -345 518 -345 481.5 -326 c 128,-1,140
 445 -307 445 -307 424 -274 c 128,-1,141
 403 -241 403 -241 408 -190 c 0,142,143
 410 -169 410 -169 419.5 -148.5 c 128,-1,144
 429 -128 429 -128 444 -111.5 c 128,-1,145
 459 -95 459 -95 478 -84 c 128,-1,146
 497 -73 497 -73 518 -71 c 0,147,148
 542 -68 542 -68 567.5 -72 c 128,-1,149
 593 -76 593 -76 610 -91 c 0,150,151
 644 -121 644 -121 641 -162 c 0,152,153
 639 -188 639 -188 626 -212.5 c 128,-1,154
 613 -237 613 -237 593.5 -255.5 c 128,-1,155
 574 -274 574 -274 550 -284 c 128,-1,156
 526 -294 526 -294 501 -291 c 0,114,115
520 -105 m 0,157,158
 507 -107 507 -107 493.5 -113.5 c 128,-1,159
 480 -120 480 -120 469 -130.5 c 128,-1,160
 458 -141 458 -141 450 -156 c 128,-1,161
 442 -171 442 -171 441 -189 c 0,162,163
 439 -231 439 -231 458 -248.5 c 128,-1,164
 477 -266 477 -266 504 -264 c 0,165,166
 525 -262 525 -262 543 -252.5 c 128,-1,167
 561 -243 561 -243 574 -229.5 c 128,-1,168
 587 -216 587 -216 595 -199.5 c 128,-1,169
 603 -183 603 -183 605 -168 c 0,170,171
 607 -148 607 -148 600.5 -135 c 128,-1,172
 594 -122 594 -122 581.5 -114.5 c 128,-1,173
 569 -107 569 -107 553 -105 c 128,-1,174
 537 -103 537 -103 520 -105 c 0,157,158
EndSplineSet
Substitution: 0 65534 'L026' uni0E0D.alt1
Substitution: 0 65534 'L026' uni0E0D.alt1
EndChar
StartChar: uni0E0E
Encoding: 3598 3598 18
Width: 778
Flags: W
Fore
682 109 m 2,0,1
 718 268 718 268 735 382 c 128,-1,2
 752 496 752 496 741 569.5 c 128,-1,3
 730 643 730 643 686.5 678 c 128,-1,4
 643 713 643 713 557 715 c 0,5,6
 467 717 467 717 402.5 695.5 c 128,-1,7
 338 674 338 674 296 646 c 128,-1,8
 254 618 254 618 232.5 590.5 c 128,-1,9
 211 563 211 563 207 551 c 1,10,-1
 349 506 l 2,11,12
 358 502 358 502 349.5 448.5 c 128,-1,13
 341 395 341 395 327 327.5 c 128,-1,14
 313 260 313 260 295 194.5 c 128,-1,15
 277 129 277 129 268 98 c 0,16,17
 260 68 260 68 241.5 48.5 c 128,-1,18
 223 29 223 29 202 17.5 c 128,-1,19
 181 6 181 6 160.5 2 c 128,-1,20
 140 -2 140 -2 127 0 c 0,21,22
 74 4 74 4 54 37 c 128,-1,23
 34 70 34 70 47 117 c 0,24,25
 50 129 50 129 60 148.5 c 128,-1,26
 70 168 70 168 86.5 184.5 c 128,-1,27
 103 201 103 201 127 212 c 128,-1,28
 151 223 151 223 185 221 c 0,29,30
 208 221 208 221 223.5 215 c 128,-1,31
 239 209 239 209 247 201 c 2,32,33
 258 193 258 193 263 180 c 1,34,35
 298 309 298 309 310 393 c 128,-1,36
 322 477 322 477 315 481 c 0,37,38
 297 492 297 492 270.5 499 c 128,-1,39
 244 506 244 506 219 513 c 128,-1,40
 194 520 194 520 178 526 c 128,-1,41
 162 532 162 532 164 543 c 0,42,43
 171 567 171 567 200.5 604 c 128,-1,44
 230 641 230 641 281 675 c 128,-1,45
 332 709 332 709 403 730.5 c 128,-1,46
 474 752 474 752 566 748 c 0,47,48
 663 743 663 743 714 706.5 c 128,-1,49
 765 670 765 670 779 598 c 128,-1,50
 793 526 793 526 776.5 414.5 c 128,-1,51
 760 303 760 303 725 150 c 2,52,-1
 676 -84 l 2,53,54
 651 -180 651 -180 639.5 -234.5 c 128,-1,55
 628 -289 628 -289 620.5 -315.5 c 128,-1,56
 613 -342 613 -342 608 -352 c 128,-1,57
 603 -362 603 -362 588 -354 c 1,58,59
 569 -328 569 -328 550.5 -308.5 c 128,-1,60
 532 -289 532 -289 511 -273.5 c 128,-1,61
 490 -258 490 -258 465 -243.5 c 128,-1,62
 440 -229 440 -229 409 -213 c 1,63,64
 396 -258 396 -258 358.5 -292 c 128,-1,65
 321 -326 321 -326 273.5 -346.5 c 128,-1,66
 226 -367 226 -367 176 -374 c 128,-1,67
 126 -381 126 -381 85.5 -373 c 128,-1,68
 45 -365 45 -365 20.5 -341 c 128,-1,69
 -4 -317 -4 -317 2 -276 c 0,70,71
 14 -201 14 -201 65 -168 c 128,-1,72
 116 -135 116 -135 178.5 -131 c 128,-1,73
 241 -127 241 -127 301 -141.5 c 128,-1,74
 361 -156 361 -156 393 -174 c 1,75,-1
 407 -123 l 1,76,77
 407 -113 407 -113 413 -108.5 c 128,-1,78
 419 -104 419 -104 425.5 -104 c 128,-1,79
 432 -104 432 -104 437 -110.5 c 128,-1,80
 442 -117 442 -117 440 -125 c 2,81,-1
 424 -180 l 1,82,83
 456 -195 456 -195 476 -206 c 128,-1,84
 496 -217 496 -217 514 -229.5 c 128,-1,85
 532 -242 532 -242 549.5 -257 c 128,-1,86
 567 -272 567 -272 592 -295 c 1,87,-1
 682 109 l 2,0,1
77 123 m 0,88,89
 66 84 66 84 82.5 58.5 c 128,-1,90
 99 33 99 33 133 29 c 0,91,92
 175 25 175 25 201 51.5 c 128,-1,93
 227 78 227 78 236 102 c 0,94,95
 246 129 246 129 236 159.5 c 128,-1,96
 226 190 226 190 184 195 c 0,97,98
 151 199 151 199 119.5 178.5 c 128,-1,99
 88 158 88 158 77 123 c 0,88,89
380 -205 m 1,100,101
 351 -186 351 -186 296 -173 c 128,-1,102
 241 -160 241 -160 185.5 -163 c 128,-1,103
 130 -166 130 -166 85 -190.5 c 128,-1,104
 40 -215 40 -215 31 -276 c 0,105,106
 26 -307 26 -307 47 -324.5 c 128,-1,107
 68 -342 68 -342 104 -346 c 128,-1,108
 140 -350 140 -350 184 -342 c 128,-1,109
 228 -334 228 -334 269 -314.5 c 128,-1,110
 310 -295 310 -295 340 -267.5 c 128,-1,111
 370 -240 370 -240 380 -205 c 1,100,101
EndSplineSet
Substitution: 0 65534 'L026' uni0E0E.alt1
Substitution: 0 65534 'L026' uni0E0E.alt1
EndChar
StartChar: uni0E0F
Encoding: 3599 3599 19
Width: 795
Flags: W
Fore
586 -324 m 1,0,1
 590 -322 590 -322 597.5 -302.5 c 128,-1,2
 605 -283 605 -283 614 -252 c 128,-1,3
 623 -221 623 -221 633 -183 c 128,-1,4
 643 -145 643 -145 651 -104 c 0,5,6
 673 -10 673 -10 699 109 c 0,7,8
 734 268 734 268 752 380 c 128,-1,9
 770 492 770 492 759.5 564.5 c 128,-1,10
 749 637 749 637 707.5 673 c 128,-1,11
 666 709 666 709 583 715 c 0,12,13
 497 721 497 721 432 700.5 c 128,-1,14
 367 680 367 680 324.5 651.5 c 128,-1,15
 282 623 282 623 259 593 c 128,-1,16
 236 563 236 563 232 551 c 1,17,-1
 373 506 l 2,18,19
 382 502 382 502 374 448.5 c 128,-1,20
 366 395 366 395 352 327.5 c 128,-1,21
 338 260 338 260 319.5 194.5 c 128,-1,22
 301 129 301 129 292 98 c 0,23,24
 284 68 284 68 266 48.5 c 128,-1,25
 248 29 248 29 227 17.5 c 128,-1,26
 206 6 206 6 185.5 2 c 128,-1,27
 165 -2 165 -2 152 0 c 0,28,29
 98 4 98 4 77.5 39 c 128,-1,30
 57 74 57 74 75 121.5 c 128,-1,31
 93 169 93 169 110.5 185 c 128,-1,32
 128 201 128 201 152 212 c 128,-1,33
 176 223 176 223 210 221 c 0,34,35
 232 221 232 221 247.5 215 c 128,-1,36
 263 209 263 209 271 201 c 2,37,38
 283 193 283 193 288 180 c 1,39,40
 323 309 323 309 335 393 c 128,-1,41
 347 477 347 477 340 481 c 0,42,43
 321 492 321 492 295 499 c 128,-1,44
 269 506 269 506 244 513 c 128,-1,45
 219 520 219 520 203 526 c 128,-1,46
 187 532 187 532 189 543 c 0,47,48
 196 567 196 567 224.5 604 c 128,-1,49
 253 641 253 641 303 675 c 128,-1,50
 353 709 353 709 425.5 731.5 c 128,-1,51
 498 754 498 754 592 748 c 0,52,53
 679 743 679 743 727 706.5 c 128,-1,54
 775 670 775 670 790 598 c 128,-1,55
 805 526 805 526 791 414.5 c 128,-1,56
 777 303 777 303 742 150 c 2,57,-1
 693 -84 l 2,58,59
 668 -180 668 -180 652.5 -236.5 c 128,-1,60
 637 -293 637 -293 624.5 -320.5 c 128,-1,61
 612 -348 612 -348 600.5 -355 c 128,-1,62
 589 -362 589 -362 574 -362 c 0,63,64
 562 -362 562 -362 547.5 -337.5 c 128,-1,65
 533 -313 533 -313 519.5 -284.5 c 128,-1,66
 506 -256 506 -256 493 -231.5 c 128,-1,67
 480 -207 480 -207 472 -205 c 256,68,69
 464 -203 464 -203 440.5 -227.5 c 128,-1,70
 417 -252 417 -252 389.5 -280.5 c 128,-1,71
 362 -309 362 -309 337 -333.5 c 128,-1,72
 312 -358 312 -358 302 -358 c 0,73,74
 288 -358 288 -358 274 -337.5 c 128,-1,75
 260 -317 260 -317 247 -290.5 c 128,-1,76
 234 -264 234 -264 223 -238.5 c 128,-1,77
 212 -213 212 -213 202 -205 c 1,78,79
 199 -266 199 -266 161.5 -303 c 128,-1,80
 124 -340 124 -340 81.5 -348 c 128,-1,81
 39 -356 39 -356 5 -333.5 c 128,-1,82
 -29 -311 -29 -311 -24 -254 c 0,83,84
 -22 -199 -22 -199 8 -169 c 128,-1,85
 38 -139 38 -139 75.5 -129 c 128,-1,86
 113 -119 113 -119 146.5 -127 c 128,-1,87
 180 -135 180 -135 191 -156 c 1,88,-1
 200 -115 l 1,89,90
 200 -104 200 -104 206 -100 c 128,-1,91
 212 -96 212 -96 218.5 -96 c 128,-1,92
 225 -96 225 -96 229.5 -102.5 c 128,-1,93
 234 -109 234 -109 233 -117 c 2,94,-1
 228 -166 l 1,95,96
 240 -182 240 -182 252.5 -207.5 c 128,-1,97
 265 -233 265 -233 276 -258 c 128,-1,98
 287 -283 287 -283 297 -300 c 128,-1,99
 307 -317 307 -317 312 -313 c 0,100,101
 351 -274 351 -274 382 -242 c 0,102,103
 411 -213 411 -213 438 -188.5 c 128,-1,104
 465 -164 465 -164 478 -158 c 1,105,106
 490 -158 490 -158 503.5 -182.5 c 128,-1,107
 517 -207 517 -207 531 -236.5 c 128,-1,108
 545 -266 545 -266 559 -291.5 c 128,-1,109
 573 -317 573 -317 586 -324 c 1,0,1
102 123 m 0,110,111
 91 84 91 84 107.5 58.5 c 128,-1,112
 124 33 124 33 158 29 c 0,113,114
 200 25 200 25 226 51.5 c 128,-1,115
 252 78 252 78 261 102 c 0,116,117
 271 129 271 129 261 159.5 c 128,-1,118
 251 190 251 190 209 195 c 0,119,120
 175 199 175 199 144 178.5 c 128,-1,121
 113 158 113 158 102 123 c 0,110,111
177 -186 m 1,122,123
 161 -166 161 -166 131.5 -159 c 128,-1,124
 102 -152 102 -152 74 -159 c 128,-1,125
 46 -166 46 -166 24.5 -190.5 c 128,-1,126
 3 -215 3 -215 3 -254 c 0,127,128
 2 -299 2 -299 29.5 -312.5 c 128,-1,129
 57 -326 57 -326 90 -314.5 c 128,-1,130
 123 -303 123 -303 150.5 -269.5 c 128,-1,131
 178 -236 178 -236 177 -186 c 1,122,123
EndSplineSet
Substitution: 0 65534 'L026' uni0E0F.alt1
Substitution: 0 65534 'L026' uni0E0F.alt1
EndChar
StartChar: uni0E10
Encoding: 3600 3600 20
Width: 719
Flags: W
Fore
287 358 m 0,0,1
 255 307 255 307 270.5 267 c 128,-1,2
 286 227 286 227 340 225 c 0,3,4
 377 223 377 223 407 249.5 c 128,-1,5
 437 276 437 276 445 311 c 0,6,7
 452 346 452 346 433.5 374.5 c 128,-1,8
 415 403 415 403 377 406 c 0,9,10
 354 408 354 408 328 396.5 c 128,-1,11
 302 385 302 385 287 358 c 0,0,1
48 -262 m 1,12,13
 42 -242 42 -242 24 -231.5 c 128,-1,14
 6 -221 6 -221 -16 -224 c 128,-1,15
 -38 -227 -38 -227 -58 -244.5 c 128,-1,16
 -78 -262 -78 -262 -82 -293 c 0,17,18
 -87 -326 -87 -326 -69 -339 c 128,-1,19
 -51 -352 -51 -352 -25.5 -347 c 128,-1,20
 0 -342 0 -342 22.5 -320.5 c 128,-1,21
 45 -299 45 -299 48 -262 c 1,12,13
416 -354 m 1,22,23
 425 -340 425 -340 433.5 -313.5 c 128,-1,24
 442 -287 442 -287 448 -260 c 0,25,26
 455 -229 455 -229 460 -197 c 1,27,28
 440 -209 l 0,29,30
 422 -219 422 -219 391 -219 c 0,31,32
 348 -219 348 -219 331.5 -191.5 c 128,-1,33
 315 -164 315 -164 322 -130 c 128,-1,34
 329 -96 329 -96 356.5 -67.5 c 128,-1,35
 384 -39 384 -39 427 -39 c 0,36,37
 480 -39 480 -39 499 -63.5 c 128,-1,38
 518 -88 518 -88 513 -131 c 2,39,-1
 493 -213 l 2,40,41
 481 -270 481 -270 472 -304 c 128,-1,42
 463 -338 463 -338 452.5 -356.5 c 128,-1,43
 442 -375 442 -375 430.5 -381 c 128,-1,44
 419 -387 419 -387 400 -387 c 0,45,46
 390 -387 390 -387 377 -371.5 c 128,-1,47
 364 -356 364 -356 349 -339 c 128,-1,48
 334 -322 334 -322 322 -307.5 c 128,-1,49
 310 -293 310 -293 302 -293 c 0,50,51
 295 -293 295 -293 276.5 -306 c 128,-1,52
 258 -319 258 -319 236.5 -336.5 c 128,-1,53
 215 -354 215 -354 196.5 -368.5 c 128,-1,54
 178 -383 178 -383 170 -383 c 0,55,56
 156 -383 156 -383 142 -370.5 c 128,-1,57
 128 -358 128 -358 115.5 -340 c 128,-1,58
 103 -322 103 -322 92.5 -303.5 c 128,-1,59
 82 -285 82 -285 77 -272 c 1,60,61
 63 -319 63 -319 30 -346 c 128,-1,62
 -3 -373 -3 -373 -35.5 -376 c 128,-1,63
 -68 -379 -68 -379 -92 -358.5 c 128,-1,64
 -116 -338 -116 -338 -110 -291 c 0,65,66
 -106 -250 -106 -250 -78.5 -226.5 c 128,-1,67
 -51 -203 -51 -203 -19.5 -196.5 c 128,-1,68
 12 -190 12 -190 38 -199.5 c 128,-1,69
 64 -209 64 -209 67 -231 c 1,70,71
 72 -221 72 -221 76 -211 c 0,72,73
 84 -190 84 -190 78 -164 c 1,74,75
 79 -147 79 -147 94.5 -145 c 128,-1,76
 110 -143 110 -143 112 -160 c 0,77,78
 115 -174 115 -174 111.5 -188.5 c 128,-1,79
 108 -203 108 -203 106 -213 c 0,80,81
 103 -227 103 -227 98 -240 c 1,82,83
 109 -258 109 -258 121 -278.5 c 128,-1,84
 133 -299 133 -299 143.5 -314.5 c 128,-1,85
 154 -330 154 -330 164 -339 c 128,-1,86
 174 -348 174 -348 178 -344 c 0,87,88
 205 -322 205 -322 232 -303 c 0,89,90
 253 -287 253 -287 274 -272.5 c 128,-1,91
 295 -258 295 -258 306 -254 c 1,92,93
 317 -254 317 -254 331.5 -267.5 c 128,-1,94
 346 -281 346 -281 360.5 -298 c 128,-1,95
 375 -315 375 -315 390 -331.5 c 128,-1,96
 405 -348 405 -348 416 -354 c 1,22,23
479 -135 m 0,97,98
 486 -102 486 -102 467 -85 c 128,-1,99
 448 -68 448 -68 427 -66 c 0,100,101
 403 -66 403 -66 382.5 -85 c 128,-1,102
 362 -104 362 -104 354 -128 c 128,-1,103
 346 -152 346 -152 355 -172.5 c 128,-1,104
 364 -193 364 -193 400 -193 c 0,105,106
 417 -193 417 -193 445.5 -175.5 c 128,-1,107
 474 -158 474 -158 479 -135 c 0,97,98
680 416 m 0,108,109
 661 338 661 338 633.5 263 c 128,-1,110
 606 188 606 188 574.5 130 c 128,-1,111
 543 72 543 72 510 36 c 128,-1,112
 477 0 477 0 446 0 c 0,113,114
 418 0 418 0 409 21.5 c 128,-1,115
 400 43 400 43 401.5 74.5 c 128,-1,116
 403 106 403 106 409.5 145 c 128,-1,117
 416 184 416 184 419 221 c 1,118,119
 399 205 399 205 376.5 201 c 128,-1,120
 354 197 354 197 332 197 c 0,121,122
 272 197 272 197 249.5 234.5 c 128,-1,123
 227 272 227 272 230 303 c 0,124,125
 232 330 232 330 246 355.5 c 128,-1,126
 260 381 260 381 281 400.5 c 128,-1,127
 302 420 302 420 328.5 430 c 128,-1,128
 355 440 355 440 382 440 c 0,129,130
 402 440 402 440 424 433 c 128,-1,131
 446 426 446 426 460.5 406.5 c 128,-1,132
 475 387 475 387 479 352 c 128,-1,133
 483 317 483 317 469 260 c 0,134,135
 460 221 460 221 451.5 181 c 128,-1,136
 443 141 443 141 440.5 108.5 c 128,-1,137
 438 76 438 76 440.5 54.5 c 128,-1,138
 443 33 443 33 456 33 c 0,139,140
 472 33 472 33 499.5 72 c 128,-1,141
 527 111 527 111 557 169 c 128,-1,142
 587 227 587 227 612 293.5 c 128,-1,143
 637 360 637 360 648 412 c 0,144,145
 651 434 651 434 650 449.5 c 128,-1,146
 649 465 649 465 639 475 c 128,-1,147
 629 485 629 485 605.5 489.5 c 128,-1,148
 582 494 582 494 539 494 c 0,149,150
 422 494 422 494 345.5 491.5 c 128,-1,151
 269 489 269 489 224 492.5 c 128,-1,152
 179 496 179 496 161.5 506 c 128,-1,153
 144 516 144 516 147 541 c 0,154,155
 152 571 152 571 183 606 c 128,-1,156
 214 641 214 641 258 670.5 c 128,-1,157
 302 700 302 700 354.5 720.5 c 128,-1,158
 407 741 407 741 456 741 c 0,159,160
 536 741 536 741 574.5 720.5 c 128,-1,161
 613 700 613 700 634 674.5 c 128,-1,162
 655 649 655 649 668.5 628.5 c 128,-1,163
 682 608 682 608 709 608 c 0,164,165
 721 608 721 608 730 614.5 c 128,-1,166
 739 621 739 621 744 641 c 0,167,168
 746 651 746 651 763.5 651 c 128,-1,169
 781 651 781 651 778 639 c 0,170,171
 772 610 772 610 746.5 591.5 c 128,-1,172
 721 573 721 573 701 573 c 0,173,174
 662 573 662 573 643 594.5 c 128,-1,175
 624 616 624 616 603.5 642 c 128,-1,176
 583 668 583 668 552 688.5 c 128,-1,177
 521 709 521 709 455 709 c 0,178,179
 418 709 418 709 373 693.5 c 128,-1,180
 328 678 328 678 289.5 654.5 c 128,-1,181
 251 631 251 631 223.5 603 c 128,-1,182
 196 575 196 575 192 549 c 0,183,184
 190 539 190 539 207.5 534.5 c 128,-1,185
 225 530 225 530 272 529 c 128,-1,186
 319 528 319 528 400 529 c 128,-1,187
 481 530 481 530 608 530 c 0,188,189
 662 535 662 535 677 499 c 128,-1,190
 692 463 692 463 680 416 c 0,108,109
EndSplineSet
Substitution: 0 65534 'L026' uni0E10.alt1
Substitution: 0 65534 'L026' uni0E10.alt1
EndChar
StartChar: uni0E11
Encoding: 3601 3601 21
Width: 932
Flags: W
Fore
189 545 m 0,0,1
 163 502 163 502 174.5 465 c 128,-1,2
 186 428 186 428 242 426 c 0,3,4
 278 424 278 424 301.5 447.5 c 128,-1,5
 325 471 325 471 332 506 c 0,6,7
 348 582 348 582 269 586 c 0,8,9
 247 588 247 588 226 579.5 c 128,-1,10
 205 571 205 571 189 545 c 0,0,1
445 92 m 0,11,12
 483 281 483 281 503 395 c 0,13,14
 517 477 517 477 527.5 532.5 c 128,-1,15
 538 588 538 588 540 621.5 c 128,-1,16
 542 655 542 655 533.5 668.5 c 128,-1,17
 525 682 525 682 502 682 c 0,18,19
 472 680 472 680 459 649 c 128,-1,20
 446 618 446 618 429 588 c 1,21,22
 423 584 423 584 411.5 578.5 c 128,-1,23
 400 573 400 573 392 588 c 1,24,25
 393 598 393 598 389.5 614.5 c 128,-1,26
 386 631 386 631 376.5 646.5 c 128,-1,27
 367 662 367 662 351 674 c 128,-1,28
 335 686 335 686 309 686 c 1,29,30
 279 680 279 680 254 668 c 0,31,32
 233 657 233 657 217 639 c 128,-1,33
 201 621 201 621 202 594 c 1,34,35
 241 612 241 612 272 611 c 128,-1,36
 303 610 303 610 325 598 c 128,-1,37
 347 586 347 586 357.5 562.5 c 128,-1,38
 368 539 368 539 364 510 c 0,39,40
 363 494 363 494 352.5 474.5 c 128,-1,41
 342 455 342 455 324 437.5 c 128,-1,42
 306 420 306 420 284 409.5 c 128,-1,43
 262 399 262 399 236 399 c 0,44,45
 177 401 177 401 157 432 c 128,-1,46
 137 463 137 463 146 524 c 0,47,48
 158 598 158 598 202.5 656.5 c 128,-1,49
 247 715 247 715 320 719 c 0,50,51
 350 721 350 721 379.5 698.5 c 128,-1,52
 409 676 409 676 416 627 c 1,53,54
 436 676 436 676 458.5 695.5 c 128,-1,55
 481 715 481 715 509 715 c 0,56,57
 538 715 538 715 555 701.5 c 128,-1,58
 572 688 572 688 573.5 648 c 128,-1,59
 575 608 575 608 563.5 534.5 c 128,-1,60
 552 461 552 461 525 340 c 1,61,62
 529 352 529 352 541.5 386 c 128,-1,63
 554 420 554 420 573 463 c 128,-1,64
 592 506 592 506 619.5 552 c 128,-1,65
 647 598 647 598 681.5 637 c 128,-1,66
 716 676 716 676 759.5 700.5 c 128,-1,67
 803 725 803 725 854 725 c 0,68,69
 903 723 903 723 924.5 684 c 128,-1,70
 946 645 946 645 948 583.5 c 128,-1,71
 950 522 950 522 939 446.5 c 128,-1,72
 928 371 928 371 910.5 292 c 128,-1,73
 893 213 893 213 874.5 140.5 c 128,-1,74
 856 68 856 68 844 14 c 1,75,76
 835 0 835 0 823.5 -2 c 128,-1,77
 812 -4 812 -4 809 14 c 1,78,79
 830 102 830 102 858.5 218 c 128,-1,80
 887 334 887 334 902.5 438.5 c 128,-1,81
 918 543 918 543 909 615.5 c 128,-1,82
 900 688 900 688 846 690 c 0,83,84
 733 692 733 692 637 517 c 128,-1,85
 541 342 541 342 504.5 179 c 128,-1,86
 468 16 468 16 459.5 10 c 128,-1,87
 451 4 451 4 441.5 4 c 128,-1,88
 432 4 432 4 427.5 11 c 128,-1,89
 423 18 423 18 445 92 c 0,11,12
EndSplineSet
EndChar
StartChar: uni0E12
Encoding: 3602 3602 22
Width: 1081
Flags: W
Fore
458 346 m 0,0,1
 465 381 465 381 443.5 404.5 c 128,-1,2
 422 428 422 428 387 428 c 0,3,4
 342 428 342 428 317.5 398.5 c 128,-1,5
 293 369 293 369 287 342 c 0,6,7
 282 317 282 317 294 287.5 c 128,-1,8
 306 258 306 258 351 258 c 0,9,10
 388 258 388 258 417 282.5 c 128,-1,11
 446 307 446 307 458 346 c 0,0,1
733 377 m 2,12,13
 742 442 742 442 752 497.5 c 128,-1,14
 762 553 762 553 762 595 c 128,-1,15
 762 637 762 637 749.5 660.5 c 128,-1,16
 737 684 737 684 704 684 c 0,17,18
 659 686 659 686 620.5 652 c 128,-1,19
 582 618 582 618 547 535 c 0,20,21
 541 524 541 524 531 524 c 0,22,23
 517 524 517 524 517 537 c 1,24,25
 511 567 511 567 505.5 592.5 c 128,-1,26
 500 618 500 618 490 638.5 c 128,-1,27
 480 659 480 659 462.5 670.5 c 128,-1,28
 445 682 445 682 414 682 c 0,29,30
 386 682 386 682 355.5 665.5 c 128,-1,31
 325 649 325 649 298.5 613.5 c 128,-1,32
 272 578 272 578 249 519.5 c 128,-1,33
 226 461 226 461 209 379 c 0,34,35
 192 301 192 301 182.5 236.5 c 128,-1,36
 173 172 173 172 168 125 c 128,-1,37
 163 78 163 78 165 51.5 c 128,-1,38
 167 25 167 25 175 25 c 0,39,40
 195 25 195 25 238 54.5 c 128,-1,41
 281 84 281 84 326 126 c 128,-1,42
 371 168 371 168 408.5 215 c 128,-1,43
 446 262 446 262 456 299 c 1,44,45
 447 266 447 266 411 248.5 c 128,-1,46
 375 231 375 231 346 231 c 0,47,48
 311 231 311 231 290.5 242.5 c 128,-1,49
 270 254 270 254 262 271.5 c 128,-1,50
 254 289 254 289 252.5 307.5 c 128,-1,51
 251 326 251 326 253 338 c 0,52,53
 256 350 256 350 266 370.5 c 128,-1,54
 276 391 276 391 294 410.5 c 128,-1,55
 312 430 312 430 336.5 444.5 c 128,-1,56
 361 459 361 459 396 459 c 0,57,58
 410 459 410 459 430 452.5 c 128,-1,59
 450 446 450 446 466.5 432 c 128,-1,60
 483 418 483 418 491.5 392.5 c 128,-1,61
 500 367 500 367 491 328 c 0,62,63
 477 260 477 260 434 199.5 c 128,-1,64
 391 139 391 139 340 94 c 128,-1,65
 289 49 289 49 238 22.5 c 128,-1,66
 187 -4 187 -4 158 -6 c 256,67,68
 129 -8 129 -8 134 84 c 128,-1,69
 139 176 139 176 171 354 c 0,70,71
 191 469 191 469 221.5 539.5 c 128,-1,72
 252 610 252 610 287 650 c 128,-1,73
 322 690 322 690 357 704.5 c 128,-1,74
 392 719 392 719 422 719 c 0,75,76
 490 719 490 719 513.5 677 c 128,-1,77
 537 635 537 635 538 575 c 1,78,79
 554 635 554 635 599.5 678 c 128,-1,80
 645 721 645 721 713 719 c 0,81,82
 752 719 752 719 772.5 698.5 c 128,-1,83
 793 678 793 678 794.5 621.5 c 128,-1,84
 796 565 796 565 779 463.5 c 128,-1,85
 762 362 762 362 728 199 c 1,86,-1
 961 37 l 1,87,88
 965 37 965 37 975 71.5 c 128,-1,89
 985 106 985 106 998 163.5 c 128,-1,90
 1011 221 1011 221 1026 291.5 c 128,-1,91
 1041 362 1041 362 1056 436 c 128,-1,92
 1071 510 1071 510 1084.5 577.5 c 128,-1,93
 1098 645 1098 645 1108 694 c 1,94,95
 1117 719 1117 719 1129.5 716 c 128,-1,96
 1142 713 1142 713 1145 690 c 1,97,98
 1131 641 1131 641 1112 552 c 128,-1,99
 1093 463 1093 463 1073 365.5 c 128,-1,100
 1053 268 1053 268 1033.5 179 c 128,-1,101
 1014 90 1014 90 1001 39 c 0,102,103
 992 16 992 16 982.5 9 c 128,-1,104
 973 2 973 2 963 0 c 0,105,106
 951 -2 951 -2 938 4 c 1,107,-1
 721 156 l 1,108,109
 718 135 718 135 713.5 108.5 c 128,-1,110
 709 82 709 82 696 59.5 c 128,-1,111
 683 37 683 37 659 19.5 c 128,-1,112
 635 2 635 2 594 0 c 0,113,114
 536 -4 536 -4 516 25.5 c 128,-1,115
 496 55 496 55 500 90 c 0,116,117
 503 115 503 115 518 141.5 c 128,-1,118
 533 168 533 168 558.5 187.5 c 128,-1,119
 584 207 584 207 618 214 c 128,-1,120
 652 221 652 221 695 209 c 1,121,-1
 733 377 l 2,12,13
685 170 m 1,122,123
 662 184 662 184 637 184 c 128,-1,124
 612 184 612 184 591.5 172 c 128,-1,125
 571 160 571 160 555 139.5 c 128,-1,126
 539 119 539 119 535 92 c 0,127,128
 532 70 532 70 543 48.5 c 128,-1,129
 554 27 554 27 599 27 c 0,130,131
 646 27 646 27 669 72 c 128,-1,132
 692 117 692 117 685 170 c 1,122,123
EndSplineSet
EndChar
StartChar: uni0E13
Encoding: 3603 3603 23
Width: 1110
Flags: W
Fore
940 203 m 1,0,1
 987 215 987 215 1017.5 207 c 128,-1,2
 1048 199 1048 199 1064 178.5 c 128,-1,3
 1080 158 1080 158 1082.5 132 c 128,-1,4
 1085 106 1085 106 1078 84 c 0,5,6
 1067 49 1067 49 1037 18.5 c 128,-1,7
 1007 -12 1007 -12 950 -6 c 0,8,9
 910 -2 910 -2 893 14.5 c 128,-1,10
 876 31 876 31 873 54.5 c 128,-1,11
 870 78 870 78 876.5 103.5 c 128,-1,12
 883 129 883 129 889 150 c 1,13,-1
 594 2 l 2,14,15
 579 -4 579 -4 568 -4 c 0,16,17
 558 -4 558 -4 550 2 c 128,-1,18
 542 8 542 8 542 27 c 1,19,-1
 563 125 l 2,20,21
 573 172 573 172 586.5 235.5 c 128,-1,22
 600 299 600 299 619 377 c 0,23,24
 638 469 638 469 639.5 529.5 c 128,-1,25
 641 590 641 590 624.5 627 c 128,-1,26
 608 664 608 664 571 680 c 128,-1,27
 534 696 534 696 480 700 c 0,28,29
 411 705 411 705 356.5 687.5 c 128,-1,30
 302 670 302 670 263.5 644 c 128,-1,31
 225 618 225 618 202 587.5 c 128,-1,32
 179 557 179 557 172 532 c 1,33,-1
 288 483 l 1,34,35
 296 477 296 477 291.5 447.5 c 128,-1,36
 287 418 287 418 276.5 377 c 128,-1,37
 266 336 266 336 250 286 c 128,-1,38
 234 236 234 236 222 190 c 1,39,40
 232 199 232 199 244 207 c 0,41,42
 267 219 267 219 308 217 c 0,43,44
 341 217 341 217 359.5 203.5 c 128,-1,45
 378 190 378 190 386.5 173 c 128,-1,46
 395 156 395 156 395.5 137.5 c 128,-1,47
 396 119 396 119 393 106 c 0,48,49
 381 66 381 66 344.5 31 c 128,-1,50
 308 -4 308 -4 251 -4 c 1,51,52
 238 -6 238 -6 220 0 c 128,-1,53
 202 6 202 6 187.5 19.5 c 128,-1,54
 173 33 173 33 165 54.5 c 128,-1,55
 157 76 157 76 163 106 c 0,56,57
 172 147 172 147 190 206.5 c 128,-1,58
 208 266 208 266 225 321.5 c 128,-1,59
 242 377 242 377 251 416 c 128,-1,60
 260 455 260 455 255 459 c 1,61,62
 236 469 236 469 214.5 477 c 128,-1,63
 193 485 193 485 174 492.5 c 128,-1,64
 155 500 155 500 142 507 c 128,-1,65
 129 514 129 514 131 524 c 0,66,67
 138 557 138 557 167.5 596 c 128,-1,68
 197 635 197 635 244 667.5 c 128,-1,69
 291 700 291 700 354 719.5 c 128,-1,70
 417 739 417 739 489 733 c 0,71,72
 549 729 549 729 590 709.5 c 128,-1,73
 631 690 631 690 651.5 650 c 128,-1,74
 672 610 672 610 672 543.5 c 128,-1,75
 672 477 672 477 651 377 c 0,76,77
 635 311 635 311 622.5 247.5 c 128,-1,78
 610 184 610 184 602 137 c 0,79,80
 592 80 592 80 584 31 c 1,81,-1
 901 188 l 1,82,-1
 1008 707 l 1,83,84
 1016 729 1016 729 1031 730 c 128,-1,85
 1046 731 1046 731 1048 715 c 1,86,87
 1026 590 1026 590 993.5 457 c 128,-1,88
 961 324 961 324 940 203 c 1,0,1
361 111 m 0,89,90
 368 145 368 145 348.5 167.5 c 128,-1,91
 329 190 329 190 294 190 c 0,92,93
 251 190 251 190 226.5 161.5 c 128,-1,94
 202 133 202 133 196 106 c 0,95,96
 191 82 191 82 203.5 53.5 c 128,-1,97
 216 25 216 25 259 25 c 0,98,99
 294 25 294 25 322.5 48.5 c 128,-1,100
 351 72 351 72 361 111 c 0,89,90
931 164 m 1,101,102
 902 111 902 111 905.5 67 c 128,-1,103
 909 23 909 23 956 20 c 0,104,105
 1000 18 1000 18 1020.5 40.5 c 128,-1,106
 1041 63 1041 63 1048 86 c 0,107,108
 1056 113 1056 113 1049 133.5 c 128,-1,109
 1042 154 1042 154 1026 166 c 128,-1,110
 1010 178 1010 178 985.5 178 c 128,-1,111
 961 178 961 178 931 164 c 1,101,102
EndSplineSet
EndChar
StartChar: uni0E14
Encoding: 3604 3604 24
Width: 817
Flags: W
Fore
560 711 m 0,0,1
 508 711 508 711 454.5 688.5 c 128,-1,2
 401 666 401 666 354 620.5 c 128,-1,3
 307 575 307 575 270 506.5 c 128,-1,4
 233 438 233 438 215 350 c 0,5,6
 183 195 183 195 176 112 c 128,-1,7
 169 29 169 29 185 29 c 0,8,9
 215 29 215 29 269 61.5 c 128,-1,10
 323 94 323 94 378 140 c 128,-1,11
 433 186 433 186 478 236.5 c 128,-1,12
 523 287 523 287 529 322 c 1,13,14
 521 289 521 289 489 271.5 c 128,-1,15
 457 254 457 254 429 254 c 0,16,17
 395 254 395 254 376 265 c 128,-1,18
 357 276 357 276 346.5 293.5 c 128,-1,19
 336 311 336 311 334.5 329.5 c 128,-1,20
 333 348 333 348 336 360 c 0,21,22
 339 373 339 373 349 392.5 c 128,-1,23
 359 412 359 412 376 431.5 c 128,-1,24
 393 451 393 451 417.5 464 c 128,-1,25
 442 477 442 477 476 477 c 0,26,27
 490 477 490 477 507 471 c 128,-1,28
 524 465 524 465 538.5 449.5 c 128,-1,29
 553 434 553 434 562 410.5 c 128,-1,30
 571 387 571 387 567 350 c 0,31,32
 562 301 562 301 516 240.5 c 128,-1,33
 470 180 470 180 407.5 126 c 128,-1,34
 345 72 345 72 278.5 34 c 128,-1,35
 212 -4 212 -4 168 -6 c 0,36,37
 132 -8 132 -8 135 72 c 128,-1,38
 138 152 138 152 178 354 c 0,39,40
 201 475 201 475 251.5 552 c 128,-1,41
 302 629 302 629 359.5 672 c 128,-1,42
 417 715 417 715 474 731.5 c 128,-1,43
 531 748 531 748 567 748 c 0,44,45
 600 748 600 748 651 737.5 c 128,-1,46
 702 727 702 727 742.5 685 c 128,-1,47
 783 643 783 643 801.5 559 c 128,-1,48
 820 475 820 475 794 328 c 2,49,-1
 728 6 l 1,50,51
 718 -2 718 -2 711 -2 c 0,52,53
 701 -2 701 -2 700 0 c 1,54,-1
 695 4 l 1,55,-1
 761 324 l 2,56,57
 784 434 784 434 774.5 508 c 128,-1,58
 765 582 765 582 734.5 626 c 128,-1,59
 704 670 704 670 657.5 689.5 c 128,-1,60
 611 709 611 709 560 711 c 0,0,1
531 369 m 0,61,62
 538 403 538 403 521 427 c 128,-1,63
 504 451 504 451 470 451 c 0,64,65
 427 451 427 451 401 421 c 128,-1,66
 375 391 375 391 369 365 c 0,67,68
 364 340 364 340 378 310.5 c 128,-1,69
 392 281 392 281 435 281 c 0,70,71
 471 281 471 281 495.5 305.5 c 128,-1,72
 520 330 520 330 531 369 c 0,61,62
EndSplineSet
EndChar
StartChar: uni0E15
Encoding: 3605 3605 25
Width: 817
Flags: W
Fore
576 559 m 1,0,1
 570 549 570 549 560 549 c 0,2,3
 546 549 546 549 547 561 c 1,4,5
 532 621 532 621 506 664 c 128,-1,6
 480 707 480 707 422 707 c 0,7,8
 353 707 353 707 299.5 613.5 c 128,-1,9
 246 520 246 520 217 379 c 0,10,11
 185 223 185 223 172 127 c 128,-1,12
 159 31 159 31 185 29 c 0,13,14
 204 27 204 27 245.5 55.5 c 128,-1,15
 287 84 287 84 330.5 126 c 128,-1,16
 374 168 374 168 410.5 215 c 128,-1,17
 447 262 447 262 457 299 c 1,18,19
 448 266 448 266 413 248.5 c 128,-1,20
 378 231 378 231 350 231 c 0,21,22
 316 231 316 231 296 242.5 c 128,-1,23
 276 254 276 254 268.5 271.5 c 128,-1,24
 261 289 261 289 259.5 307.5 c 128,-1,25
 258 326 258 326 260 338 c 0,26,27
 263 350 263 350 272.5 370.5 c 128,-1,28
 282 391 282 391 299.5 410.5 c 128,-1,29
 317 430 317 430 341 444.5 c 128,-1,30
 365 459 365 459 399 459 c 0,31,32
 412 459 412 459 431.5 452.5 c 128,-1,33
 451 446 451 446 467 432 c 128,-1,34
 483 418 483 418 491 392.5 c 128,-1,35
 499 367 499 367 491 328 c 0,36,37
 477 260 477 260 435.5 199.5 c 128,-1,38
 394 139 394 139 344 93 c 128,-1,39
 294 47 294 47 244.5 20.5 c 128,-1,40
 195 -6 195 -6 168 -6 c 0,41,42
 132 -6 132 -6 134 75 c 128,-1,43
 136 156 136 156 176 354 c 0,44,45
 202 479 202 479 234 555 c 128,-1,46
 266 631 266 631 300 672 c 128,-1,47
 334 713 334 713 367 726 c 128,-1,48
 400 739 400 739 429 739 c 0,49,50
 495 739 495 739 528.5 696 c 128,-1,51
 562 653 562 653 566 600 c 1,52,53
 587 655 587 655 632 697 c 128,-1,54
 677 739 677 739 735 739 c 0,55,56
 760 739 760 739 784 728 c 128,-1,57
 808 717 808 717 821 680 c 128,-1,58
 834 643 834 643 832.5 574.5 c 128,-1,59
 831 506 831 506 808 391 c 2,60,-1
 800 356 l 1,61,-1
 728 6 l 1,62,63
 719 -2 719 -2 711 -2 c 0,64,65
 701 -2 701 -2 700 0 c 1,66,-1
 695 4 l 1,67,-1
 767 352 l 2,68,69
 783 426 783 426 790 490.5 c 128,-1,70
 797 555 797 555 794.5 604 c 128,-1,71
 792 653 792 653 775.5 681 c 128,-1,72
 759 709 759 709 728 709 c 0,73,74
 691 709 691 709 650 676 c 128,-1,75
 609 643 609 643 576 559 c 1,0,1
459 346 m 0,76,77
 466 381 466 381 445 404.5 c 128,-1,78
 424 428 424 428 390 428 c 0,79,80
 346 428 346 428 322.5 398.5 c 128,-1,81
 299 369 299 369 293 342 c 0,82,83
 288 317 288 317 299.5 287.5 c 128,-1,84
 311 258 311 258 355 258 c 0,85,86
 391 258 391 258 419 282.5 c 128,-1,87
 447 307 447 307 459 346 c 0,76,77
EndSplineSet
EndChar
StartChar: uni0E16
Encoding: 3606 3606 26
Width: 776
Flags: W
Fore
421 113 m 1,0,1
 408 72 408 72 372 37 c 128,-1,2
 336 2 336 2 279 2 c 1,3,4
 266 0 266 0 247.5 6 c 128,-1,5
 229 12 229 12 215 25.5 c 128,-1,6
 201 39 201 39 194 60.5 c 128,-1,7
 187 82 187 82 194 113 c 0,8,9
 202 154 202 154 220 215 c 128,-1,10
 238 276 238 276 254.5 334.5 c 128,-1,11
 271 393 271 393 281 435 c 128,-1,12
 291 477 291 477 286 481 c 0,13,14
 268 492 268 492 242 499 c 128,-1,15
 216 506 216 506 190.5 513 c 128,-1,16
 165 520 165 520 149 526 c 128,-1,17
 133 532 133 532 135 543 c 1,18,19
 143 567 143 567 171 604 c 128,-1,20
 199 641 199 641 252.5 674 c 128,-1,21
 306 707 306 707 385 728.5 c 128,-1,22
 464 750 464 750 574 745 c 0,23,24
 689 741 689 741 738 697 c 128,-1,25
 787 653 787 653 791 565 c 128,-1,26
 795 477 795 477 764 341 c 128,-1,27
 733 205 733 205 688 14 c 0,28,29
 683 0 683 0 670 -1.5 c 128,-1,30
 657 -3 657 -3 651 12 c 1,31,32
 703 211 703 211 733 345 c 128,-1,33
 763 479 763 479 757.5 560 c 128,-1,34
 752 641 752 641 707.5 676 c 128,-1,35
 663 711 663 711 565 713 c 0,36,37
 460 715 460 715 388.5 694.5 c 128,-1,38
 317 674 317 674 271 646 c 128,-1,39
 225 618 225 618 203.5 590.5 c 128,-1,40
 182 563 182 563 178 551 c 1,41,-1
 320 506 l 1,42,43
 327 500 327 500 322 468 c 128,-1,44
 317 436 317 436 305.5 391 c 128,-1,45
 294 346 294 346 278 294 c 128,-1,46
 262 242 262 242 250 197 c 1,47,48
 260 205 260 205 272 213 c 0,49,50
 295 225 295 225 336 223 c 0,51,52
 369 223 369 223 387.5 210 c 128,-1,53
 406 197 406 197 414.5 179.5 c 128,-1,54
 423 162 423 162 423 143.5 c 128,-1,55
 423 125 423 125 421 113 c 1,0,1
389 117 m 0,56,57
 397 152 397 152 376.5 174.5 c 128,-1,58
 356 197 356 197 322 197 c 0,59,60
 279 197 279 197 254.5 168 c 128,-1,61
 230 139 230 139 225 113 c 0,62,63
 219 88 219 88 231.5 59.5 c 128,-1,64
 244 31 244 31 287 31 c 0,65,66
 321 31 321 31 349.5 54.5 c 128,-1,67
 378 78 378 78 389 117 c 0,56,57
EndSplineSet
EndChar
StartChar: uni0E17
Encoding: 3607 3607 27
Width: 831
Flags: W
Fore
419 606 m 0,0,1
 431 662 431 662 406.5 691.5 c 128,-1,2
 382 721 382 721 331 723 c 0,3,4
 285 725 285 725 251 691 c 128,-1,5
 217 657 217 657 206 615 c 128,-1,6
 195 573 195 573 213.5 539.5 c 128,-1,7
 232 506 232 506 287 508 c 0,8,9
 329 510 329 510 369.5 535.5 c 128,-1,10
 410 561 410 561 419 606 c 0,0,1
356 12 m 1,11,12
 343 -2 343 -2 322 0 c 1,13,14
 308 -2 308 -2 298.5 6 c 128,-1,15
 289 14 289 14 298 43 c 2,16,-1
 404 524 l 1,17,18
 372 475 372 475 280 473 c 0,19,20
 211 471 211 471 185 515 c 128,-1,21
 159 559 159 559 169.5 612.5 c 128,-1,22
 180 666 180 666 224.5 710 c 128,-1,23
 269 754 269 754 336 754 c 0,24,25
 408 754 408 754 435.5 718 c 128,-1,26
 463 682 463 682 457 618 c 0,27,28
 453 582 453 582 441.5 523.5 c 128,-1,29
 430 465 430 465 415.5 400.5 c 128,-1,30
 401 336 401 336 385 270.5 c 128,-1,31
 369 205 369 205 357 152.5 c 128,-1,32
 345 100 345 100 339.5 69.5 c 128,-1,33
 334 39 334 39 338 41 c 1,34,35
 374 154 374 154 419.5 261.5 c 128,-1,36
 465 369 465 369 516 459 c 128,-1,37
 567 549 567 549 619.5 615.5 c 128,-1,38
 672 682 672 682 720 711 c 0,39,40
 755 733 755 733 782 729 c 128,-1,41
 809 725 809 725 820 719 c 0,42,43
 842 707 842 707 850 668 c 128,-1,44
 858 629 858 629 855 571.5 c 128,-1,45
 852 514 852 514 840 442.5 c 128,-1,46
 828 371 828 371 812 295 c 128,-1,47
 796 219 796 219 778 145.5 c 128,-1,48
 760 72 760 72 746 8 c 1,49,50
 737 2 737 2 724 3 c 128,-1,51
 711 4 711 4 712 16 c 0,52,53
 728 111 728 111 751.5 213 c 128,-1,54
 775 315 775 315 792.5 406.5 c 128,-1,55
 810 498 810 498 815.5 567.5 c 128,-1,56
 821 637 821 637 803 668 c 0,57,58
 787 698 787 698 745 686 c 1,59,60
 693 653 693 653 643.5 588.5 c 128,-1,61
 594 524 594 524 544.5 436 c 128,-1,62
 495 348 495 348 448.5 239.5 c 128,-1,63
 402 131 402 131 356 12 c 1,11,12
EndSplineSet
EndChar
StartChar: uni0E18
Encoding: 3608 3608 28
Width: 672
Flags: W
Fore
549 252 m 0,0,1
 566 330 566 330 570 370 c 128,-1,2
 574 410 574 410 565 426 c 128,-1,3
 556 442 556 442 537 444 c 128,-1,4
 518 446 518 446 489 446 c 2,5,-1
 272 453 l 2,6,7
 211 455 211 455 188 461 c 128,-1,8
 165 467 165 467 173 504 c 0,9,10
 179 535 179 535 203.5 574.5 c 128,-1,11
 228 614 228 614 266.5 649 c 128,-1,12
 305 684 305 684 354 707.5 c 128,-1,13
 403 731 403 731 460 731 c 0,14,15
 536 731 536 731 575 707.5 c 128,-1,16
 614 684 614 684 632.5 655.5 c 128,-1,17
 651 627 651 627 658.5 603.5 c 128,-1,18
 666 580 666 580 682 580 c 0,19,20
 703 580 703 580 709 591 c 128,-1,21
 715 602 715 602 721 618 c 0,22,23
 727 639 727 639 742.5 639 c 128,-1,24
 758 639 758 639 757 623 c 0,25,26
 753 596 753 596 730.5 572.5 c 128,-1,27
 708 549 708 549 677 549 c 0,28,29
 644 549 644 549 631.5 570.5 c 128,-1,30
 619 592 619 592 603.5 619.5 c 128,-1,31
 588 647 588 647 556 670.5 c 128,-1,32
 524 694 524 694 452 696 c 0,33,34
 405 696 405 696 363 675.5 c 128,-1,35
 321 655 321 655 288 624.5 c 128,-1,36
 255 594 255 594 233.5 562 c 128,-1,37
 212 530 212 530 208 510 c 0,38,39
 205 498 205 498 222.5 492.5 c 128,-1,40
 240 487 240 487 280 486 c 128,-1,41
 320 485 320 485 382.5 486 c 128,-1,42
 445 487 445 487 533 485 c 0,43,44
 564 485 564 485 582 480 c 128,-1,45
 600 475 600 475 607.5 453.5 c 128,-1,46
 615 432 615 432 609.5 386 c 128,-1,47
 604 340 604 340 585 254 c 2,48,-1
 544 59 l 1,49,50
 543 41 543 41 526.5 26.5 c 128,-1,51
 510 12 510 12 498 12 c 0,52,53
 422 10 422 10 353 8 c 0,54,55
 294 6 294 6 234.5 7 c 128,-1,56
 175 8 175 8 144 16 c 1,57,-1
 213 332 l 1,58,59
 222 354 222 354 237.5 355 c 128,-1,60
 253 356 253 356 252 334 c 1,61,-1
 189 43 l 1,62,63
 260 39 260 39 318.5 40 c 128,-1,64
 377 41 377 41 419 43 c 0,65,66
 466 45 466 45 504 49 c 1,67,68
 509 63 509 63 511.5 75.5 c 128,-1,69
 514 88 514 88 518.5 108.5 c 128,-1,70
 523 129 523 129 530 163 c 128,-1,71
 537 197 537 197 549 252 c 0,0,1
EndSplineSet
EndChar
StartChar: uni0E19
Encoding: 3609 3609 29
Width: 928
Flags: W
Fore
300 37 m 1,0,1
 318 158 318 158 341.5 263.5 c 128,-1,2
 365 369 365 369 396 498 c 1,3,4
 365 449 365 449 272 446 c 0,5,6
 203 444 203 444 177.5 488 c 128,-1,7
 152 532 152 532 162 585.5 c 128,-1,8
 172 639 172 639 216 683 c 128,-1,9
 260 727 260 727 328 727 c 0,10,11
 400 727 400 727 428 691 c 128,-1,12
 456 655 456 655 447 592 c 0,13,14
 443 563 443 563 432 510 c 128,-1,15
 421 457 421 457 406.5 394.5 c 128,-1,16
 392 332 392 332 378.5 268.5 c 128,-1,17
 365 205 365 205 355 153.5 c 128,-1,18
 345 102 345 102 341.5 70.5 c 128,-1,19
 338 39 338 39 347 43 c 0,20,21
 415 76 415 76 492 130 c 128,-1,22
 569 184 569 184 670 233 c 1,23,24
 708 393 708 393 733 510 c 128,-1,25
 758 627 758 627 778 723 c 1,26,27
 791 745 791 745 805.5 735 c 128,-1,28
 820 725 820 725 812 709 c 1,29,30
 795 627 795 627 766 512 c 128,-1,31
 737 397 737 397 707 238 c 1,32,33
 783 258 783 258 823 248 c 128,-1,34
 863 238 863 238 879.5 214 c 128,-1,35
 896 190 896 190 896.5 163.5 c 128,-1,36
 897 137 897 137 894 125 c 0,37,38
 891 111 891 111 881 87 c 128,-1,39
 871 63 871 63 852 41.5 c 128,-1,40
 833 20 833 20 805 5 c 128,-1,41
 777 -10 777 -10 738 -10 c 0,42,43
 673 -10 673 -10 656.5 48 c 128,-1,44
 640 106 640 106 663 199 c 1,45,46
 606 168 606 168 564 141.5 c 128,-1,47
 522 115 522 115 486 91.5 c 128,-1,48
 450 68 450 68 418 47.5 c 128,-1,49
 386 27 386 27 351 8 c 0,50,51
 336 2 336 2 326 4 c 256,52,53
 316 6 316 6 308 12 c 128,-1,54
 300 18 300 18 300 37 c 1,0,1
412 580 m 0,55,56
 423 635 423 635 398.5 665.5 c 128,-1,57
 374 696 374 696 324 698 c 0,58,59
 277 700 277 700 241.5 665.5 c 128,-1,60
 206 631 206 631 194 590 c 128,-1,61
 182 549 182 549 200 514 c 128,-1,62
 218 479 218 479 279 479 c 0,63,64
 320 479 320 479 361 507 c 128,-1,65
 402 535 402 535 412 580 c 0,55,56
697 199 m 1,66,67
 674 109 674 109 690 64.5 c 128,-1,68
 706 20 706 20 745 20 c 0,69,70
 792 20 792 20 825.5 55 c 128,-1,71
 859 90 859 90 866 125 c 0,72,73
 870 143 870 143 864 165.5 c 128,-1,74
 858 188 858 188 839 203.5 c 128,-1,75
 820 219 820 219 786 221 c 128,-1,76
 752 223 752 223 697 199 c 1,66,67
EndSplineSet
EndChar
StartChar: uni0E1A
Encoding: 3610 3610 30
Width: 872
Flags: W
Fore
385 41 m 1,0,1
 404 37 404 37 462.5 37 c 128,-1,2
 521 37 521 37 585 37 c 0,3,4
 658 37 658 37 747 39 c 1,5,6
 768 109 768 109 779 166 c 128,-1,7
 790 223 790 223 803.5 296 c 128,-1,8
 817 369 817 369 829.5 442.5 c 128,-1,9
 842 516 842 516 854.5 584.5 c 128,-1,10
 867 653 867 653 878 705 c 0,11,12
 879 719 879 719 885.5 726 c 128,-1,13
 892 733 892 733 901 734 c 128,-1,14
 910 735 910 735 914 727 c 128,-1,15
 918 719 918 719 915 702 c 0,16,17
 905 647 905 647 890.5 555 c 128,-1,18
 876 463 876 463 859 363.5 c 128,-1,19
 842 264 842 264 825 172 c 128,-1,20
 808 80 808 80 789 25 c 1,21,22
 786 4 786 4 739 2 c 0,23,24
 694 0 694 0 655.5 -1 c 128,-1,25
 617 -2 617 -2 571 -2 c 128,-1,26
 525 -2 525 -2 480.5 -1 c 128,-1,27
 436 0 436 0 398.5 3 c 128,-1,28
 361 6 361 6 342 12 c 1,29,30
 366 113 366 113 383.5 187.5 c 128,-1,31
 401 262 401 262 413.5 319.5 c 128,-1,32
 426 377 426 377 436.5 423 c 128,-1,33
 447 469 447 469 456 512 c 1,34,35
 426 463 426 463 333 461 c 0,36,37
 263 459 263 459 237.5 503 c 128,-1,38
 212 547 212 547 222 600 c 128,-1,39
 232 653 232 653 276.5 697 c 128,-1,40
 321 741 321 741 388 741 c 0,41,42
 460 741 460 741 488.5 705.5 c 128,-1,43
 517 670 517 670 507 606 c 0,44,45
 500 553 500 553 468.5 405.5 c 128,-1,46
 437 258 437 258 385 41 c 1,0,1
472 594 m 0,47,48
 483 649 483 649 459.5 680 c 128,-1,49
 436 711 436 711 384 713 c 0,50,51
 337 715 337 715 301.5 680 c 128,-1,52
 266 645 266 645 254 604 c 128,-1,53
 242 563 242 563 260.5 528.5 c 128,-1,54
 279 494 279 494 341 494 c 0,55,56
 381 494 381 494 421.5 521.5 c 128,-1,57
 462 549 462 549 472 594 c 0,47,48
EndSplineSet
EndChar
StartChar: uni0E1B
Encoding: 3611 3611 31
Width: 811
Flags: W
Fore
327 41 m 1,0,1
 347 37 347 37 406.5 37 c 128,-1,2
 466 37 466 37 529 37 c 0,3,4
 603 37 603 37 695 38 c 1,5,6
 722 164 722 164 740 261 c 128,-1,7
 758 358 758 358 779 477 c 128,-1,8
 800 596 800 596 820.5 710.5 c 128,-1,9
 841 825 841 825 857.5 920.5 c 128,-1,10
 874 1016 874 1016 885 1067 c 1,11,12
 891 1081 891 1081 910 1080 c 128,-1,13
 929 1079 929 1079 926 1065 c 0,14,15
 918 1028 918 1028 903.5 947 c 128,-1,16
 889 866 889 866 870 764 c 128,-1,17
 851 662 851 662 829.5 547 c 128,-1,18
 808 432 808 432 789.5 329.5 c 128,-1,19
 771 227 771 227 755.5 145 c 128,-1,20
 740 63 740 63 732 25 c 1,21,22
 732 2 732 2 713.5 0 c 128,-1,23
 695 -2 695 -2 666 -1 c 128,-1,24
 637 0 637 0 598.5 -1 c 128,-1,25
 560 -2 560 -2 514 -2 c 128,-1,26
 468 -2 468 -2 423.5 -1 c 128,-1,27
 379 0 379 0 328.5 0 c 128,-1,28
 278 0 278 0 285 12 c 1,29,30
 309 113 309 113 326.5 187.5 c 128,-1,31
 344 262 344 262 356.5 319.5 c 128,-1,32
 369 377 369 377 379.5 423 c 128,-1,33
 390 469 390 469 399 512 c 1,34,35
 368 463 368 463 275 461 c 0,36,37
 206 459 206 459 180.5 503 c 128,-1,38
 155 547 155 547 165 600 c 128,-1,39
 175 653 175 653 219 697 c 128,-1,40
 263 741 263 741 331 741 c 0,41,42
 403 741 403 741 431 705.5 c 128,-1,43
 459 670 459 670 450 606 c 0,44,45
 443 553 443 553 411.5 405.5 c 128,-1,46
 380 258 380 258 327 41 c 1,0,1
415 594 m 0,47,48
 426 649 426 649 402 680 c 128,-1,49
 378 711 378 711 327 713 c 0,50,51
 280 715 280 715 244.5 680 c 128,-1,52
 209 645 209 645 197 604 c 128,-1,53
 185 563 185 563 203.5 528.5 c 128,-1,54
 222 494 222 494 283 494 c 0,55,56
 324 494 324 494 364.5 521.5 c 128,-1,57
 405 549 405 549 415 594 c 0,47,48
EndSplineSet
EndChar
StartChar: uni0E1C
Encoding: 3612 3612 32
Width: 717
Flags: W
Fore
214 557 m 0,0,1
 228 641 228 641 273 693 c 128,-1,2
 318 745 318 745 388 750 c 0,3,4
 449 754 449 754 483 718 c 128,-1,5
 517 682 517 682 509 623 c 0,6,7
 502 561 502 561 456.5 516 c 128,-1,8
 411 471 411 471 351 467 c 0,9,10
 309 463 309 463 278.5 483.5 c 128,-1,11
 248 504 248 504 243 520 c 1,12,13
 235 473 235 473 219 393 c 128,-1,14
 203 313 203 313 186.5 235.5 c 128,-1,15
 170 158 170 158 159 102.5 c 128,-1,16
 148 47 148 47 153 49 c 1,17,18
 217 98 217 98 281.5 161.5 c 128,-1,19
 346 225 346 225 413 336 c 0,20,21
 419 346 419 346 434.5 347 c 128,-1,22
 450 348 450 348 451 334 c 0,23,24
 458 289 458 289 473 238.5 c 128,-1,25
 488 188 488 188 508 146 c 128,-1,26
 528 104 528 104 549.5 76.5 c 128,-1,27
 571 49 571 49 594 49 c 0,28,29
 602 49 602 49 614.5 102.5 c 128,-1,30
 627 156 627 156 646.5 248 c 128,-1,31
 666 340 666 340 691 462 c 128,-1,32
 716 584 716 584 749 721 c 1,33,34
 757 741 757 741 772.5 736 c 128,-1,35
 788 731 788 731 786 715 c 0,36,37
 722 422 722 422 685 252 c 128,-1,38
 648 82 648 82 628 33 c 0,39,40
 623 17 623 17 609.5 9.5 c 128,-1,41
 596 2 596 2 588 2 c 0,42,43
 547 4 547 4 494.5 73.5 c 128,-1,44
 442 143 442 143 419 279 c 1,45,46
 401 240 401 240 362 192.5 c 128,-1,47
 323 145 323 145 279 103 c 128,-1,48
 235 61 235 61 194.5 31.5 c 128,-1,49
 154 2 154 2 131 2 c 0,50,51
 115 2 115 2 112.5 20.5 c 128,-1,52
 110 39 110 39 120.5 97.5 c 128,-1,53
 131 156 131 156 154 265.5 c 128,-1,54
 177 375 177 375 214 557 c 0,0,1
264 598 m 0,55,56
 258 553 258 553 285 523.5 c 128,-1,57
 312 494 312 494 355 498 c 0,58,59
 397 502 397 502 431.5 534.5 c 128,-1,60
 466 567 466 567 473 618 c 0,61,62
 480 670 480 670 452 694.5 c 128,-1,63
 424 719 424 719 382 715 c 0,64,65
 327 711 327 711 298 676 c 128,-1,66
 269 641 269 641 264 598 c 0,55,56
EndSplineSet
EndChar
StartChar: uni0E1D
Encoding: 3613 3613 33
Width: 723
Flags: W
Fore
214 557 m 0,0,1
 228 641 228 641 273 693 c 128,-1,2
 318 745 318 745 388 750 c 0,3,4
 449 754 449 754 483 718 c 128,-1,5
 517 682 517 682 509 623 c 0,6,7
 502 561 502 561 456.5 516 c 128,-1,8
 411 471 411 471 351 467 c 0,9,10
 309 463 309 463 278.5 483.5 c 128,-1,11
 248 504 248 504 243 520 c 1,12,13
 238 489 238 489 229 441 c 128,-1,14
 220 393 220 393 209 340 c 128,-1,15
 198 287 198 287 187.5 234.5 c 128,-1,16
 177 182 177 182 169 139 c 128,-1,17
 161 96 161 96 156.5 70.5 c 128,-1,18
 152 45 152 45 154 47 c 1,19,20
 223 88 223 88 283.5 156.5 c 128,-1,21
 344 225 344 225 411 336 c 0,22,23
 417 346 417 346 432.5 347 c 128,-1,24
 448 348 448 348 449 334 c 0,25,26
 456 289 456 289 475.5 234.5 c 128,-1,27
 495 180 495 180 517 135 c 128,-1,28
 539 90 539 90 556 62.5 c 128,-1,29
 573 35 573 35 587 45 c 1,30,31
 592 51 592 51 607.5 104.5 c 128,-1,32
 623 158 623 158 643 242 c 128,-1,33
 663 326 663 326 687.5 433.5 c 128,-1,34
 712 541 712 541 737 653.5 c 128,-1,35
 762 766 762 766 787 877.5 c 128,-1,36
 812 989 812 989 832 1083 c 1,37,38
 840 1104 840 1104 854.5 1099 c 128,-1,39
 869 1094 869 1094 867 1077 c 0,40,41
 855 1018 855 1018 836.5 932 c 128,-1,42
 818 846 818 846 798 746.5 c 128,-1,43
 778 647 778 647 754.5 541.5 c 128,-1,44
 731 436 731 436 709 341 c 128,-1,45
 687 246 687 246 665.5 168 c 128,-1,46
 644 90 644 90 627 45 c 0,47,48
 620 29 620 29 607 15.5 c 128,-1,49
 594 2 594 2 569.5 1 c 128,-1,50
 545 0 545 0 492.5 71.5 c 128,-1,51
 440 143 440 143 417 279 c 1,52,53
 399 240 399 240 361 191.5 c 128,-1,54
 323 143 323 143 279 101 c 128,-1,55
 235 59 235 59 195.5 29.5 c 128,-1,56
 156 0 156 0 133 0 c 0,57,58
 117 0 117 0 114 18.5 c 128,-1,59
 111 37 111 37 121 96.5 c 128,-1,60
 131 156 131 156 154 265.5 c 128,-1,61
 177 375 177 375 214 557 c 0,0,1
264 598 m 0,62,63
 258 553 258 553 285 523.5 c 128,-1,64
 312 494 312 494 355 498 c 0,65,66
 397 502 397 502 431.5 534.5 c 128,-1,67
 466 567 466 567 473 618 c 0,68,69
 480 670 480 670 452 694.5 c 128,-1,70
 424 719 424 719 382 715 c 0,71,72
 327 711 327 711 298 676 c 128,-1,73
 269 641 269 641 264 598 c 0,62,63
EndSplineSet
EndChar
StartChar: uni0E1E
Encoding: 3614 3614 34
Width: 852
Flags: W
Fore
694 4 m 0,0,1
 672 4 672 4 656 33.5 c 128,-1,2
 640 63 640 63 627.5 114.5 c 128,-1,3
 615 166 615 166 607 234.5 c 128,-1,4
 599 303 599 303 595 383 c 1,5,6
 564 303 564 303 524.5 233.5 c 128,-1,7
 485 164 485 164 446.5 113.5 c 128,-1,8
 408 63 408 63 375 33.5 c 128,-1,9
 342 4 342 4 324 4 c 0,10,11
 305 4 305 4 303.5 25.5 c 128,-1,12
 302 47 302 47 313.5 105.5 c 128,-1,13
 325 164 325 164 347 267.5 c 128,-1,14
 369 371 369 371 398 535 c 1,15,16
 381 496 381 496 344.5 478.5 c 128,-1,17
 308 461 308 461 267 461 c 0,18,19
 208 461 208 461 176.5 501 c 128,-1,20
 145 541 145 541 158 602 c 0,21,22
 171 662 171 662 217 702.5 c 128,-1,23
 263 743 263 743 323 743 c 0,24,25
 405 743 405 743 431.5 703.5 c 128,-1,26
 458 664 458 664 444 565 c 0,27,28
 435 504 435 504 417.5 417 c 128,-1,29
 400 330 400 330 383 251 c 128,-1,30
 366 172 366 172 355.5 117.5 c 128,-1,31
 345 63 345 63 351 63 c 1,32,33
 362 66 362 66 395.5 110 c 128,-1,34
 429 154 429 154 468.5 216.5 c 128,-1,35
 508 279 508 279 541 346.5 c 128,-1,36
 574 414 574 414 590 463 c 0,37,38
 597 479 597 479 613 479 c 128,-1,39
 629 479 629 479 630 465 c 0,40,41
 631 416 631 416 634.5 345 c 128,-1,42
 638 274 638 274 646.5 208.5 c 128,-1,43
 655 143 655 143 668.5 97 c 128,-1,44
 682 51 682 51 700 51 c 0,45,46
 712 51 712 51 732.5 105.5 c 128,-1,47
 753 160 753 160 777.5 252 c 128,-1,48
 802 344 802 344 830 467 c 128,-1,49
 858 590 858 590 887 725 c 1,50,51
 893 735 893 735 906.5 735 c 128,-1,52
 920 735 920 735 924 725 c 1,53,54
 846 371 846 371 794 188.5 c 128,-1,55
 742 6 742 6 694 4 c 0,0,1
403 600 m 0,56,57
 412 643 412 643 394.5 676 c 128,-1,58
 377 709 377 709 322 709 c 0,59,60
 281 709 281 709 244.5 681 c 128,-1,61
 208 653 208 653 197 602 c 0,62,63
 186 549 186 549 211.5 520.5 c 128,-1,64
 237 492 237 492 278 492 c 0,65,66
 321 492 321 492 356 523.5 c 128,-1,67
 391 555 391 555 403 600 c 0,56,57
EndSplineSet
EndChar
StartChar: uni0E1F
Encoding: 3615 3615 35
Width: 848
Flags: W
Fore
708 6 m 0,0,1
 678 4 678 4 657.5 36 c 128,-1,2
 637 68 637 68 621.5 122 c 128,-1,3
 606 176 606 176 598 249 c 128,-1,4
 590 322 590 322 586 399 c 1,5,6
 554 319 554 319 517.5 248.5 c 128,-1,7
 481 178 481 178 446 124 c 128,-1,8
 411 70 411 70 381 38 c 128,-1,9
 351 6 351 6 333 6 c 0,10,11
 312 6 312 6 309.5 32.5 c 128,-1,12
 307 59 307 59 317.5 121.5 c 128,-1,13
 328 184 328 184 349.5 285.5 c 128,-1,14
 371 387 371 387 401 539 c 1,15,16
 382 502 382 502 345.5 483.5 c 128,-1,17
 309 465 309 465 270 465 c 0,18,19
 211 465 211 465 179 506 c 128,-1,20
 147 547 147 547 160 608 c 0,21,22
 172 668 172 668 218.5 709 c 128,-1,23
 265 750 265 750 327 750 c 0,24,25
 407 750 407 750 434 710 c 128,-1,26
 461 670 461 670 445 571 c 0,27,28
 433 508 433 508 414.5 421 c 128,-1,29
 396 334 396 334 381.5 255 c 128,-1,30
 367 176 367 176 359.5 121 c 128,-1,31
 352 66 352 66 362 66 c 256,32,33
 372 66 372 66 402 112 c 128,-1,34
 432 158 432 158 467.5 223.5 c 128,-1,35
 503 289 503 289 535.5 359.5 c 128,-1,36
 568 430 568 430 582 479 c 0,37,38
 591 500 591 500 607.5 500 c 128,-1,39
 624 500 624 500 624 483 c 0,40,41
 622 434 622 434 627 361.5 c 128,-1,42
 632 289 632 289 642.5 221.5 c 128,-1,43
 653 154 653 154 668.5 105.5 c 128,-1,44
 684 57 684 57 704 57 c 0,45,46
 710 57 710 57 727.5 110.5 c 128,-1,47
 745 164 745 164 767.5 251 c 128,-1,48
 790 338 790 338 815.5 448.5 c 128,-1,49
 841 559 841 559 865 675 c 128,-1,50
 889 791 889 791 908.5 902.5 c 128,-1,51
 928 1014 928 1014 940 1100 c 0,52,53
 945 1120 945 1120 961 1117 c 128,-1,54
 977 1114 977 1114 977 1102 c 0,55,56
 968 1020 968 1020 949.5 908.5 c 128,-1,57
 931 797 931 797 907 676 c 128,-1,58
 883 555 883 555 855.5 435 c 128,-1,59
 828 315 828 315 802 221 c 128,-1,60
 776 127 776 127 751 67.5 c 128,-1,61
 726 8 726 8 708 6 c 0,0,1
400 606 m 0,62,63
 409 649 409 649 392.5 682 c 128,-1,64
 376 715 376 715 321 715 c 0,65,66
 278 715 278 715 242 687 c 128,-1,67
 206 659 206 659 195 608 c 0,68,69
 183 555 183 555 209.5 526.5 c 128,-1,70
 236 498 236 498 277 498 c 256,71,72
 318 498 318 498 353 528.5 c 128,-1,73
 388 559 388 559 400 606 c 0,62,63
EndSplineSet
EndChar
StartChar: uni0E20
Encoding: 3616 3616 36
Width: 784
Flags: W
Fore
263 180 m 1,0,1
 298 309 298 309 310 393 c 128,-1,2
 322 477 322 477 315 481 c 0,3,4
 297 492 297 492 271.5 499 c 128,-1,5
 246 506 246 506 224 513 c 128,-1,6
 202 520 202 520 187 526 c 128,-1,7
 172 532 172 532 174 543 c 0,8,9
 181 567 181 567 208.5 604 c 128,-1,10
 236 641 236 641 287 675 c 128,-1,11
 338 709 338 709 416 731.5 c 128,-1,12
 494 754 494 754 603 752 c 0,13,14
 719 748 719 748 763.5 705 c 128,-1,15
 808 662 808 662 806 571.5 c 128,-1,16
 804 481 804 481 769.5 343 c 128,-1,17
 735 205 735 205 694 14 c 1,18,19
 686 0 686 0 679 -2 c 128,-1,20
 672 -4 672 -4 667 -1 c 0,21,22
 661 3 661 3 655 12 c 1,23,24
 696 197 696 197 729 330 c 128,-1,25
 762 463 762 463 764.5 549 c 128,-1,26
 767 635 767 635 730 677 c 128,-1,27
 693 719 693 719 594 719 c 0,28,29
 486 719 486 719 415 697.5 c 128,-1,30
 344 676 344 676 301 647 c 128,-1,31
 258 618 258 618 239.5 590.5 c 128,-1,32
 221 563 221 563 217 551 c 1,33,-1
 353 506 l 2,34,35
 362 502 362 502 354.5 448.5 c 128,-1,36
 347 395 347 395 334 327.5 c 128,-1,37
 321 260 321 260 304 194.5 c 128,-1,38
 287 129 287 129 278 98 c 0,39,40
 270 68 270 68 250.5 48.5 c 128,-1,41
 231 29 231 29 211.5 15.5 c 128,-1,42
 192 2 192 2 166 0 c 128,-1,43
 140 -2 140 -2 127 0 c 0,44,45
 74 4 74 4 54 37 c 128,-1,46
 34 70 34 70 47 117 c 0,47,48
 50 129 50 129 60 148.5 c 128,-1,49
 70 168 70 168 86.5 184.5 c 128,-1,50
 103 201 103 201 127 212 c 128,-1,51
 151 223 151 223 185 221 c 0,52,53
 208 221 208 221 223.5 215 c 128,-1,54
 239 209 239 209 247 201 c 2,55,56
 258 193 258 193 263 180 c 1,0,1
78 121 m 0,57,58
 68 82 68 82 84 56.5 c 128,-1,59
 100 31 100 31 134 27 c 0,60,61
 176 23 176 23 202.5 49.5 c 128,-1,62
 229 76 229 76 238 100 c 0,63,64
 247 127 247 127 237 157.5 c 128,-1,65
 227 188 227 188 186 193 c 0,66,67
 152 197 152 197 121 176.5 c 128,-1,68
 90 156 90 156 78 121 c 0,57,58
EndSplineSet
EndChar
StartChar: uni0E21
Encoding: 3617 3617 37
Width: 725
Flags: W
Fore
338 193 m 1,0,1
 302 217 302 217 264 223 c 128,-1,2
 226 229 226 229 194 218 c 128,-1,3
 162 207 162 207 139 180.5 c 128,-1,4
 116 154 116 154 110 115 c 0,5,6
 106 96 106 96 108 77.5 c 128,-1,7
 110 59 110 59 121.5 45 c 128,-1,8
 133 31 133 31 153.5 22.5 c 128,-1,9
 174 14 174 14 210 16 c 0,10,11
 268 20 268 20 295 61 c 128,-1,12
 322 102 322 102 338 193 c 1,0,1
411 500 m 1,13,14
 380 451 380 451 288 449 c 0,15,16
 217 446 217 446 191.5 490.5 c 128,-1,17
 166 535 166 535 176.5 588 c 128,-1,18
 187 641 187 641 231 685 c 128,-1,19
 275 729 275 729 342 729 c 0,20,21
 414 729 414 729 446 691 c 128,-1,22
 478 653 478 653 469 590 c 2,23,-1
 377 223 l 1,24,25
 443 168 443 168 491 121 c 128,-1,26
 539 74 539 74 599 27 c 0,27,28
 604 23 604 23 613.5 58.5 c 128,-1,29
 623 94 623 94 636.5 152.5 c 128,-1,30
 650 211 650 211 666 285.5 c 128,-1,31
 682 360 682 360 697 435 c 128,-1,32
 712 510 712 510 725 576.5 c 128,-1,33
 738 643 738 643 748 688 c 2,34,35
 749 702 749 702 755.5 709.5 c 128,-1,36
 762 717 762 717 769.5 717 c 128,-1,37
 777 717 777 717 783 708.5 c 128,-1,38
 789 700 789 700 788 684 c 1,39,40
 773 635 773 635 754 545 c 128,-1,41
 735 455 735 455 714 356.5 c 128,-1,42
 693 258 693 258 673 168 c 128,-1,43
 653 78 653 78 640 27 c 1,44,45
 632 8 632 8 621.5 2 c 128,-1,46
 611 -4 611 -4 600 -6 c 0,47,48
 588 -8 588 -8 574 -2 c 1,49,50
 522 39 522 39 475 90 c 128,-1,51
 428 141 428 141 369 188 c 1,52,53
 352 96 352 96 315.5 45 c 128,-1,54
 279 -6 279 -6 204 -10 c 0,55,56
 163 -12 163 -12 137.5 -2 c 128,-1,57
 112 8 112 8 98.5 25.5 c 128,-1,58
 85 43 85 43 81.5 66.5 c 128,-1,59
 78 90 78 90 81 115 c 0,60,61
 83 143 83 143 104 175 c 128,-1,62
 125 207 125 207 158.5 228.5 c 128,-1,63
 192 250 192 250 238.5 253 c 128,-1,64
 285 256 285 256 341 227 c 1,65,-1
 411 500 l 1,13,14
430 582 m 0,66,67
 442 637 442 637 416 668.5 c 128,-1,68
 390 700 390 700 339 702 c 0,69,70
 292 705 292 705 256 670 c 128,-1,71
 220 635 220 635 208 592 c 128,-1,72
 196 549 196 549 214 513 c 128,-1,73
 232 477 232 477 294 477 c 0,74,75
 334 477 334 477 377.5 507 c 128,-1,76
 421 537 421 537 430 582 c 0,66,67
EndSplineSet
EndChar
StartChar: uni0E22
Encoding: 3618 3618 38
Width: 713
Flags: W
Fore
250 358 m 1,0,1
 221 360 221 360 209.5 381.5 c 128,-1,2
 198 403 198 403 196 434 c 128,-1,3
 194 465 194 465 200 502 c 128,-1,4
 206 539 206 539 212 569 c 0,5,6
 218 594 218 594 230 626.5 c 128,-1,7
 242 659 242 659 263.5 688 c 128,-1,8
 285 717 285 717 319 735.5 c 128,-1,9
 353 754 353 754 402 754 c 0,10,11
 470 752 470 752 491 710 c 128,-1,12
 512 668 512 668 502 621 c 0,13,14
 491 567 491 567 449.5 527 c 128,-1,15
 408 487 408 487 349 487 c 0,16,17
 308 487 308 487 281.5 502.5 c 128,-1,18
 255 518 255 518 236 551 c 1,19,20
 229 520 229 520 225 486.5 c 128,-1,21
 221 453 221 453 225 425 c 128,-1,22
 229 397 229 397 248 381 c 128,-1,23
 267 365 267 365 309 369 c 2,24,25
 324 367 324 367 338 369 c 2,26,27
 350 369 350 369 365 371 c 128,-1,28
 380 373 380 373 393 377 c 1,29,30
 397 354 397 354 378 346 c 1,31,32
 369 340 369 340 359 340 c 2,33,-1
 270 336 l 1,34,35
 225 307 225 307 203 277.5 c 128,-1,36
 181 248 181 248 168 188 c 0,37,38
 159 143 159 143 175 112.5 c 128,-1,39
 191 82 191 82 221 63.5 c 128,-1,40
 251 45 251 45 287.5 36 c 128,-1,41
 324 27 324 27 355 27 c 0,42,43
 394 27 394 27 439.5 34 c 128,-1,44
 485 41 485 41 526.5 61.5 c 128,-1,45
 568 82 568 82 599 118 c 128,-1,46
 630 154 630 154 642 209 c 2,47,-1
 679 385 l 2,48,49
 702 492 702 492 722 587 c 128,-1,50
 742 682 742 682 753 741 c 0,51,52
 756 754 756 754 773.5 754 c 128,-1,53
 791 754 791 754 788 743 c 2,54,-1
 675 211 l 2,55,56
 660 147 660 147 628 106.5 c 128,-1,57
 596 66 596 66 550.5 42 c 128,-1,58
 505 18 505 18 450 9 c 128,-1,59
 395 0 395 0 332 0 c 0,60,61
 299 0 299 0 260 10 c 128,-1,62
 221 20 221 20 190 43 c 128,-1,63
 159 66 159 66 142.5 100.5 c 128,-1,64
 126 135 126 135 139 184 c 0,65,66
 156 256 156 256 182.5 295 c 128,-1,67
 209 334 209 334 250 358 c 1,0,1
260 618 m 0,68,69
 251 567 251 567 283.5 541.5 c 128,-1,70
 316 516 316 516 353 516 c 0,71,72
 398 516 398 516 430 545.5 c 128,-1,73
 462 575 462 575 471 618 c 0,74,75
 479 657 479 657 462.5 690 c 128,-1,76
 446 723 446 723 393 723 c 0,77,78
 343 723 343 723 309.5 698.5 c 128,-1,79
 276 674 276 674 260 618 c 0,68,69
EndSplineSet
EndChar
StartChar: uni0E23
Encoding: 3619 3619 39
Width: 713
Flags: W
Fore
512 129 m 2,0,1
 504 92 504 92 487 67.5 c 128,-1,2
 470 43 470 43 448 28.5 c 128,-1,3
 426 14 426 14 403.5 8 c 128,-1,4
 381 2 381 2 360 2 c 0,5,6
 332 2 332 2 310 13.5 c 128,-1,7
 288 25 288 25 275 42 c 128,-1,8
 262 59 262 59 257 80.5 c 128,-1,9
 252 102 252 102 257 123 c 0,10,11
 265 164 265 164 305.5 202 c 128,-1,12
 346 240 346 240 403 240 c 0,13,14
 440 240 440 240 467.5 219.5 c 128,-1,15
 495 199 495 199 497 164 c 1,16,17
 504 193 504 193 511 232.5 c 128,-1,18
 518 272 518 272 523 295 c 0,19,20
 534 346 534 346 534.5 376 c 128,-1,21
 535 406 535 406 521.5 421 c 128,-1,22
 508 436 508 436 480 441 c 128,-1,23
 452 446 452 446 407 446 c 2,24,-1
 241 444 l 2,25,26
 180 444 180 444 157 451.5 c 128,-1,27
 134 459 134 459 142 496 c 0,28,29
 148 526 148 526 175 566 c 128,-1,30
 202 606 202 606 243 641 c 128,-1,31
 284 676 284 676 335 699.5 c 128,-1,32
 386 723 386 723 444 723 c 0,33,34
 520 723 520 723 561 699.5 c 128,-1,35
 602 676 602 676 624.5 647 c 128,-1,36
 647 618 647 618 657.5 594.5 c 128,-1,37
 668 571 668 571 684 571 c 0,38,39
 705 571 705 571 711.5 582.5 c 128,-1,40
 718 594 718 594 723 610 c 0,41,42
 730 631 730 631 745.5 631 c 128,-1,43
 761 631 761 631 759 614 c 0,44,45
 755 588 755 588 732.5 564.5 c 128,-1,46
 710 541 710 541 679 541 c 0,47,48
 646 541 646 541 632 562.5 c 128,-1,49
 618 584 618 584 597.5 611.5 c 128,-1,50
 577 639 577 639 542 662.5 c 128,-1,51
 507 686 507 686 437 688 c 0,52,53
 390 688 390 688 345.5 667.5 c 128,-1,54
 301 647 301 647 264.5 616.5 c 128,-1,55
 228 586 228 586 205 554 c 128,-1,56
 182 522 182 522 178 502 c 0,57,58
 175 489 175 489 188 483 c 128,-1,59
 201 477 201 477 235.5 476 c 128,-1,60
 270 475 270 475 329 476 c 128,-1,61
 388 477 388 477 476 477 c 0,62,63
 545 477 545 477 557.5 431 c 128,-1,64
 570 385 570 385 556 319 c 2,65,-1
 512 129 l 2,0,1
361 33 m 0,66,67
 406 33 406 33 433.5 58.5 c 128,-1,68
 461 84 461 84 469 129 c 0,69,70
 473 158 473 158 453.5 182.5 c 128,-1,71
 434 207 434 207 397 207 c 0,72,73
 356 207 356 207 327.5 182.5 c 128,-1,74
 299 158 299 158 292 123 c 0,75,76
 283 84 283 84 301.5 58.5 c 128,-1,77
 320 33 320 33 361 33 c 0,66,67
EndSplineSet
EndChar
StartChar: uni0E24
Encoding: 3620 3620 40
Width: 780
Flags: W
Fore
414 111 m 0,0,1
 401 70 401 70 365.5 35 c 128,-1,2
 330 0 330 0 272 0 c 1,3,4
 259 -2 259 -2 241 4 c 128,-1,5
 223 10 223 10 207 23.5 c 128,-1,6
 191 37 191 37 184 58.5 c 128,-1,7
 177 80 177 80 183 111 c 0,8,9
 194 152 194 152 213 213 c 128,-1,10
 232 274 232 274 249 331.5 c 128,-1,11
 266 389 266 389 278 431 c 128,-1,12
 290 473 290 473 284 475 c 1,13,14
 267 485 267 485 239.5 493.5 c 128,-1,15
 212 502 212 502 188 508 c 128,-1,16
 164 514 164 514 147.5 520 c 128,-1,17
 131 526 131 526 134 537 c 0,18,19
 139 561 139 561 173 600 c 128,-1,20
 207 639 207 639 263.5 674 c 128,-1,21
 320 709 320 709 398.5 731.5 c 128,-1,22
 477 754 477 754 574 745 c 0,23,24
 651 739 651 739 698 717.5 c 128,-1,25
 745 696 745 696 767 649 c 128,-1,26
 789 602 789 602 786.5 523 c 128,-1,27
 784 444 784 444 761.5 320.5 c 128,-1,28
 739 197 739 197 699.5 23.5 c 128,-1,29
 660 -150 660 -150 606 -383 c 0,30,31
 598 -412 598 -412 581.5 -413 c 128,-1,32
 565 -414 565 -414 569 -385 c 0,33,34
 647 -55 647 -55 695 155 c 128,-1,35
 743 365 743 365 748.5 486.5 c 128,-1,36
 754 608 754 608 710 657.5 c 128,-1,37
 666 707 666 707 561 713 c 0,38,39
 469 719 469 719 400.5 699.5 c 128,-1,40
 332 680 332 680 284.5 650.5 c 128,-1,41
 237 621 237 621 211 591 c 128,-1,42
 185 561 185 561 177 547 c 1,43,-1
 319 500 l 1,44,45
 326 494 326 494 320 463 c 128,-1,46
 314 432 314 432 301.5 387 c 128,-1,47
 289 342 289 342 272.5 291 c 128,-1,48
 256 240 256 240 244 195 c 1,49,50
 246 197 246 197 267.5 211 c 128,-1,51
 289 225 289 225 329 221 c 0,52,53
 361 221 361 221 380 208 c 128,-1,54
 399 195 399 195 408 177.5 c 128,-1,55
 417 160 417 160 417 141.5 c 128,-1,56
 417 123 417 123 414 111 c 0,0,1
382 115 m 0,57,58
 389 150 389 150 369.5 172.5 c 128,-1,59
 350 195 350 195 315 195 c 0,60,61
 272 195 272 195 248 166 c 128,-1,62
 224 137 224 137 218 111 c 0,63,64
 213 86 213 86 225 57.5 c 128,-1,65
 237 29 237 29 280 29 c 0,66,67
 315 29 315 29 342.5 52.5 c 128,-1,68
 370 76 370 76 382 115 c 0,57,58
EndSplineSet
EndChar
StartChar: uni0E25
Encoding: 3621 3621 41
Width: 813
Flags: W
Fore
182 98 m 0,0,1
 190 160 190 160 214.5 225.5 c 128,-1,2
 239 291 239 291 279.5 344 c 128,-1,3
 320 397 320 397 372.5 432 c 128,-1,4
 425 467 425 467 486 467 c 0,5,6
 541 467 541 467 575.5 436.5 c 128,-1,7
 610 406 610 406 628 359.5 c 128,-1,8
 646 313 646 313 653.5 260 c 128,-1,9
 661 207 661 207 665 161 c 128,-1,10
 669 115 669 115 673 84 c 128,-1,11
 677 53 677 53 689 53 c 0,12,13
 699 53 699 53 720 133 c 128,-1,14
 741 213 741 213 772 367 c 0,15,16
 792 471 792 471 778.5 538.5 c 128,-1,17
 765 606 765 606 733 647 c 128,-1,18
 701 688 701 688 654.5 704.5 c 128,-1,19
 608 721 608 721 563 723 c 0,20,21
 509 723 509 723 458 707.5 c 128,-1,22
 407 692 407 692 361 655 c 128,-1,23
 315 618 315 618 277.5 556 c 128,-1,24
 240 494 240 494 212 401 c 0,25,26
 207 387 207 387 190 385 c 128,-1,27
 173 383 173 383 178 399 c 0,28,29
 207 506 207 506 251 575.5 c 128,-1,30
 295 645 295 645 346.5 685 c 128,-1,31
 398 725 398 725 454.5 741.5 c 128,-1,32
 511 758 511 758 567 758 c 0,33,34
 622 758 622 758 675 739.5 c 128,-1,35
 728 721 728 721 766 676 c 128,-1,36
 804 631 804 631 817.5 557 c 128,-1,37
 831 483 831 483 808 373 c 0,38,39
 802 346 802 346 790 285.5 c 128,-1,40
 778 225 778 225 762 163.5 c 128,-1,41
 746 102 746 102 727.5 56 c 128,-1,42
 709 10 709 10 686 10 c 0,43,44
 664 10 664 10 652 41 c 128,-1,45
 640 72 640 72 633.5 120 c 128,-1,46
 627 168 627 168 620.5 223.5 c 128,-1,47
 614 279 614 279 599.5 326 c 128,-1,48
 585 373 585 373 557.5 404.5 c 128,-1,49
 530 436 530 436 483 436 c 0,50,51
 467 436 467 436 434 426 c 128,-1,52
 401 416 401 416 364.5 388 c 128,-1,53
 328 360 328 360 292.5 314 c 128,-1,54
 257 268 257 268 236 195 c 1,55,56
 253 217 253 217 281 225 c 128,-1,57
 309 233 309 233 332 233 c 0,58,59
 362 233 362 233 382 221 c 128,-1,60
 402 209 402 209 412.5 190.5 c 128,-1,61
 423 172 423 172 424.5 151.5 c 128,-1,62
 426 131 426 131 423 117 c 0,63,64
 410 53 410 53 366 26.5 c 128,-1,65
 322 0 322 0 283 0 c 0,66,67
 240 0 240 0 205.5 27.5 c 128,-1,68
 171 55 171 55 182 98 c 0,0,1
215 119 m 0,69,70
 206 78 206 78 227 54.5 c 128,-1,71
 248 31 248 31 289 31 c 0,72,73
 323 31 323 31 354.5 57.5 c 128,-1,74
 386 84 386 84 394 119 c 0,75,76
 398 141 398 141 385 170 c 128,-1,77
 372 199 372 199 323 199 c 0,78,79
 288 199 288 199 255.5 177.5 c 128,-1,80
 223 156 223 156 215 119 c 0,69,70
EndSplineSet
EndChar
StartChar: uni0E26
Encoding: 3622 3622 42
Width: 778
Flags: W
Fore
263 180 m 1,0,1
 298 309 298 309 310 393 c 128,-1,2
 322 477 322 477 315 481 c 0,3,4
 297 492 297 492 271.5 499 c 128,-1,5
 246 506 246 506 224 513 c 128,-1,6
 202 520 202 520 188 526 c 128,-1,7
 174 532 174 532 176 543 c 0,8,9
 183 567 183 567 217 605 c 128,-1,10
 251 643 251 643 307.5 677 c 128,-1,11
 364 711 364 711 438 733.5 c 128,-1,12
 512 756 512 756 603 752 c 0,13,14
 701 748 701 748 744.5 711 c 128,-1,15
 788 674 788 674 795.5 600 c 128,-1,16
 803 526 803 526 781.5 414.5 c 128,-1,17
 760 303 760 303 725 150 c 0,18,19
 723 139 723 139 714 97 c 128,-1,20
 705 55 705 55 693 -1 c 128,-1,21
 681 -57 681 -57 666.5 -121.5 c 128,-1,22
 652 -186 652 -186 640 -243.5 c 128,-1,23
 628 -301 628 -301 619 -343 c 128,-1,24
 610 -385 610 -385 607 -397 c 1,25,26
 597 -408 597 -408 591 -408 c 256,27,28
 585 -408 585 -408 578 -403 c 1,29,-1
 570 -399 l 1,30,31
 571 -391 571 -391 579.5 -352 c 128,-1,32
 588 -313 588 -313 599.5 -260 c 128,-1,33
 611 -207 611 -207 625 -145.5 c 128,-1,34
 639 -84 639 -84 650.5 -29.5 c 128,-1,35
 662 25 662 25 670 62.5 c 128,-1,36
 678 100 678 100 680 109 c 0,37,38
 715 268 715 268 739.5 383 c 128,-1,39
 764 498 764 498 761 572.5 c 128,-1,40
 758 647 758 647 719 683 c 128,-1,41
 680 719 680 719 594 719 c 0,42,43
 504 719 504 719 436 697.5 c 128,-1,44
 368 676 368 676 321 647 c 128,-1,45
 274 618 274 618 248.5 590.5 c 128,-1,46
 223 563 223 563 219 551 c 1,47,-1
 349 506 l 2,48,49
 358 502 358 502 349.5 448.5 c 128,-1,50
 341 395 341 395 327 327.5 c 128,-1,51
 313 260 313 260 295 194.5 c 128,-1,52
 277 129 277 129 268 98 c 0,53,54
 260 68 260 68 241.5 48.5 c 128,-1,55
 223 29 223 29 202 17.5 c 128,-1,56
 181 6 181 6 160.5 2 c 128,-1,57
 140 -2 140 -2 127 0 c 0,58,59
 74 4 74 4 54 37 c 128,-1,60
 34 70 34 70 47 117 c 0,61,62
 50 129 50 129 60 148.5 c 128,-1,63
 70 168 70 168 86.5 184.5 c 128,-1,64
 103 201 103 201 127 212 c 128,-1,65
 151 223 151 223 185 221 c 0,66,67
 208 221 208 221 223.5 215 c 128,-1,68
 239 209 239 209 247 201 c 2,69,70
 258 193 258 193 263 180 c 1,0,1
77 123 m 0,71,72
 66 84 66 84 82.5 58.5 c 128,-1,73
 99 33 99 33 133 29 c 0,74,75
 175 25 175 25 201 51.5 c 128,-1,76
 227 78 227 78 236 102 c 0,77,78
 246 129 246 129 236 159.5 c 128,-1,79
 226 190 226 190 184 195 c 0,80,81
 151 199 151 199 119.5 178.5 c 128,-1,82
 88 158 88 158 77 123 c 0,71,72
EndSplineSet
EndChar
StartChar: uni0E27
Encoding: 3623 3623 43
Width: 590
Flags: W
Fore
525 109 m 2,0,1
 517 80 517 80 496 56 c 0,2,3
 479 38 479 38 465.5 26 c 128,-1,4
 452 14 452 14 438 7.5 c 128,-1,5
 424 1 424 1 407.5 -1 c 128,-1,6
 391 -3 391 -3 368 -2 c 0,7,8
 314 2 314 2 293 35.5 c 128,-1,9
 272 69 272 69 284 117 c 0,10,11
 287 130 287 130 297.5 149.5 c 128,-1,12
 308 169 308 169 326 186 c 128,-1,13
 344 203 344 203 369.5 215 c 128,-1,14
 395 227 395 227 428 225 c 0,15,16
 450 225 450 225 465 218 c 128,-1,17
 480 211 480 211 489 203 c 0,18,19
 494 198 494 198 498.5 192.5 c 128,-1,20
 503 187 503 187 505 180 c 1,21,-1
 546 354 l 2,22,23
 568 444 568 444 581 514 c 128,-1,24
 594 584 594 584 585 632 c 128,-1,25
 576 680 576 680 537.5 705.5 c 128,-1,26
 499 731 499 731 417 733 c 0,27,28
 310 735 310 735 251 676 c 256,29,30
 192 617 192 617 167 522 c 0,31,32
 163 506 163 506 146 503 c 0,33,34
 131 500 131 500 133 520 c 0,35,36
 155 638 155 638 228.5 702 c 128,-1,37
 302 766 302 766 420 766 c 0,38,39
 485 766 485 766 526 752.5 c 128,-1,40
 567 739 567 739 589.5 712.5 c 128,-1,41
 612 686 612 686 618.5 649 c 128,-1,42
 625 612 625 612 621 566 c 128,-1,43
 617 520 617 520 605.5 466.5 c 128,-1,44
 594 413 594 413 581 354 c 2,45,-1
 525 109 l 2,0,1
319 123 m 0,46,47
 308 84 308 84 324.5 58.5 c 128,-1,48
 341 33 341 33 375 29 c 0,49,50
 416 25 416 25 446 51 c 0,51,52
 475 79 475 79 484 102 c 0,53,54
 494 129 494 129 481 159 c 0,55,56
 467 191 467 191 426 195 c 0,57,58
 409 197 409 197 392.5 192.5 c 128,-1,59
 376 188 376 188 361.5 178.5 c 128,-1,60
 347 169 347 169 336 155 c 128,-1,61
 325 141 325 141 319 123 c 0,46,47
EndSplineSet
EndChar
StartChar: uni0E28
Encoding: 3624 3624 44
Width: 819
Flags: W
Fore
1050 1059 m 1,0,1
 1047 997 1047 997 1029.5 929.5 c 128,-1,2
 1012 862 1012 862 981 796.5 c 128,-1,3
 950 731 950 731 905.5 671.5 c 128,-1,4
 861 612 861 612 804 565 c 1,5,6
 810 533 810 533 808.5 494.5 c 128,-1,7
 807 456 807 456 801 412 c 128,-1,8
 795 368 795 368 785.5 320 c 128,-1,9
 776 272 776 272 766 223 c 0,10,11
 760 194 760 194 752.5 161 c 128,-1,12
 745 128 745 128 738 98 c 128,-1,13
 731 68 731 68 724 44.5 c 128,-1,14
 717 21 717 21 713 12 c 0,15,16
 704 -5 704 -5 692 0 c 1,17,18
 686 1 686 1 683 6 c 1,19,-1
 734 236 l 2,20,21
 752 321 752 321 764 407 c 0,22,23
 776 494 776 494 760 560 c 0,24,25
 752 594 752 594 736.5 623 c 128,-1,26
 721 652 721 652 694.5 673 c 128,-1,27
 668 694 668 694 629 706.5 c 128,-1,28
 590 719 590 719 536 721 c 0,29,30
 481 721 481 721 422.5 694 c 128,-1,31
 364 667 364 667 312 616 c 128,-1,32
 260 565 260 565 219 491.5 c 128,-1,33
 178 418 178 418 157 326 c 0,34,35
 154 312 154 312 148 286 c 128,-1,36
 142 260 142 260 135 229 c 128,-1,37
 128 198 128 198 120.5 165.5 c 128,-1,38
 113 133 113 133 108.5 106.5 c 128,-1,39
 104 80 104 80 102.5 63 c 128,-1,40
 101 46 101 46 105 47 c 0,41,42
 115 48 115 48 130 64 c 128,-1,43
 145 80 145 80 163 104.5 c 128,-1,44
 181 129 181 129 199.5 159 c 128,-1,45
 218 189 218 189 235 219 c 128,-1,46
 252 249 252 249 265.5 275.5 c 128,-1,47
 279 302 279 302 286 319 c 0,48,49
 320 397 320 397 359 432 c 128,-1,50
 398 467 398 467 456 465 c 0,51,52
 508 463 508 463 532.5 434.5 c 128,-1,53
 557 406 557 406 547 358 c 0,54,55
 537 315 537 315 498 279 c 0,56,57
 458 244 458 244 407 244 c 0,58,59
 376 244 376 244 349 260 c 128,-1,60
 322 276 322 276 314 303 c 1,61,62
 268 213 268 213 233 155.5 c 128,-1,63
 198 98 198 98 170.5 64.5 c 128,-1,64
 143 31 143 31 122 18.5 c 128,-1,65
 101 6 101 6 83 6 c 0,66,67
 77 6 77 6 74 16.5 c 128,-1,68
 71 27 71 27 73.5 58.5 c 128,-1,69
 76 90 76 90 86 148.5 c 128,-1,70
 96 207 96 207 117 303 c 0,71,72
 163 522 163 522 277 639 c 0,73,74
 391 754 391 754 543 754 c 0,75,76
 611 754 611 754 656 737.5 c 128,-1,77
 701 721 701 721 729.5 696.5 c 128,-1,78
 758 672 758 672 772.5 644 c 128,-1,79
 787 616 787 616 793 592 c 1,80,81
 896 686 896 686 952.5 804.5 c 128,-1,82
 1009 923 1009 923 1020 1059 c 1,83,84
 1024 1071 1024 1071 1034 1070 c 128,-1,85
 1044 1069 1044 1069 1050 1059 c 1,0,1
342 358 m 0,86,87
 332 313 332 313 352.5 291.5 c 128,-1,88
 373 270 373 270 415 270 c 0,89,90
 433 270 433 270 449.5 277 c 128,-1,91
 466 284 466 284 480 296 c 128,-1,92
 494 308 494 308 504.5 324 c 128,-1,93
 515 340 515 340 520 358 c 0,94,95
 528 387 528 387 513 412 c 0,96,97
 499 438 499 438 449 438 c 0,98,99
 432 438 432 438 414.5 432.5 c 128,-1,100
 397 427 397 427 382 416.5 c 128,-1,101
 367 406 367 406 356 391 c 128,-1,102
 345 376 345 376 342 358 c 0,86,87
EndSplineSet
EndChar
StartChar: uni0E29
Encoding: 3625 3625 45
Width: 864
Flags: W
Fore
340 41 m 1,0,1
 359 37 359 37 415.5 37 c 128,-1,2
 472 37 472 37 533 37 c 0,3,4
 603 37 603 37 690 39 c 0,5,6
 694 39 694 39 703.5 74 c 128,-1,7
 713 109 713 109 726 166 c 128,-1,8
 739 223 739 223 753.5 296 c 128,-1,9
 768 369 768 369 782.5 442.5 c 128,-1,10
 797 516 797 516 810.5 584.5 c 128,-1,11
 824 653 824 653 835 705 c 0,12,13
 836 719 836 719 842.5 726 c 128,-1,14
 849 733 849 733 857 734 c 128,-1,15
 865 735 865 735 869 727 c 128,-1,16
 873 719 873 719 870 702 c 0,17,18
 860 647 860 647 843.5 555 c 128,-1,19
 827 463 827 463 808 363.5 c 128,-1,20
 789 264 789 264 769.5 172 c 128,-1,21
 750 80 750 80 732 25 c 1,22,23
 729 4 729 4 682 2 c 0,24,25
 587 -2 587 -2 521.5 -2 c 128,-1,26
 456 -2 456 -2 392 1 c 128,-1,27
 328 4 328 4 299 12 c 1,28,29
 323 113 323 113 340.5 187.5 c 128,-1,30
 358 262 358 262 370.5 319.5 c 128,-1,31
 383 377 383 377 393.5 423 c 128,-1,32
 404 469 404 469 413 512 c 1,33,34
 383 463 383 463 290 461 c 0,35,36
 220 459 220 459 194.5 503 c 128,-1,37
 169 547 169 547 179 600 c 128,-1,38
 189 653 189 653 233.5 697 c 128,-1,39
 278 741 278 741 345 741 c 0,40,41
 417 741 417 741 445.5 705.5 c 128,-1,42
 474 670 474 670 464 606 c 0,43,44
 457 553 457 553 424.5 405.5 c 128,-1,45
 392 258 392 258 340 41 c 1,0,1
429 594 m 0,46,47
 440 649 440 649 416.5 680 c 128,-1,48
 393 711 393 711 341 713 c 0,49,50
 294 715 294 715 258.5 680 c 128,-1,51
 223 645 223 645 211 604 c 128,-1,52
 199 563 199 563 217.5 528.5 c 128,-1,53
 236 494 236 494 298 494 c 0,54,55
 338 494 338 494 378.5 521.5 c 128,-1,56
 419 549 419 549 429 594 c 0,46,47
608 326 m 0,57,58
 585 319 585 319 574 324 c 1,59,60
 567 326 567 326 566 330 c 1,61,62
 582 311 582 311 620.5 299 c 128,-1,63
 659 287 659 287 700 291 c 0,64,65
 732 293 732 293 763 301 c 128,-1,66
 794 309 794 309 822 329.5 c 128,-1,67
 850 350 850 350 871.5 388 c 128,-1,68
 893 426 893 426 906 485 c 1,69,70
 905 500 905 500 924 503 c 128,-1,71
 943 506 943 506 939 485 c 0,72,73
 893 270 893 270 694 260 c 0,74,75
 654 258 654 258 617 266 c 128,-1,76
 580 274 580 274 552.5 293.5 c 128,-1,77
 525 313 525 313 512 343 c 128,-1,78
 499 373 499 373 508 416 c 0,79,80
 517 457 517 457 550.5 480.5 c 128,-1,81
 584 504 584 504 613 504 c 0,82,83
 654 508 654 508 677 481.5 c 128,-1,84
 700 455 700 455 695 420 c 0,85,86
 691 391 691 391 667.5 364.5 c 128,-1,87
 644 338 644 338 608 326 c 0,57,58
602 475 m 0,88,89
 579 475 579 475 561 459.5 c 128,-1,90
 543 444 543 444 537 416 c 0,91,92
 528 375 528 375 546.5 360.5 c 128,-1,93
 565 346 565 346 579 346 c 0,94,95
 612 346 612 346 638.5 368.5 c 128,-1,96
 665 391 665 391 668 416 c 0,97,98
 673 449 673 449 651.5 462 c 128,-1,99
 630 475 630 475 602 475 c 0,88,89
EndSplineSet
EndChar
StartChar: uni0E2A
Encoding: 3626 3626 46
Width: 870
Flags: W
Fore
229 102 m 0,0,1
 234 156 234 156 258 220.5 c 128,-1,2
 282 285 282 285 320.5 340.5 c 128,-1,3
 359 396 359 396 410.5 433.5 c 128,-1,4
 462 471 462 471 524 471 c 0,5,6
 578 471 578 471 610.5 440.5 c 128,-1,7
 643 410 643 410 661 364 c 128,-1,8
 679 318 679 318 686 264 c 128,-1,9
 693 210 693 210 697 164 c 128,-1,10
 701 118 701 118 705 87.5 c 128,-1,11
 709 57 709 57 721 57 c 0,12,13
 726 57 726 57 732.5 78.5 c 128,-1,14
 739 100 739 100 747 133.5 c 128,-1,15
 755 167 755 167 764 208 c 128,-1,16
 773 249 773 249 782 287 c 0,17,18
 801 382 801 382 804.5 451.5 c 128,-1,19
 808 521 808 521 799 569.5 c 128,-1,20
 790 618 790 618 770 648.5 c 128,-1,21
 750 679 750 679 723.5 696 c 128,-1,22
 697 713 697 713 665 720 c 128,-1,23
 633 727 633 727 600 729 c 0,24,25
 549 729 549 729 496.5 717 c 128,-1,26
 444 705 444 705 396 672 c 128,-1,27
 348 639 348 639 306 581.5 c 128,-1,28
 264 524 264 524 234 434 c 0,29,30
 230 424 230 424 223.5 421 c 128,-1,31
 217 418 217 418 211 418 c 0,32,33
 194 418 194 418 197 432 c 0,34,35
 218 528 218 528 264 591.5 c 128,-1,36
 310 655 310 655 367 693 c 128,-1,37
 424 731 424 731 486 746.5 c 128,-1,38
 548 762 548 762 601 762 c 0,39,40
 625 762 625 762 651 758.5 c 128,-1,41
 677 755 677 755 702.5 746.5 c 128,-1,42
 728 738 728 738 751.5 724.5 c 128,-1,43
 775 711 775 711 794 692 c 1,44,45
 857 713 857 713 907 768 c 0,46,47
 959 824 959 824 998 881 c 0,48,49
 1044 950 1044 950 1079 1026 c 0,50,51
 1094 1057 1094 1057 1109 1057 c 0,52,53
 1125 1057 1125 1057 1113 1020 c 0,54,55
 1081 941 1081 941 1037 872 c 0,56,57
 1018 843 1018 843 994.5 813 c 128,-1,58
 971 783 971 783 943 752 c 0,59,60
 888 693 888 693 814 664 c 1,61,62
 843 623 843 623 849 545 c 0,63,64
 852 506 852 506 850 472.5 c 128,-1,65
 848 439 848 439 842.5 406 c 128,-1,66
 837 373 837 373 829 337 c 128,-1,67
 821 301 821 301 813 258 c 0,68,69
 805 218 805 218 794.5 174 c 128,-1,70
 784 130 784 130 772 93.5 c 128,-1,71
 760 57 760 57 746 33.5 c 128,-1,72
 732 10 732 10 717 10 c 0,73,74
 694 10 694 10 683 42 c 128,-1,75
 672 74 672 74 666 121.5 c 128,-1,76
 660 169 660 169 653.5 224.5 c 128,-1,77
 647 280 647 280 633 327.5 c 128,-1,78
 619 375 619 375 593 406.5 c 128,-1,79
 567 438 567 438 521 438 c 0,80,81
 505 438 505 438 475 428.5 c 128,-1,82
 445 419 445 419 410.5 392.5 c 128,-1,83
 376 366 376 366 341 319.5 c 128,-1,84
 306 273 306 273 281 199 c 1,85,86
 297 221 297 221 324.5 229.5 c 128,-1,87
 352 238 352 238 374 238 c 0,88,89
 405 238 405 238 424 225 c 128,-1,90
 443 212 443 212 452.5 194 c 128,-1,91
 462 176 462 176 464 156 c 128,-1,92
 466 136 466 136 463 121 c 0,93,94
 449 56 449 56 406 28 c 256,95,96
 363 0 363 0 325 0 c 0,97,98
 283 0 283 0 251 22 c 0,99,100
 218 44 218 44 229 102 c 0,0,1
261 123 m 0,101,102
 253 81 253 81 272.5 58 c 128,-1,103
 292 35 292 35 332 35 c 0,104,105
 365 35 365 35 396 61 c 0,106,107
 426 88 426 88 434 123 c 0,108,109
 438 145 438 145 425 174 c 0,110,111
 413 203 413 203 365 203 c 0,112,113
 348 203 348 203 331.5 197.5 c 128,-1,114
 315 192 315 192 300.5 181.5 c 128,-1,115
 286 171 286 171 275.5 156 c 128,-1,116
 265 141 265 141 261 123 c 0,101,102
EndSplineSet
EndChar
StartChar: uni0E2B
Encoding: 3627 3627 47
Width: 821
Flags: W
Fore
652 451 m 1,0,1
 590 480 590 480 581 524 c 0,2,3
 574 569 574 569 581 606 c 0,4,5
 595 665 595 665 640 706 c 0,6,7
 686 748 686 748 758 748 c 0,8,9
 817 745 817 745 849 708.5 c 128,-1,10
 881 672 881 672 868 610 c 0,11,12
 863 587 863 587 852 559.5 c 128,-1,13
 841 532 841 532 822 509 c 128,-1,14
 803 486 803 486 775 470.5 c 128,-1,15
 747 455 747 455 708 455 c 1,16,17
 735 407 735 407 739 349.5 c 128,-1,18
 743 292 743 292 735 232 c 128,-1,19
 727 172 727 172 712 113.5 c 128,-1,20
 697 55 697 55 687 6 c 1,21,22
 679 -2 679 -2 668.5 -5 c 128,-1,23
 658 -8 658 -8 654 6 c 1,24,25
 697 190 697 190 706.5 290.5 c 128,-1,26
 716 391 716 391 675 422 c 1,27,28
 646 395 646 395 612.5 356 c 128,-1,29
 579 317 579 317 544 274 c 128,-1,30
 509 231 509 231 474.5 187.5 c 128,-1,31
 440 144 440 144 408 106.5 c 128,-1,32
 376 69 376 69 348 41.5 c 128,-1,33
 320 14 320 14 299 4 c 0,34,35
 287 0 287 0 276 -1 c 128,-1,36
 265 -2 265 -2 256.5 0.5 c 128,-1,37
 248 3 248 3 243.5 11 c 128,-1,38
 239 19 239 19 240 33 c 1,39,40
 258 91 258 91 273 134.5 c 128,-1,41
 288 178 288 178 300.5 212 c 128,-1,42
 313 246 313 246 324 274.5 c 128,-1,43
 335 303 335 303 346.5 332.5 c 128,-1,44
 358 362 358 362 370.5 395 c 128,-1,45
 383 428 383 428 399 471 c 1,46,47
 384 456 384 456 369.5 448.5 c 128,-1,48
 355 441 355 441 340 438 c 128,-1,49
 325 435 325 435 309 434 c 128,-1,50
 293 433 293 433 275 432 c 0,51,52
 227 430 227 430 200.5 447 c 128,-1,53
 174 464 174 464 163 490 c 128,-1,54
 152 516 152 516 152.5 546 c 128,-1,55
 153 576 153 576 158 600 c 0,56,57
 162 622 162 622 176.5 647 c 128,-1,58
 191 672 191 672 215.5 693 c 128,-1,59
 240 714 240 714 275.5 727.5 c 128,-1,60
 311 741 311 741 358 739 c 0,61,62
 380 737 380 737 402 726.5 c 128,-1,63
 424 716 424 716 440.5 697 c 128,-1,64
 457 678 457 678 465 649.5 c 128,-1,65
 473 621 473 621 467 582 c 0,66,67
 461 547 461 547 443.5 493.5 c 128,-1,68
 426 440 426 440 404 380.5 c 128,-1,69
 382 321 382 321 358.5 261 c 128,-1,70
 335 201 335 201 316 151.5 c 128,-1,71
 297 102 297 102 286 69 c 128,-1,72
 275 36 275 36 278 31 c 0,73,74
 281 25 281 25 322 70 c 0,75,76
 364 115 364 115 421 181 c 2,77,-1
 541 322 l 2,78,79
 604 397 604 397 652 451 c 1,0,1
284 463 m 0,80,81
 354 463 354 463 384 497 c 256,82,83
 414 531 414 531 429 588 c 0,84,85
 433 607 433 607 431.5 627 c 128,-1,86
 430 647 430 647 421.5 664.5 c 128,-1,87
 413 682 413 682 396.5 693.5 c 128,-1,88
 380 705 380 705 355 707 c 0,89,90
 321 709 321 709 294 700 c 128,-1,91
 267 691 267 691 246.5 675 c 128,-1,92
 226 659 226 659 213.5 639 c 128,-1,93
 201 619 201 619 195 600 c 0,94,95
 190 584 190 584 188 560.5 c 128,-1,96
 186 537 186 537 193.5 515.5 c 128,-1,97
 201 494 201 494 222 478.5 c 128,-1,98
 243 463 243 463 284 463 c 0,80,81
614 608 m 0,99,100
 608 584 608 584 610 562 c 128,-1,101
 612 540 612 540 621 523.5 c 128,-1,102
 630 507 630 507 646 497 c 128,-1,103
 662 487 662 487 683 487 c 0,104,105
 711 487 711 487 736.5 493 c 128,-1,106
 762 499 762 499 781.5 513.5 c 128,-1,107
 801 528 801 528 815 552 c 128,-1,108
 829 576 829 576 835 612 c 0,109,110
 841 657 841 657 820 688 c 128,-1,111
 799 719 799 719 748 719 c 0,112,113
 721 719 721 719 698.5 709.5 c 128,-1,114
 676 700 676 700 659 684.5 c 128,-1,115
 642 669 642 669 631 649 c 128,-1,116
 620 629 620 629 614 608 c 0,99,100
EndSplineSet
EndChar
StartChar: uni0E2C
Encoding: 3628 3628 48
Width: 938
Flags: W
Fore
704 49 m 0,0,1
 712 49 712 49 731 101.5 c 128,-1,2
 750 154 750 154 773.5 241 c 128,-1,3
 797 328 797 328 821.5 440.5 c 128,-1,4
 846 553 846 553 865 672 c 1,5,6
 842 661 842 661 820 653.5 c 128,-1,7
 798 646 798 646 772 649 c 0,8,9
 721 654 721 654 698.5 687 c 128,-1,10
 676 720 676 720 687 766 c 0,11,12
 693 788 693 788 705.5 807 c 128,-1,13
 718 826 718 826 735.5 840.5 c 128,-1,14
 753 855 753 855 774.5 863.5 c 128,-1,15
 796 872 796 872 820 872 c 0,16,17
 876 872 876 872 899 843 c 128,-1,18
 922 814 922 814 921 768 c 1,19,20
 934 772 934 772 945 780 c 0,21,22
 970 796 970 796 998 825 c 0,23,24
 1006 834 1006 834 1013.5 833 c 128,-1,25
 1021 832 1021 832 1025 825.5 c 128,-1,26
 1029 819 1029 819 1027.5 810 c 128,-1,27
 1026 801 1026 801 1016 795 c 1,28,29
 1005 778 1005 778 988.5 765 c 128,-1,30
 972 752 972 752 956 741 c 0,31,32
 946 735 946 735 936 729.5 c 128,-1,33
 926 724 926 724 916 719 c 1,34,35
 882 558 882 558 854.5 427.5 c 128,-1,36
 827 297 827 297 802.5 204 c 128,-1,37
 778 111 778 111 755.5 59.5 c 128,-1,38
 733 8 733 8 708 6 c 0,39,40
 678 4 678 4 657 36 c 128,-1,41
 636 68 636 68 621.5 122.5 c 128,-1,42
 607 177 607 177 598.5 249 c 128,-1,43
 590 321 590 321 586 399 c 1,44,45
 554 320 554 320 517.5 249 c 128,-1,46
 481 178 481 178 446 124 c 128,-1,47
 411 70 411 70 381 38 c 128,-1,48
 351 6 351 6 333 6 c 0,49,50
 313 6 313 6 310 32.5 c 128,-1,51
 307 59 307 59 317 121.5 c 128,-1,52
 327 184 327 184 349 286 c 128,-1,53
 371 388 371 388 401 539 c 1,54,55
 382 502 382 502 345.5 483.5 c 128,-1,56
 309 465 309 465 270 465 c 0,57,58
 211 465 211 465 179 506 c 0,59,60
 147 548 147 548 160 608 c 0,61,62
 172 669 172 669 218 709 c 0,63,64
 241 729 241 729 268.5 740.5 c 128,-1,65
 296 752 296 752 327 750 c 0,66,67
 472 743 472 743 445 571 c 0,68,69
 439 539 439 539 431.5 502 c 128,-1,70
 424 465 424 465 414 420 c 0,71,72
 405 375 405 375 397 333.5 c 128,-1,73
 389 292 389 292 381 251 c 0,74,75
 366 168 366 168 357 112 c 0,76,77
 349 55 349 55 359 55 c 0,78,79
 368 55 368 55 400 103 c 0,80,81
 432 153 432 153 467 219 c 0,82,83
 503 287 503 287 535 358 c 0,84,85
 552 394 552 394 563.5 424 c 128,-1,86
 575 454 575 454 582 479 c 1,87,88
 592 494 592 494 607 494 c 256,89,90
 622 494 622 494 624 483 c 1,91,92
 623 458 623 458 624 427.5 c 128,-1,93
 625 397 625 397 628 360 c 256,94,95
 631 323 631 323 635 288 c 128,-1,96
 639 253 639 253 644 218 c 0,97,98
 649 184 649 184 655 154.5 c 128,-1,99
 661 125 661 125 669 99 c 0,100,101
 684 49 684 49 704 49 c 0,0,1
400 606 m 0,102,103
 409 648 409 648 392 682 c 0,104,105
 375 715 375 715 321 715 c 0,106,107
 278 715 278 715 242 687 c 128,-1,108
 206 659 206 659 195 608 c 0,109,110
 189 581 189 581 193.5 560.5 c 128,-1,111
 198 540 198 540 209.5 526 c 128,-1,112
 221 512 221 512 238.5 505 c 128,-1,113
 256 498 256 498 277 498 c 0,114,115
 319 498 319 498 353.5 528 c 128,-1,116
 388 558 388 558 400 606 c 0,102,103
883 756 m 0,117,118
 890 789 890 789 872 814.5 c 128,-1,119
 854 840 854 840 823 840 c 0,120,121
 801 840 801 840 781 829 c 128,-1,122
 761 818 761 818 746.5 801 c 128,-1,123
 732 784 732 784 725 764 c 128,-1,124
 718 744 718 744 721.5 726.5 c 128,-1,125
 725 709 725 709 741 697.5 c 128,-1,126
 757 686 757 686 790 686 c 0,127,128
 802 686 802 686 817 692.5 c 128,-1,129
 832 699 832 699 846 709 c 128,-1,130
 860 719 860 719 870 731.5 c 128,-1,131
 880 744 880 744 883 756 c 0,117,118
EndSplineSet
Substitution: 0 65534 'L026' uni0E2C.alt1
Substitution: 0 65534 'L026' uni0E2C.alt1
EndChar
StartChar: uni0E2D
Encoding: 3629 3629 49
Width: 725
Flags: W
Fore
361 422 m 0,0,1
 326 422 326 422 286 401 c 0,2,3
 246 382 246 382 231 328 c 0,4,5
 223 275 223 275 255 250 c 0,6,7
 286 225 286 225 332 225 c 0,8,9
 377 225 377 225 401 249.5 c 128,-1,10
 425 274 425 274 432 309 c 0,11,12
 441 349 441 349 424 386 c 0,13,14
 407 422 407 422 361 422 c 0,0,1
259 420 m 0,15,16
 286 438 286 438 311.5 447.5 c 128,-1,17
 337 457 337 457 371 457 c 0,18,19
 399 457 399 457 420 443 c 128,-1,20
 441 429 441 429 453 407 c 128,-1,21
 465 385 465 385 469 358.5 c 128,-1,22
 473 332 473 332 468 307 c 0,23,24
 457 256 457 256 419 224.5 c 128,-1,25
 381 193 381 193 320 193 c 0,26,27
 266 193 266 193 238 221 c 0,28,29
 212 248 212 248 204 279 c 1,30,-1
 203 276 l 2,31,32
 171 202 171 202 169 151.5 c 128,-1,33
 167 101 167 101 197.5 72 c 128,-1,34
 228 43 228 43 293 33.5 c 128,-1,35
 358 24 358 24 461 31 c 0,36,37
 548 31 548 31 592 88 c 0,38,39
 637 147 637 147 656 238 c 0,40,41
 675 328 675 328 683.5 414 c 128,-1,42
 692 500 692 500 678 567.5 c 128,-1,43
 664 635 664 635 622 676 c 128,-1,44
 580 717 580 717 498 717 c 0,45,46
 452 717 452 717 410 693 c 128,-1,47
 368 669 368 669 333 632 c 128,-1,48
 298 595 298 595 271 550.5 c 128,-1,49
 244 506 244 506 229 465 c 1,50,51
 221 455 221 455 209 452.5 c 128,-1,52
 197 450 197 450 189 461 c 1,53,-1
 206 511 l 2,54,55
 223 559 223 559 259 611 c 0,56,57
 296 666 296 666 357 710 c 0,58,59
 419 754 419 754 506 754 c 0,60,61
 592 754 592 754 641.5 717.5 c 128,-1,62
 691 681 691 681 710.5 614 c 128,-1,63
 730 547 730 547 724 451.5 c 128,-1,64
 718 356 718 356 693 238 c 0,65,66
 682 188 682 188 666.5 144 c 128,-1,67
 651 100 651 100 624.5 67 c 128,-1,68
 598 34 598 34 557.5 15 c 128,-1,69
 517 -4 517 -4 456 -4 c 0,70,71
 382 -4 382 -4 318.5 -2 c 128,-1,72
 255 0 255 0 210 15 c 128,-1,73
 165 30 165 30 144 62.5 c 128,-1,74
 123 95 123 95 135 156 c 0,75,76
 153 261 153 261 185 327 c 128,-1,77
 217 393 217 393 259 420 c 0,15,16
EndSplineSet
EndChar
StartChar: uni0E2E
Encoding: 3630 3630 50
Width: 729
Flags: W
Fore
276 584 m 0,0,1
 286 563 286 563 310 551.5 c 128,-1,2
 334 540 334 540 366 537.5 c 128,-1,3
 398 535 398 535 435.5 541.5 c 128,-1,4
 473 548 473 548 509.5 563.5 c 128,-1,5
 546 579 546 579 579 602 c 128,-1,6
 612 625 612 625 635 657 c 1,7,8
 612 686 612 686 562 710 c 0,9,10
 513 735 513 735 451 735 c 0,11,12
 402 735 402 735 364 720.5 c 128,-1,13
 326 706 326 706 302.5 684 c 128,-1,14
 279 662 279 662 271.5 635.5 c 128,-1,15
 264 609 264 609 276 584 c 0,0,1
281 401 m 0,16,17
 242 382 242 382 227 328 c 1,18,19
 224 302 224 302 230.5 282.5 c 128,-1,20
 237 263 237 263 250.5 250.5 c 128,-1,21
 264 238 264 238 283.5 231.5 c 128,-1,22
 303 225 303 225 326 225 c 0,23,24
 371 225 371 225 394.5 249.5 c 128,-1,25
 418 274 418 274 427 309 c 0,26,27
 438 351 438 351 427.5 376 c 128,-1,28
 417 401 417 401 393.5 412 c 128,-1,29
 370 423 370 423 339.5 419.5 c 128,-1,30
 309 416 309 416 281 401 c 0,16,17
654 630 m 1,31,32
 627 594 627 594 593 569.5 c 128,-1,33
 559 545 559 545 523 530 c 128,-1,34
 487 515 487 515 451 508.5 c 128,-1,35
 415 502 415 502 385 502 c 256,36,37
 355 502 355 502 325.5 509 c 128,-1,38
 296 516 296 516 273 531 c 128,-1,39
 250 546 250 546 238.5 568.5 c 128,-1,40
 227 591 227 591 233 621 c 0,41,42
 239 646 239 646 257 672.5 c 128,-1,43
 275 699 275 699 303.5 721 c 128,-1,44
 332 743 332 743 371.5 757.5 c 128,-1,45
 411 772 411 772 461 772 c 0,46,47
 488 772 488 772 518 765 c 128,-1,48
 548 758 548 758 575 745.5 c 128,-1,49
 602 733 602 733 624.5 717.5 c 128,-1,50
 647 702 647 702 661 686 c 1,51,52
 665 689 665 689 682 703.5 c 128,-1,53
 699 718 699 718 721 743 c 128,-1,54
 743 768 743 768 766.5 804 c 128,-1,55
 790 840 790 840 809 887 c 1,56,57
 816 898 816 898 825.5 893 c 128,-1,58
 835 888 835 888 831 866 c 0,59,60
 820 824 820 824 795 786 c 128,-1,61
 770 748 770 748 744 719 c 0,62,63
 728 700 728 700 712 683.5 c 128,-1,64
 696 667 696 667 679 653 c 1,65,66
 715 600 715 600 714 489 c 0,67,68
 713 434 713 434 705.5 371.5 c 128,-1,69
 698 309 698 309 683 238 c 0,70,71
 672 189 672 189 655.5 146.5 c 128,-1,72
 639 104 639 104 612.5 72 c 128,-1,73
 586 40 586 40 546 21 c 128,-1,74
 506 2 506 2 449 0 c 0,75,76
 421 -2 421 -2 390 -2 c 128,-1,77
 359 -2 359 -2 337 -2 c 0,78,79
 284 -2 284 -2 242 3.5 c 128,-1,80
 200 9 200 9 171.5 25.5 c 128,-1,81
 143 42 143 42 131.5 73.5 c 128,-1,82
 120 105 120 105 129 156 c 0,83,84
 146 259 146 259 179 325 c 128,-1,85
 212 391 212 391 252 418 c 0,86,87
 272 432 272 432 299.5 440.5 c 128,-1,88
 327 449 327 449 355 449 c 128,-1,89
 383 449 383 449 408 439 c 128,-1,90
 433 429 433 429 449 406 c 0,91,92
 463 385 463 385 465.5 360 c 128,-1,93
 468 335 468 335 460 307 c 0,94,95
 445 258 445 258 408 226.5 c 128,-1,96
 371 195 371 195 311 195 c 256,97,98
 251 195 251 195 226 226 c 256,99,100
 201 257 201 257 198 287 c 1,101,-1
 181 245 l 2,102,103
 157 176 157 176 158 134 c 128,-1,104
 159 92 159 92 181.5 69 c 128,-1,105
 204 46 204 46 246.5 38.5 c 128,-1,106
 289 31 289 31 348 31 c 0,107,108
 373 31 373 31 399.5 31 c 128,-1,109
 426 31 426 31 453 33 c 0,110,111
 544 33 544 33 587 88 c 256,112,113
 630 143 630 143 650 238 c 0,114,115
 663 298 663 298 670 352.5 c 128,-1,116
 677 407 677 407 679 459 c 256,117,118
 681 511 681 511 677.5 553.5 c 128,-1,119
 674 596 674 596 654 630 c 1,31,32
EndSplineSet
EndChar
StartChar: uni0E2F
Encoding: 3631 3631 51
Width: 553
Flags: W
Fore
275 516 m 0,0,1
 255 510 255 510 244 511 c 128,-1,2
 233 512 233 512 228 516 c 1,3,4
 252 496 252 496 284.5 485.5 c 128,-1,5
 317 475 317 475 359 479 c 0,6,7
 395 481 395 481 428.5 490 c 128,-1,8
 462 499 462 499 490.5 524 c 128,-1,9
 519 549 519 549 542 593.5 c 128,-1,10
 565 638 565 638 581 711 c 1,11,12
 581 721 581 721 588.5 727 c 128,-1,13
 596 733 596 733 604.5 734 c 128,-1,14
 613 735 613 735 619 730 c 128,-1,15
 625 725 625 725 622 713 c 0,16,17
 619 699 619 699 615.5 682.5 c 128,-1,18
 612 666 612 666 606 637.5 c 128,-1,19
 600 609 600 609 590 563.5 c 128,-1,20
 580 518 580 518 563.5 445.5 c 128,-1,21
 547 373 547 373 523 268.5 c 128,-1,22
 499 164 499 164 466 18 c 0,23,24
 464 5 464 5 444 7 c 0,25,26
 425 8 425 8 428 20 c 2,27,-1
 533 506 l 1,28,29
 499 471 499 471 456 455.5 c 128,-1,30
 413 440 413 440 347 438 c 0,31,32
 299 438 299 438 260.5 448 c 128,-1,33
 222 458 222 458 195.5 480.5 c 128,-1,34
 169 503 169 503 157.5 539 c 128,-1,35
 146 575 146 575 153 627 c 0,36,37
 156 649 156 649 168.5 668.5 c 128,-1,38
 181 688 181 688 199 702 c 128,-1,39
 217 716 217 716 238.5 725 c 128,-1,40
 260 734 260 734 281 735 c 0,41,42
 333 739 333 739 363.5 709.5 c 128,-1,43
 394 680 394 680 385 629 c 0,44,45
 378 587 378 587 349 558.5 c 128,-1,46
 320 530 320 530 275 516 c 0,0,1
268 702 m 0,47,48
 242 700 242 700 216.5 681 c 128,-1,49
 191 662 191 662 184 627 c 0,50,51
 178 601 178 601 182.5 585 c 128,-1,52
 187 569 187 569 197 560 c 128,-1,53
 207 551 207 551 219 548 c 128,-1,54
 231 545 231 545 240 545 c 0,55,56
 264 544 264 544 283 551 c 128,-1,57
 302 558 302 558 316 569.5 c 128,-1,58
 330 581 330 581 338.5 596.5 c 128,-1,59
 347 612 347 612 350 627 c 0,60,61
 356 669 356 669 332 688 c 128,-1,62
 308 707 308 707 268 702 c 0,47,48
EndSplineSet
EndChar
StartChar: uni0E30
Encoding: 3632 3632 52
Width: 539
Flags: W
Fore
289 647 m 0,0,1
 266 647 266 647 243 635 c 128,-1,2
 220 623 220 623 209 592 c 1,3,4
 206 571 206 571 213.5 557.5 c 128,-1,5
 221 544 221 544 234 537.5 c 128,-1,6
 247 531 247 531 263.5 532 c 128,-1,7
 280 533 280 533 295 540.5 c 128,-1,8
 310 548 310 548 321.5 562 c 128,-1,9
 333 576 333 576 337 596 c 256,10,11
 341 616 341 616 325 631.5 c 128,-1,12
 309 647 309 647 289 647 c 0,0,1
212 283 m 0,13,14
 189 283 189 283 166 271.5 c 128,-1,15
 143 260 143 260 131 225 c 1,16,17
 128 194 128 194 145.5 181 c 128,-1,18
 163 168 163 168 186.5 169.5 c 128,-1,19
 210 171 210 171 232 186.5 c 128,-1,20
 254 202 254 202 259 229 c 0,21,22
 264 252 264 252 248 267.5 c 128,-1,23
 232 283 232 283 212 283 c 0,13,14
135 156 m 1,24,25
 138 135 138 135 148 121 c 128,-1,26
 158 107 158 107 172 98.5 c 128,-1,27
 186 90 186 90 203 87 c 128,-1,28
 220 84 220 84 238 84 c 0,29,30
 268 84 268 84 300 96.5 c 128,-1,31
 332 109 332 109 359 133.5 c 128,-1,32
 386 158 386 158 405.5 193.5 c 128,-1,33
 425 229 425 229 431 276 c 0,34,35
 434 288 434 288 452 290 c 0,36,37
 471 291 471 291 469 279 c 0,38,39
 458 219 458 219 432.5 176 c 128,-1,40
 407 133 407 133 373.5 105.5 c 128,-1,41
 340 78 340 78 302.5 64.5 c 128,-1,42
 265 51 265 51 231 51 c 0,43,44
 186 51 186 51 155.5 66 c 128,-1,45
 125 81 125 81 110 106.5 c 128,-1,46
 95 132 95 132 94 165.5 c 128,-1,47
 93 199 93 199 107 236 c 0,48,49
 122 278 122 278 152.5 293.5 c 128,-1,50
 183 309 183 309 217 309 c 256,51,52
 251 309 251 309 271.5 286.5 c 128,-1,53
 292 264 292 264 285 231 c 0,54,55
 283 208 283 208 268.5 188 c 128,-1,56
 254 168 254 168 232 156 c 128,-1,57
 210 144 210 144 184.5 142.5 c 128,-1,58
 159 141 159 141 135 156 c 1,24,25
212 520 m 1,59,60
 218 476 218 476 249 463 c 0,61,62
 282 449 282 449 316 449 c 0,63,64
 346 449 346 449 377.5 462 c 128,-1,65
 409 475 409 475 436.5 499.5 c 128,-1,66
 464 524 464 524 484 560.5 c 128,-1,67
 504 597 504 597 510 645 c 0,68,69
 511 655 511 655 530 655 c 0,70,71
 548 655 548 655 547 645 c 0,72,73
 536 586 536 586 510.5 543 c 128,-1,74
 485 500 485 500 451.5 472 c 128,-1,75
 418 444 418 444 380.5 431 c 128,-1,76
 343 418 343 418 309 418 c 0,77,78
 264 418 264 418 234.5 432 c 128,-1,79
 205 446 205 446 190 470.5 c 128,-1,80
 175 495 175 495 174 528.5 c 128,-1,81
 173 562 173 562 184 600 c 0,82,83
 191 621 191 621 204 635.5 c 128,-1,84
 217 650 217 650 232.5 659 c 128,-1,85
 248 668 248 668 264 672 c 128,-1,86
 280 676 280 676 295 676 c 0,87,88
 329 676 329 676 349.5 653.5 c 128,-1,89
 370 631 370 631 363 600 c 0,90,91
 357 574 357 574 342 553.5 c 128,-1,92
 327 533 327 533 306 521.5 c 128,-1,93
 285 510 285 510 260.5 509 c 128,-1,94
 236 508 236 508 212 520 c 1,59,60
EndSplineSet
EndChar
StartChar: uni0E31
Encoding: 3633 3633 53
Width: 0
Flags: W
Fore
-115 938 m 0,0,1
 -121 935 -121 935 -132.5 932.5 c 128,-1,2
 -144 930 -144 930 -156.5 928.5 c 128,-1,3
 -169 927 -169 927 -180 928 c 128,-1,4
 -191 929 -191 929 -196 934 c 1,5,6
 -184 922 -184 922 -165.5 914 c 128,-1,7
 -147 906 -147 906 -123.5 902 c 128,-1,8
 -100 898 -100 898 -74 898 c 128,-1,9
 -48 898 -48 898 -21 903 c 0,10,11
 19 909 19 909 57 923.5 c 128,-1,12
 95 938 95 938 125.5 967.5 c 128,-1,13
 156 997 156 997 177.5 1044.5 c 128,-1,14
 199 1092 199 1092 206 1163 c 1,15,16
 204 1174 204 1174 211.5 1181 c 128,-1,17
 219 1188 219 1188 228 1190 c 128,-1,18
 237 1192 237 1192 243.5 1187 c 128,-1,19
 250 1182 250 1182 248 1169 c 0,20,21
 236 1036 236 1036 170.5 959.5 c 128,-1,22
 105 883 105 883 -24 866 c 0,23,24
 -73 860 -73 860 -120 866.5 c 128,-1,25
 -167 873 -167 873 -203.5 893 c 128,-1,26
 -240 913 -240 913 -261 946.5 c 128,-1,27
 -282 980 -282 980 -279 1028 c 0,28,29
 -276 1080 -276 1080 -238 1113 c 0,30,31
 -211 1137 -211 1137 -177.5 1143.5 c 128,-1,32
 -144 1150 -144 1150 -114 1141 c 128,-1,33
 -84 1132 -84 1132 -64 1109 c 128,-1,34
 -44 1086 -44 1086 -45 1051 c 0,35,36
 -45 1036 -45 1036 -48 1020.5 c 128,-1,37
 -51 1005 -51 1005 -59 990 c 128,-1,38
 -67 975 -67 975 -80.5 961.5 c 128,-1,39
 -94 948 -94 948 -115 938 c 0,0,1
-245 1032 m 0,40,41
 -245 1003 -245 1003 -232.5 985.5 c 128,-1,42
 -220 968 -220 968 -202 961.5 c 128,-1,43
 -184 955 -184 955 -162.5 958.5 c 128,-1,44
 -141 962 -141 962 -122.5 973.5 c 128,-1,45
 -104 985 -104 985 -92.5 1005 c 128,-1,46
 -81 1025 -81 1025 -81 1051 c 0,47,48
 -82 1075 -82 1075 -94 1089 c 128,-1,49
 -106 1103 -106 1103 -124.5 1108.5 c 128,-1,50
 -143 1114 -143 1114 -164 1110.5 c 128,-1,51
 -185 1107 -185 1107 -203 1097 c 128,-1,52
 -221 1087 -221 1087 -233 1070.5 c 128,-1,53
 -245 1054 -245 1054 -245 1032 c 0,40,41
EndSplineSet
Substitution: 0 65534 'L026' uni0E31.alt1
Substitution: 0 65534 'L026' uni0E31.alt1
EndChar
StartChar: uni0E32
Encoding: 3634 3634 54
Width: 565
Flags: W
Fore
181 532 m 0,0,1
 204 626 204 626 261.5 678.5 c 128,-1,2
 319 731 319 731 419 731 c 0,3,4
 476 731 476 731 511.5 716 c 128,-1,5
 547 701 547 701 565.5 674.5 c 128,-1,6
 584 648 584 648 588.5 610.5 c 128,-1,7
 593 573 593 573 589 528.5 c 128,-1,8
 585 484 585 484 574.5 434 c 128,-1,9
 564 384 564 384 553 332 c 2,10,-1
 483 29 l 2,11,12
 481 22 481 22 474.5 18 c 128,-1,13
 468 14 468 14 462 13.5 c 128,-1,14
 456 13 456 13 452 16.5 c 128,-1,15
 448 20 448 20 450 29 c 0,16,17
 463 96 463 96 473.5 142 c 128,-1,18
 484 188 484 188 493.5 229 c 128,-1,19
 503 270 503 270 513.5 312.5 c 128,-1,20
 524 355 524 355 538 414 c 0,21,22
 545 444 545 444 551 477 c 128,-1,23
 557 510 557 510 557.5 542 c 128,-1,24
 558 574 558 574 551 602.5 c 128,-1,25
 544 631 544 631 527 653 c 0,26,27
 511 673 511 673 483 684.5 c 128,-1,28
 455 696 455 696 415 696 c 0,29,30
 369 695 369 695 337.5 685 c 128,-1,31
 306 675 306 675 283.5 654.5 c 128,-1,32
 261 634 261 634 244.5 603 c 128,-1,33
 228 572 228 572 212 530 c 0,34,35
 210 522 210 522 204.5 519 c 128,-1,36
 199 516 199 516 193 516.5 c 128,-1,37
 187 517 187 517 183 521 c 128,-1,38
 179 525 179 525 181 532 c 0,0,1
EndSplineSet
EndChar
StartChar: uni0E33
Encoding: 3635 3635 55
Width: 551
Flags: W
Fore
166 532 m 1,0,1
 167 506 167 506 195 526 c 1,2,3
 210 570 210 570 227.5 601.5 c 128,-1,4
 245 633 245 633 269.5 653.5 c 128,-1,5
 294 674 294 674 326 684.5 c 128,-1,6
 358 695 358 695 401 696 c 0,7,8
 483 696 483 696 512 653 c 0,9,10
 527 632 527 632 533.5 606.5 c 128,-1,11
 540 581 540 581 540 549 c 0,12,13
 541 489 541 489 523 414 c 0,14,15
 515 378 515 378 507 345 c 128,-1,16
 499 312 499 312 491 281 c 0,17,18
 483 246 483 246 477.5 221.5 c 128,-1,19
 472 197 472 197 466 171 c 128,-1,20
 460 145 460 145 453 112.5 c 128,-1,21
 446 80 446 80 436 29 c 0,22,23
 431 11 431 11 448 13 c 256,24,25
 465 15 465 15 469 29 c 2,26,-1
 539 332 l 2,27,28
 550 384 550 384 560.5 434 c 128,-1,29
 571 484 571 484 575 528.5 c 128,-1,30
 579 573 579 573 574.5 610.5 c 128,-1,31
 570 648 570 648 551.5 674.5 c 128,-1,32
 533 701 533 701 497.5 716 c 128,-1,33
 462 731 462 731 405 731 c 0,34,35
 305 731 305 731 247 678.5 c 128,-1,36
 189 626 189 626 166 532 c 1,0,1
89 1065 m 0,37,38
 137 1065 137 1065 162 1033.5 c 128,-1,39
 187 1002 187 1002 177 954 c 0,40,41
 166 904 166 904 127 873 c 0,42,43
 89 842 89 842 41 842 c 0,44,45
 18 842 18 842 -0.5 850.5 c 128,-1,46
 -19 859 -19 859 -31 874 c 128,-1,47
 -43 889 -43 889 -47.5 909.5 c 128,-1,48
 -52 930 -52 930 -47 954 c 0,49,50
 -36 1002 -36 1002 2 1033 c 0,51,52
 43 1065 43 1065 89 1065 c 0,37,38
90 1032 m 1,53,54
 72 1032 72 1032 55.5 1026 c 128,-1,55
 39 1020 39 1020 25 1009.5 c 128,-1,56
 11 999 11 999 1 984.5 c 128,-1,57
 -9 970 -9 970 -12 954 c 0,58,59
 -19 920 -19 920 -3 897 c 128,-1,60
 13 874 13 874 48 874 c 0,61,62
 81 874 81 874 108.5 897 c 128,-1,63
 136 920 136 920 143 954 c 0,64,65
 150 987 150 987 132 1008.5 c 128,-1,66
 114 1030 114 1030 81 1030 c 1,67,-1
 90 1032 l 1,53,54
EndSplineSet
Substitution: 0 65534 'L026' uni0E33.alt1
Substitution: 0 65534 'L026' uni0E33.alt1
EndChar
StartChar: uni0E34
Encoding: 3636 3636 56
Width: 0
Flags: W
Fore
-161 1108 m 0,0,1
 -80 1108 -80 1108 -15 1056 c 0,2,3
 51 1003 51 1003 87 932 c 0,4,5
 99 911 99 911 100 897 c 128,-1,6
 101 883 101 883 95.5 874.5 c 128,-1,7
 90 866 90 866 80 863 c 128,-1,8
 70 860 70 860 61 860 c 0,9,10
 19 858 19 858 -35.5 853.5 c 128,-1,11
 -90 849 -90 849 -147.5 845 c 128,-1,12
 -205 841 -205 841 -260 840.5 c 128,-1,13
 -315 840 -315 840 -357 845.5 c 128,-1,14
 -399 851 -399 851 -423.5 865 c 128,-1,15
 -448 879 -448 879 -444 905 c 0,16,17
 -438 941 -438 941 -409 977.5 c 128,-1,18
 -380 1014 -380 1014 -338.5 1043 c 128,-1,19
 -297 1072 -297 1072 -250 1090 c 128,-1,20
 -203 1108 -203 1108 -161 1108 c 0,0,1
78 899 m 0,21,22
 57 932 57 932 33.5 964 c 128,-1,23
 10 996 10 996 -19 1022 c 128,-1,24
 -48 1048 -48 1048 -83.5 1064.5 c 128,-1,25
 -119 1081 -119 1081 -164 1083 c 0,26,27
 -198 1083 -198 1083 -239.5 1067 c 128,-1,28
 -281 1051 -281 1051 -318 1026 c 128,-1,29
 -355 1001 -355 1001 -382.5 970 c 128,-1,30
 -410 939 -410 939 -416 909 c 0,31,32
 -419 896 -419 896 -400 888 c 128,-1,33
 -381 880 -381 880 -347 875.5 c 128,-1,34
 -313 871 -313 871 -267 870.5 c 128,-1,35
 -221 870 -221 870 -168.5 871.5 c 128,-1,36
 -116 873 -116 873 -60.5 877.5 c 128,-1,37
 -5 882 -5 882 47 889 c 0,38,39
 49 889 49 889 55 890 c 128,-1,40
 61 891 61 891 66.5 892.5 c 128,-1,41
 72 894 72 894 75.5 895.5 c 128,-1,42
 79 897 79 897 78 899 c 0,21,22
EndSplineSet
Substitution: 0 65534 'L026' uni0E34.alt1
Substitution: 0 65534 'L026' uni0E34.alt1
EndChar
StartChar: uni0E35
Encoding: 3637 3637 57
Width: 0
Flags: W
Fore
-189 1112 m 0,0,1
 -149 1112 -149 1112 -112 1097.5 c 128,-1,2
 -75 1083 -75 1083 -43.5 1059 c 128,-1,3
 -12 1035 -12 1035 13.5 1003 c 128,-1,4
 39 971 39 971 57 936 c 1,5,-1
 69 1010 l 2,6,7
 70 1020 70 1020 73.5 1048 c 128,-1,8
 77 1076 77 1076 82 1106 c 128,-1,9
 87 1136 87 1136 94.5 1159 c 128,-1,10
 102 1182 102 1182 112 1182 c 0,11,12
 125 1182 125 1182 125 1171 c 2,13,-1
 125 1169 l 1,14,15
 119 1137 119 1137 112 1098 c 128,-1,16
 105 1059 105 1059 99.5 1021.5 c 128,-1,17
 94 984 94 984 89.5 951 c 128,-1,18
 85 918 85 918 84 897 c 0,19,20
 84 885 84 885 68 874.5 c 128,-1,21
 52 864 52 864 33 864 c 0,22,23
 -2 864 -2 864 -45 861 c 128,-1,24
 -88 858 -88 858 -134.5 854.5 c 128,-1,25
 -181 851 -181 851 -227.5 848 c 128,-1,26
 -274 845 -274 845 -316 845 c 0,27,28
 -349 845 -349 845 -378 847.5 c 128,-1,29
 -407 850 -407 850 -428 856.5 c 128,-1,30
 -449 863 -449 863 -461 873.5 c 128,-1,31
 -473 884 -473 884 -473 901 c 0,32,33
 -473 938 -473 938 -444 975.5 c 128,-1,34
 -415 1013 -415 1013 -372 1043.5 c 128,-1,35
 -329 1074 -329 1074 -279.5 1093 c 128,-1,36
 -230 1112 -230 1112 -189 1112 c 0,0,1
50 903 m 1,37,38
 27 935 27 935 2.5 967.5 c 128,-1,39
 -22 1000 -22 1000 -50.5 1026.5 c 128,-1,40
 -79 1053 -79 1053 -114.5 1070 c 128,-1,41
 -150 1087 -150 1087 -196 1087 c 0,42,43
 -228 1087 -228 1087 -270.5 1070.5 c 128,-1,44
 -313 1054 -313 1054 -351.5 1028 c 128,-1,45
 -390 1002 -390 1002 -417 971 c 128,-1,46
 -444 940 -444 940 -444 910 c 0,47,48
 -444 901 -444 901 -430.5 894 c 128,-1,49
 -417 887 -417 887 -392.5 882.5 c 128,-1,50
 -368 878 -368 878 -335 876 c 128,-1,51
 -302 874 -302 874 -263 874 c 0,52,53
 -244 874 -244 874 -213.5 875 c 128,-1,54
 -183 876 -183 876 -148.5 878 c 128,-1,55
 -114 880 -114 880 -78.5 882.5 c 128,-1,56
 -43 885 -43 885 -14.5 888 c 128,-1,57
 14 891 14 891 32 894.5 c 128,-1,58
 50 898 50 898 50 902 c 2,59,-1
 50 903 l 1,37,38
EndSplineSet
Substitution: 0 65534 'L026' uni0E35.alt1
Substitution: 0 65534 'L026' uni0E35.alt1
EndChar
StartChar: uni0E36
Encoding: 3638 3638 58
Width: 0
Flags: W
Fore
83 1165 m 0,0,1
 118 1165 118 1165 138 1144.5 c 128,-1,2
 158 1124 158 1124 158 1089 c 0,3,4
 158 1060 158 1060 148 1035 c 128,-1,5
 138 1010 138 1010 121 992 c 128,-1,6
 104 974 104 974 82.5 964 c 128,-1,7
 61 954 61 954 38 954 c 2,8,-1
 26 954 l 1,9,10
 32 943 32 943 42 924 c 128,-1,11
 52 905 52 905 50 888 c 0,12,13
 48 874 48 874 36 867 c 128,-1,14
 24 860 24 860 10 860 c 0,15,16
 -22 857 -22 857 -60 853.5 c 128,-1,17
 -98 850 -98 850 -139 847 c 128,-1,18
 -180 844 -180 844 -222.5 842 c 128,-1,19
 -265 840 -265 840 -304 840 c 0,20,21
 -344 840 -344 840 -379 842.5 c 128,-1,22
 -414 845 -414 845 -440 852 c 128,-1,23
 -466 859 -466 859 -481 869.5 c 128,-1,24
 -496 880 -496 880 -496 897 c 0,25,26
 -496 935 -496 935 -466 973 c 128,-1,27
 -436 1011 -436 1011 -392.5 1041.5 c 128,-1,28
 -349 1072 -349 1072 -300 1091 c 128,-1,29
 -251 1110 -251 1110 -213 1110 c 0,30,31
 -153 1108 -153 1108 -109.5 1087.5 c 128,-1,32
 -66 1067 -66 1067 -35 1038 c 1,33,-1
 -32 1061 l 2,34,35
 -22 1109 -22 1109 9.5 1137 c 128,-1,36
 41 1165 41 1165 83 1165 c 0,0,1
16 913 m 0,37,38
 -2 939 -2 939 -23.5 969 c 128,-1,39
 -45 999 -45 999 -73 1024.5 c 128,-1,40
 -101 1050 -101 1050 -136 1066.5 c 128,-1,41
 -171 1083 -171 1083 -217 1083 c 0,42,43
 -251 1083 -251 1083 -291 1068.5 c 128,-1,44
 -331 1054 -331 1054 -367.5 1029.5 c 128,-1,45
 -404 1005 -404 1005 -432 972.5 c 128,-1,46
 -460 940 -460 940 -469 905 c 1,47,48
 -474 894 -474 894 -461.5 887 c 128,-1,49
 -449 880 -449 880 -425 875.5 c 128,-1,50
 -401 871 -401 871 -369 869 c 128,-1,51
 -337 867 -337 867 -303 867 c 0,52,53
 -236 867 -236 867 -157.5 872 c 128,-1,54
 -79 877 -79 877 -6 885 c 0,55,56
 13 885 13 885 18 892.5 c 128,-1,57
 23 900 23 900 16 913 c 0,37,38
84 1133 m 1,58,59
 66 1133 66 1133 50 1124.5 c 128,-1,60
 34 1116 34 1116 22.5 1102.5 c 128,-1,61
 11 1089 11 1089 4 1072.5 c 128,-1,62
 -3 1056 -3 1056 -3 1040 c 0,63,64
 -3 1017 -3 1017 10 1001 c 128,-1,65
 23 985 23 985 45 985 c 0,66,67
 59 985 59 985 73.5 992.5 c 128,-1,68
 88 1000 88 1000 100 1013 c 128,-1,69
 112 1026 112 1026 119.5 1041.5 c 128,-1,70
 127 1057 127 1057 127 1074 c 0,71,72
 127 1097 127 1097 118.5 1111.5 c 128,-1,73
 110 1126 110 1126 84 1133 c 1,58,59
EndSplineSet
Substitution: 0 65534 'L026' uni0E36.alt1
Substitution: 0 65534 'L026' uni0E36.alt1
EndChar
StartChar: uni0E37
Encoding: 3639 3639 59
Width: 0
Flags: W
Fore
-6 1036 m 1,0,1
 8 1012 8 1012 27.5 989.5 c 128,-1,2
 47 967 47 967 61 936 c 1,3,4
 65 971 65 971 73 1010 c 0,5,6
 78 1042 78 1042 84.5 1083 c 128,-1,7
 91 1124 91 1124 101 1169 c 0,8,9
 102 1175 102 1175 106.5 1178.5 c 128,-1,10
 111 1182 111 1182 115.5 1182 c 128,-1,11
 120 1182 120 1182 123.5 1178.5 c 128,-1,12
 127 1175 127 1175 127 1169 c 1,13,-1
 103 1021 l 2,14,15
 97 981 97 981 92.5 950.5 c 128,-1,16
 88 920 88 920 86 897 c 1,17,18
 88 885 88 885 72 876 c 128,-1,19
 56 867 56 867 38 864 c 0,20,21
 -41 850 -41 850 -123.5 848.5 c 128,-1,22
 -206 847 -206 847 -286 845 c 0,23,24
 -326 844 -326 844 -360.5 846.5 c 128,-1,25
 -395 849 -395 849 -419.5 856.5 c 128,-1,26
 -444 864 -444 864 -457 876.5 c 128,-1,27
 -470 889 -470 889 -468 909 c 0,28,29
 -462 945 -462 945 -433 981.5 c 128,-1,30
 -404 1018 -404 1018 -363 1047 c 128,-1,31
 -322 1076 -322 1076 -274.5 1094 c 128,-1,32
 -227 1112 -227 1112 -185 1112 c 0,33,34
 -139 1112 -139 1112 -100 1095 c 128,-1,35
 -61 1078 -61 1078 -29 1049 c 1,36,37
 -24 1106 -24 1106 -18.5 1137.5 c 128,-1,38
 -13 1169 -13 1169 -8 1194 c 0,39,40
 -7 1201 -7 1201 -2.5 1204 c 128,-1,41
 2 1207 2 1207 7.5 1207 c 128,-1,42
 13 1207 13 1207 16.5 1203 c 128,-1,43
 20 1199 20 1199 20 1192 c 1,44,-1
 -6 1036 l 1,0,1
52 903 m 0,45,46
 30 936 30 936 7 968 c 128,-1,47
 -16 1000 -16 1000 -44.5 1026 c 128,-1,48
 -73 1052 -73 1052 -108 1068.5 c 128,-1,49
 -143 1085 -143 1085 -188 1087 c 0,50,51
 -222 1088 -222 1088 -263.5 1072.5 c 128,-1,52
 -305 1057 -305 1057 -342.5 1031.5 c 128,-1,53
 -380 1006 -380 1006 -408 974.5 c 128,-1,54
 -436 943 -436 943 -442 913 c 0,55,56
 -444 901 -444 901 -425 893 c 128,-1,57
 -406 885 -406 885 -372 880.5 c 128,-1,58
 -338 876 -338 876 -292 874.5 c 128,-1,59
 -246 873 -246 873 -194 875 c 128,-1,60
 -142 877 -142 877 -86.5 881.5 c 128,-1,61
 -31 886 -31 886 21 893 c 0,62,63
 24 893 24 893 29.5 893.5 c 128,-1,64
 35 894 35 894 41 895.5 c 128,-1,65
 47 897 47 897 50.5 899 c 128,-1,66
 54 901 54 901 52 903 c 0,45,46
EndSplineSet
Substitution: 0 65534 'L026' uni0E37.alt1
Substitution: 0 65534 'L026' uni0E37.alt1
EndChar
StartChar: uni0E38
Encoding: 3640 3640 60
Width: 0
Flags: W
Fore
-158 -195 m 0,0,1
 -152 -170 -152 -170 -156.5 -152.5 c 128,-1,2
 -161 -135 -161 -135 -170.5 -123.5 c 128,-1,3
 -180 -112 -180 -112 -193 -107 c 128,-1,4
 -206 -102 -206 -102 -216 -102 c 0,5,6
 -255 -102 -255 -102 -278.5 -121 c 128,-1,7
 -302 -140 -302 -140 -315 -170 c 1,8,9
 -319 -187 -319 -187 -318.5 -203 c 128,-1,10
 -318 -219 -318 -219 -311.5 -231 c 128,-1,11
 -305 -243 -305 -243 -291.5 -250.5 c 128,-1,12
 -278 -258 -278 -258 -255 -258 c 0,13,14
 -218 -258 -218 -258 -193 -241 c 128,-1,15
 -168 -224 -168 -224 -158 -195 c 0,0,1
-168 -258 m 1,16,17
 -183 -275 -183 -275 -204.5 -280 c 128,-1,18
 -226 -285 -226 -285 -261 -285 c 0,19,20
 -291 -285 -291 -285 -309.5 -275.5 c 128,-1,21
 -328 -266 -328 -266 -337 -249.5 c 128,-1,22
 -346 -233 -346 -233 -347.5 -212 c 128,-1,23
 -349 -191 -349 -191 -344 -168 c 0,24,25
 -340 -146 -340 -146 -326.5 -127.5 c 128,-1,26
 -313 -109 -313 -109 -294 -96.5 c 128,-1,27
 -275 -84 -275 -84 -253 -78 c 128,-1,28
 -231 -72 -231 -72 -210 -74 c 0,29,30
 -147 -81 -147 -81 -130 -119.5 c 128,-1,31
 -113 -158 -113 -158 -135 -244 c 0,32,33
 -141 -268 -141 -268 -146 -290.5 c 128,-1,34
 -151 -313 -151 -313 -155 -335.5 c 128,-1,35
 -159 -358 -159 -358 -164 -381.5 c 128,-1,36
 -169 -405 -169 -405 -175 -432 c 1,37,38
 -183 -447 -183 -447 -198 -448 c 0,39,40
 -214 -451 -214 -451 -208 -432 c 2,41,-1
 -192 -371 l 2,42,43
 -187 -344 -187 -344 -181 -314.5 c 128,-1,44
 -175 -285 -175 -285 -168 -258 c 1,16,17
EndSplineSet
Substitution: 0 65534 'L027' a
Substitution: 0 65534 'L026' uni0E38.alt1
Substitution: 0 65534 'L027' a
Substitution: 0 65534 'L026' uni0E38.alt1
EndChar
StartChar: uni0E39
Encoding: 3641 3641 61
Width: 0
Flags: W
Fore
-128 -94 m 1,0,1
 -141 -149 -141 -149 -150.5 -192.5 c 128,-1,2
 -160 -236 -160 -236 -165 -270 c 2,3,-1
 -189 -403 l 2,4,5
 -192 -418 -192 -418 -201 -420 c 128,-1,6
 -210 -422 -210 -422 -221 -424 c 2,7,-1
 -349 -430 l 2,8,9
 -352 -430 -352 -430 -358 -429.5 c 128,-1,10
 -364 -429 -364 -429 -369.5 -427 c 128,-1,11
 -375 -425 -375 -425 -377.5 -419.5 c 128,-1,12
 -380 -414 -380 -414 -376 -403 c 0,13,14
 -373 -389 -373 -389 -369.5 -374.5 c 128,-1,15
 -366 -360 -366 -360 -362 -346 c 0,16,17
 -355 -322 -355 -322 -349.5 -296 c 128,-1,18
 -344 -270 -344 -270 -340 -252 c 1,19,20
 -368 -278 -368 -278 -402 -283 c 128,-1,21
 -436 -288 -436 -288 -464 -275 c 128,-1,22
 -492 -262 -492 -262 -507 -233 c 128,-1,23
 -522 -204 -522 -204 -513 -162 c 0,24,25
 -509 -141 -509 -141 -495.5 -123.5 c 128,-1,26
 -482 -106 -482 -106 -463.5 -93.5 c 128,-1,27
 -445 -81 -445 -81 -422.5 -74 c 128,-1,28
 -400 -67 -400 -67 -379 -68 c 0,29,30
 -313 -70 -313 -70 -296.5 -110.5 c 128,-1,31
 -280 -151 -280 -151 -302 -238 c 0,32,33
 -307 -261 -307 -261 -311 -277 c 128,-1,34
 -315 -293 -315 -293 -319 -309.5 c 128,-1,35
 -323 -326 -323 -326 -327 -345.5 c 128,-1,36
 -331 -365 -331 -365 -337 -395 c 1,37,-1
 -220 -391 l 1,38,39
 -216 -371 -216 -371 -212 -348.5 c 128,-1,40
 -208 -326 -208 -326 -203 -303 c 0,41,42
 -196 -261 -196 -261 -185 -208.5 c 128,-1,43
 -174 -156 -174 -156 -160 -92 c 0,44,45
 -158 -80 -158 -80 -142 -81 c 0,46,47
 -127 -82 -127 -82 -128 -94 c 1,0,1
-328 -184 m 0,48,49
 -322 -159 -322 -159 -326 -142 c 128,-1,50
 -330 -125 -330 -125 -340 -114.5 c 128,-1,51
 -350 -104 -350 -104 -362.5 -100 c 128,-1,52
 -375 -96 -375 -96 -385 -96 c 0,53,54
 -424 -96 -424 -96 -448 -114.5 c 128,-1,55
 -472 -133 -472 -133 -483 -164 c 0,56,57
 -487 -182 -487 -182 -486 -198 c 128,-1,58
 -485 -214 -485 -214 -478 -226 c 128,-1,59
 -471 -238 -471 -238 -457.5 -245 c 128,-1,60
 -444 -252 -444 -252 -424 -252 c 0,61,62
 -387 -251 -387 -251 -362.5 -232 c 128,-1,63
 -338 -213 -338 -213 -328 -184 c 0,48,49
EndSplineSet
Substitution: 0 65534 'L027' b
Substitution: 0 65534 'L026' uni0E39.alt1
Substitution: 0 65534 'L027' b
Substitution: 0 65534 'L026' uni0E39.alt1
EndChar
StartChar: uni0E3A
Encoding: 3642 3642 62
Width: 0
Flags: W
Fore
-90 -129 m 256,0,1
 -96 -156 -96 -156 -117 -173 c 128,-1,2
 -138 -190 -138 -190 -165 -190 c 256,3,4
 -192 -190 -192 -190 -204.5 -173 c 128,-1,5
 -217 -156 -217 -156 -211 -129 c 256,6,7
 -205 -102 -205 -102 -185.5 -86 c 128,-1,8
 -166 -70 -166 -70 -139 -70 c 256,9,10
 -112 -70 -112 -70 -98 -86 c 128,-1,11
 -84 -102 -84 -102 -90 -129 c 256,0,1
EndSplineSet
Substitution: 0 65534 'L027' c
Substitution: 0 65534 'L026' uni0E3A.alt1
Substitution: 0 65534 'L027' c
Substitution: 0 65534 'L026' uni0E3A.alt1
EndChar
StartChar: uni0E3F
Encoding: 3647 3647 63
Width: 733
Flags: W
Fore
95 33 m 1,0,1
 74 37 74 37 78 53 c 0,2,3
 84 70 84 70 103 74 c 1,4,-1
 140 74 l 1,5,6
 192 241 192 241 230 411 c 128,-1,7
 268 581 268 581 296 741 c 1,8,9
 288 735 288 735 282 734 c 128,-1,10
 276 733 276 733 271 735 c 256,11,12
 266 737 266 737 262 742 c 1,13,14
 258 753 258 753 265 762.5 c 128,-1,15
 272 772 272 772 298 786 c 0,16,17
 358 809 358 809 413 817.5 c 128,-1,18
 468 826 468 826 529 827 c 1,19,20
 550 910 550 910 554 934 c 0,21,22
 555 946 555 946 563 952 c 128,-1,23
 571 958 571 958 579.5 958 c 128,-1,24
 588 958 588 958 594 952.5 c 128,-1,25
 600 947 600 947 597 936 c 0,26,27
 595 923 595 923 589 896.5 c 128,-1,28
 583 870 583 870 572 825 c 1,29,30
 618 822 618 822 659.5 807.5 c 128,-1,31
 701 793 701 793 730.5 766.5 c 128,-1,32
 760 740 760 740 773 700.5 c 128,-1,33
 786 661 786 661 776 608 c 0,34,35
 769 572 769 572 747 540.5 c 128,-1,36
 725 509 725 509 694.5 484 c 128,-1,37
 664 459 664 459 627.5 441.5 c 128,-1,38
 591 424 591 424 555 416 c 1,39,40
 589 408 589 408 616 388.5 c 128,-1,41
 643 369 643 369 660.5 341.5 c 128,-1,42
 678 314 678 314 683.5 280.5 c 128,-1,43
 689 247 689 247 680 213 c 0,44,45
 669 157 669 157 639.5 121.5 c 128,-1,46
 610 86 610 86 569.5 65.5 c 128,-1,47
 529 45 529 45 481.5 36.5 c 128,-1,48
 434 28 434 28 386 27 c 1,49,50
 377 -12 377 -12 370.5 -37.5 c 128,-1,51
 364 -63 364 -63 360 -76 c 0,52,53
 356 -91 356 -91 334 -93 c 0,54,55
 314 -95 314 -95 317 -76 c 1,56,57
 321 -63 321 -63 327.5 -37.5 c 128,-1,58
 334 -12 334 -12 343 27 c 1,59,60
 214 33 214 33 169 33 c 1,61,62
 159 8 159 8 140 7 c 0,63,64
 122 6 122 6 130 33 c 1,65,-1
 95 33 l 1,0,1
343 770 m 1,66,67
 326 689 326 689 311 608 c 128,-1,68
 296 527 296 527 277 441.5 c 128,-1,69
 258 356 258 356 234 263 c 128,-1,70
 210 170 210 170 175 63 c 1,71,72
 256 62 256 62 299.5 61 c 128,-1,73
 343 60 343 60 350 59 c 1,74,75
 369 141 369 141 390.5 227 c 128,-1,76
 412 313 412 313 431 401 c 1,77,-1
 374 401 l 2,78,79
 349 401 349 401 353 420 c 0,80,81
 356 435 356 435 371 435 c 0,82,83
 389 435 389 435 410 436.5 c 128,-1,84
 431 438 431 438 440 436 c 1,85,86
 463 537 463 537 477.5 600 c 128,-1,87
 492 663 492 663 501 702 c 128,-1,88
 510 741 510 741 515 761.5 c 128,-1,89
 520 782 520 782 523 799 c 1,90,91
 479 799 479 799 428.5 793 c 128,-1,92
 378 787 378 787 343 770 c 1,66,67
484 438 m 1,93,94
 524 441 524 441 567 453.5 c 128,-1,95
 610 466 610 466 647.5 487.5 c 128,-1,96
 685 509 685 509 711.5 541 c 128,-1,97
 738 573 738 573 746 615 c 0,98,99
 754 661 754 661 741 692.5 c 128,-1,100
 728 724 728 724 701.5 744.5 c 128,-1,101
 675 765 675 765 638.5 776.5 c 128,-1,102
 602 788 602 788 565 795 c 1,103,-1
 484 438 l 1,93,94
393 61 m 1,104,105
 434 63 434 63 475 71 c 128,-1,106
 516 79 516 79 551 96 c 128,-1,107
 586 113 586 113 611.5 141 c 128,-1,108
 637 169 637 169 646 211 c 0,109,110
 657 259 657 259 647.5 292 c 128,-1,111
 638 325 638 325 613.5 347 c 128,-1,112
 589 369 589 369 552.5 380.5 c 128,-1,113
 516 392 516 392 473 397 c 1,114,-1
 393 61 l 1,104,105
EndSplineSet
EndChar
StartChar: uni0E40
Encoding: 3648 3648 64
Width: 360
Flags: W
Fore
243 711 m 2,0,1
 245 717 245 717 249.5 720.5 c 128,-1,2
 254 724 254 724 259 724 c 128,-1,3
 264 724 264 724 268.5 721.5 c 128,-1,4
 273 719 273 719 274 713 c 1,5,-1
 249 593 l 2,6,7
 241 550 241 550 231.5 504.5 c 128,-1,8
 222 459 222 459 212 410 c 0,9,10
 200 356 200 356 190 309 c 128,-1,11
 180 262 180 262 169 219 c 1,12,13
 189 236 189 236 222 242 c 128,-1,14
 255 248 255 248 284 238 c 128,-1,15
 313 228 313 228 330 199.5 c 128,-1,16
 347 171 347 171 336 119 c 0,17,18
 323 59 323 59 284.5 30.5 c 128,-1,19
 246 2 246 2 203 2 c 0,20,21
 150 2 150 2 128 34 c 128,-1,22
 106 66 106 66 122 143 c 2,23,-1
 243 711 l 2,0,1
151 143 m 0,24,25
 139 88 139 88 151.5 59.5 c 128,-1,26
 164 31 164 31 209 31 c 0,27,28
 242 31 242 31 271.5 53.5 c 128,-1,29
 301 76 301 76 310 119 c 0,30,31
 317 152 317 152 309 173.5 c 128,-1,32
 301 195 301 195 285 206 c 128,-1,33
 269 217 269 217 248 217.5 c 128,-1,34
 227 218 227 218 207 209.5 c 128,-1,35
 187 201 187 201 171.5 184 c 128,-1,36
 156 167 156 167 151 143 c 0,24,25
EndSplineSet
EndChar
StartChar: uni0E41
Encoding: 3649 3649 65
Width: 647
Flags: W
Fore
243 711 m 1,0,1
 248 720 248 720 260.5 721 c 128,-1,2
 273 722 273 722 274 713 c 1,3,4
 260 645 260 645 250 596.5 c 128,-1,5
 240 548 240 548 232.5 510.5 c 128,-1,6
 225 473 225 473 218.5 442 c 128,-1,7
 212 411 212 411 205 378.5 c 128,-1,8
 198 346 198 346 189.5 308 c 128,-1,9
 181 270 181 270 169 219 c 1,10,11
 213 242 213 242 260 242 c 0,12,13
 281 242 281 242 298 235.5 c 128,-1,14
 315 229 315 229 326 214 c 128,-1,15
 337 199 337 199 340 175.5 c 128,-1,16
 343 152 343 152 336 119 c 0,17,18
 323 59 323 59 284.5 30.5 c 128,-1,19
 246 2 246 2 203 2 c 0,20,21
 150 2 150 2 128 34 c 128,-1,22
 106 66 106 66 122 143 c 2,23,-1
 243 711 l 1,0,1
245 219 m 0,24,25
 215 215 215 215 186.5 196.5 c 128,-1,26
 158 178 158 178 151 143 c 0,27,28
 139 88 139 88 151.5 59.5 c 128,-1,29
 164 31 164 31 209 31 c 0,30,31
 242 31 242 31 271.5 53.5 c 128,-1,32
 301 76 301 76 310 119 c 0,33,34
 321 174 321 174 300 196.5 c 128,-1,35
 279 219 279 219 245 219 c 0,24,25
522 711 m 1,36,37
 527 720 527 720 537 720.5 c 128,-1,38
 547 721 547 721 552 713 c 1,39,40
 538 645 538 645 528 596.5 c 128,-1,41
 518 548 518 548 510.5 510.5 c 128,-1,42
 503 473 503 473 496.5 442 c 128,-1,43
 490 411 490 411 483 378.5 c 128,-1,44
 476 346 476 346 467.5 308 c 128,-1,45
 459 270 459 270 447 219 c 1,46,47
 491 242 491 242 538 242 c 0,48,49
 579 242 579 242 604 214 c 0,50,51
 629 187 629 187 615 119 c 0,52,53
 602 59 602 59 563 30.5 c 128,-1,54
 524 2 524 2 481 2 c 0,55,56
 428 2 428 2 406.5 34 c 128,-1,57
 385 66 385 66 401 143 c 2,58,-1
 522 711 l 1,36,37
523 219 m 0,59,60
 508 217 508 217 493 211.5 c 128,-1,61
 478 206 478 206 465 196.5 c 128,-1,62
 452 187 452 187 442 174 c 128,-1,63
 432 161 432 161 429 143 c 0,64,65
 417 88 417 88 429.5 59.5 c 128,-1,66
 442 31 442 31 487 31 c 0,67,68
 520 31 520 31 549.5 53.5 c 128,-1,69
 579 76 579 76 588 119 c 0,70,71
 594 146 594 146 591 165 c 128,-1,72
 588 184 588 184 579 196 c 128,-1,73
 570 208 570 208 555.5 213.5 c 128,-1,74
 541 219 541 219 523 219 c 0,59,60
EndSplineSet
EndChar
StartChar: uni0E42
Encoding: 3650 3650 66
Width: 512
Flags: W
Fore
436 739 m 2,0,1
 447 790 447 790 447 820 c 128,-1,2
 447 850 447 850 433.5 866 c 128,-1,3
 420 882 420 882 392.5 886.5 c 128,-1,4
 365 891 365 891 320 891 c 0,5,6
 252 886 252 886 213 886 c 128,-1,7
 174 886 174 886 155 891.5 c 128,-1,8
 136 897 136 897 132.5 908.5 c 128,-1,9
 129 920 129 920 133 938 c 0,10,11
 137 959 137 959 152.5 987 c 128,-1,12
 168 1015 168 1015 192 1044.5 c 128,-1,13
 216 1074 216 1074 247.5 1102 c 128,-1,14
 279 1130 279 1130 314 1152.5 c 128,-1,15
 349 1175 349 1175 387.5 1188.5 c 128,-1,16
 426 1202 426 1202 464 1202 c 0,17,18
 515 1202 515 1202 552 1188.5 c 128,-1,19
 589 1175 589 1175 615 1154.5 c 128,-1,20
 641 1134 641 1134 659 1110 c 128,-1,21
 677 1086 677 1086 689.5 1065.5 c 128,-1,22
 702 1045 702 1045 712 1031.5 c 128,-1,23
 722 1018 722 1018 732 1018 c 0,24,25
 753 1018 753 1018 759 1028 c 128,-1,26
 765 1038 765 1038 771 1055 c 0,27,28
 777 1075 777 1075 792 1075 c 0,29,30
 808 1075 808 1075 807 1059 c 0,31,32
 803 1032 803 1032 780.5 1009.5 c 128,-1,33
 758 987 758 987 727 987 c 0,34,35
 693 987 693 987 674 1014 c 0,36,37
 664 1028 664 1028 653.5 1043.5 c 128,-1,38
 643 1059 643 1059 630 1076 c 0,39,40
 607 1108 607 1108 567 1138 c 0,41,42
 528 1168 528 1168 457 1169 c 0,43,44
 426 1169 426 1169 393.5 1156 c 128,-1,45
 361 1143 361 1143 330 1123 c 128,-1,46
 299 1103 299 1103 271 1077.5 c 128,-1,47
 243 1052 243 1052 221.5 1027 c 128,-1,48
 200 1002 200 1002 186 980 c 128,-1,49
 172 958 172 958 169 944 c 0,50,51
 167 931 167 931 167.5 926.5 c 128,-1,52
 168 922 168 922 187.5 921.5 c 128,-1,53
 207 921 207 921 253.5 922.5 c 128,-1,54
 300 924 300 924 389 924 c 0,55,56
 457 924 457 924 471 876 c 0,57,58
 485 829 485 829 471 764 c 0,59,60
 447 646 447 646 428 557.5 c 128,-1,61
 409 469 409 469 394 404.5 c 128,-1,62
 379 340 379 340 368 296.5 c 128,-1,63
 357 253 357 253 350 225.5 c 128,-1,64
 343 198 343 198 338.5 183.5 c 128,-1,65
 334 169 334 169 333 162 c 1,66,67
 348 184 348 184 375 197.5 c 128,-1,68
 402 211 402 211 433 211 c 0,69,70
 476 211 476 211 495.5 189.5 c 128,-1,71
 515 168 515 168 517 139 c 128,-1,72
 519 110 519 110 507 80 c 128,-1,73
 495 50 495 50 475 34 c 0,74,75
 456 18 456 18 431.5 9 c 128,-1,76
 407 0 407 0 381 0 c 0,77,78
 358 0 358 0 338 7.5 c 128,-1,79
 318 15 318 15 305.5 29 c 128,-1,80
 293 43 293 43 288.5 64.5 c 128,-1,81
 284 86 284 86 292 115 c 2,82,-1
 436 739 l 2,0,1
393 31 m 0,83,84
 411 31 411 31 427 37.5 c 128,-1,85
 443 44 443 44 455.5 55 c 128,-1,86
 468 66 468 66 476.5 80 c 128,-1,87
 485 94 485 94 488 109 c 0,88,89
 494 139 494 139 478 160.5 c 128,-1,90
 462 182 462 182 425 182 c 0,91,92
 390 182 390 182 365 160.5 c 128,-1,93
 340 139 340 139 333 115 c 0,94,95
 310 31 310 31 393 31 c 0,83,84
EndSplineSet
EndChar
StartChar: uni0E43
Encoding: 3651 3651 67
Width: 522
Flags: W
Fore
419 27 m 0,0,1
 456 27 456 27 481 48.5 c 128,-1,2
 506 70 506 70 514 104 c 0,3,4
 520 135 520 135 504 156.5 c 128,-1,5
 488 178 488 178 451 178 c 0,6,7
 416 178 416 178 391 156.5 c 128,-1,8
 366 135 366 135 359 111 c 0,9,10
 336 27 336 27 419 27 c 0,0,1
195 969 m 0,11,12
 188 945 188 945 190.5 923 c 128,-1,13
 193 901 193 901 205 885.5 c 128,-1,14
 217 870 217 870 239.5 864 c 128,-1,15
 262 858 262 858 295 866 c 0,16,17
 314 872 314 872 330.5 883 c 128,-1,18
 347 894 347 894 359 909 c 128,-1,19
 371 924 371 924 377 941 c 128,-1,20
 383 958 383 958 381 975 c 0,21,22
 378 1014 378 1014 347.5 1032 c 128,-1,23
 317 1050 317 1050 278 1042 c 0,24,25
 251 1036 251 1036 228 1020 c 128,-1,26
 205 1004 205 1004 195 969 c 0,11,12
490 881 m 2,27,28
 506 969 506 969 512 1020 c 128,-1,29
 518 1071 518 1071 508 1092 c 0,30,31
 487 1130 487 1130 446.5 1144.5 c 128,-1,32
 406 1159 406 1159 363.5 1153.5 c 128,-1,33
 321 1148 321 1148 285 1125 c 128,-1,34
 249 1102 249 1102 236 1065 c 1,35,36
 388 1109 388 1109 419 999 c 0,37,38
 423 983 423 983 419 958 c 128,-1,39
 415 933 415 933 401.5 908 c 128,-1,40
 388 883 388 883 364.5 863 c 128,-1,41
 341 843 341 843 307 837 c 0,42,43
 267 827 267 827 238 832.5 c 128,-1,44
 209 838 209 838 190 854 c 128,-1,45
 171 870 171 870 162.5 894.5 c 128,-1,46
 154 919 154 919 156 948 c 0,47,48
 157 978 157 978 168.5 1019 c 128,-1,49
 180 1060 180 1060 208.5 1098.5 c 128,-1,50
 237 1137 237 1137 285.5 1164 c 128,-1,51
 334 1191 334 1191 409 1192 c 0,52,53
 435 1192 435 1192 458.5 1185.5 c 128,-1,54
 482 1179 482 1179 500.5 1167 c 128,-1,55
 519 1155 519 1155 531 1139.5 c 128,-1,56
 543 1124 543 1124 546 1106 c 0,57,58
 550 1080 550 1080 550 1055.5 c 128,-1,59
 550 1031 550 1031 545.5 997.5 c 128,-1,60
 541 964 541 964 532 918 c 128,-1,61
 523 872 523 872 509 805 c 0,62,63
 498 749 498 749 485 687 c 128,-1,64
 472 625 472 625 457.5 563 c 128,-1,65
 443 501 443 501 429 441 c 128,-1,66
 415 381 415 381 403 328 c 2,67,-1
 368 172 l 1,68,69
 377 184 377 184 400.5 195.5 c 128,-1,70
 424 207 424 207 459 207 c 0,71,72
 483 207 483 207 500.5 198 c 128,-1,73
 518 189 518 189 528.5 175 c 128,-1,74
 539 161 539 161 542.5 142 c 128,-1,75
 546 123 546 123 542 104 c 0,76,77
 537 83 537 83 527 63 c 128,-1,78
 517 43 517 43 500.5 27.5 c 128,-1,79
 484 12 484 12 461 3 c 128,-1,80
 438 -6 438 -6 407 -4 c 0,81,82
 383 -3 383 -3 364.5 4.5 c 128,-1,83
 346 12 346 12 334 27.5 c 128,-1,84
 322 43 322 43 319 68 c 128,-1,85
 316 93 316 93 324 129 c 2,86,-1
 490 881 l 2,27,28
EndSplineSet
EndChar
StartChar: uni0E44
Encoding: 3652 3652 68
Width: 522
Flags: W
Fore
638 1137 m 0,0,1
 613 1031 613 1031 588.5 931.5 c 128,-1,2
 564 832 564 832 538 736 c 0,3,4
 501 598 501 598 465.5 466 c 128,-1,5
 430 334 430 334 385 206 c 0,6,7
 377 185 377 185 376.5 182.5 c 128,-1,8
 376 180 376 180 384.5 185.5 c 128,-1,9
 393 191 393 191 411.5 199 c 128,-1,10
 430 207 430 207 461 207 c 0,11,12
 485 207 485 207 502.5 198 c 128,-1,13
 520 189 520 189 530.5 175 c 128,-1,14
 541 161 541 161 544 142 c 128,-1,15
 547 123 547 123 544 104 c 0,16,17
 539 76 539 76 526 56 c 128,-1,18
 513 36 513 36 494.5 22.5 c 128,-1,19
 476 9 476 9 454 2.5 c 128,-1,20
 432 -4 432 -4 409 -4 c 0,21,22
 381 -4 381 -4 362 6 c 128,-1,23
 343 16 343 16 332.5 32.5 c 128,-1,24
 322 49 322 49 319.5 71 c 128,-1,25
 317 93 317 93 321 117 c 1,26,27
 330 144 330 144 346 197.5 c 128,-1,28
 362 251 362 251 383.5 324.5 c 128,-1,29
 405 398 405 398 430.5 489 c 128,-1,30
 456 580 456 580 484 683 c 128,-1,31
 512 786 512 786 541 897.5 c 128,-1,32
 570 1009 570 1009 598 1124 c 1,33,34
 562 1082 562 1082 527 1043 c 128,-1,35
 492 1004 492 1004 462 971 c 0,36,37
 445 952 445 952 429.5 934 c 128,-1,38
 414 916 414 916 400 899 c 0,39,40
 385 885 385 885 369.5 885 c 128,-1,41
 354 885 354 885 348 895 c 2,42,-1
 214 1165 l 2,43,44
 211 1171 211 1171 214.5 1179.5 c 128,-1,45
 218 1188 218 1188 224.5 1193.5 c 128,-1,46
 231 1199 231 1199 239 1199.5 c 128,-1,47
 247 1200 247 1200 254 1190 c 1,48,-1
 378 926 l 1,49,50
 397 946 397 946 416 967 c 128,-1,51
 435 988 435 988 454 1010 c 0,52,53
 486 1047 486 1047 527 1093 c 128,-1,54
 568 1139 568 1139 605 1184 c 0,55,56
 622 1200 622 1200 632 1187 c 128,-1,57
 642 1174 642 1174 638 1137 c 0,0,1
421 27 m 0,58,59
 458 27 458 27 483 48.5 c 128,-1,60
 508 70 508 70 516 104 c 0,61,62
 522 135 522 135 506.5 157.5 c 128,-1,63
 491 180 491 180 454 180 c 0,64,65
 436 180 436 180 420 174 c 128,-1,66
 404 168 404 168 391 158.5 c 128,-1,67
 378 149 378 149 368.5 137 c 128,-1,68
 359 125 359 125 356 113 c 0,69,70
 345 71 345 71 362 49 c 128,-1,71
 379 27 379 27 421 27 c 0,58,59
EndSplineSet
EndChar
StartChar: uni0E45
Encoding: 3653 3653 69
Width: 565
Flags: W
Fore
183 535 m 1,0,1
 193 586 193 586 212 626.5 c 128,-1,2
 231 667 231 667 260.5 695.5 c 128,-1,3
 290 724 290 724 329.5 739 c 128,-1,4
 369 754 369 754 422 754 c 0,5,6
 465 754 465 754 495.5 745 c 128,-1,7
 526 736 526 736 546 720 c 128,-1,8
 566 704 566 704 576.5 681 c 128,-1,9
 587 658 587 658 592 630 c 0,10,11
 596 603 596 603 594.5 571 c 128,-1,12
 593 539 593 539 587.5 503.5 c 128,-1,13
 582 468 582 468 574 431 c 128,-1,14
 566 394 566 394 558 356 c 0,15,16
 556 344 556 344 549.5 314.5 c 128,-1,17
 543 285 543 285 534 244.5 c 128,-1,18
 525 204 525 204 514 154.5 c 128,-1,19
 503 105 503 105 492 53 c 256,20,21
 481 1 481 1 469 -53 c 128,-1,22
 457 -107 457 -107 445.5 -157 c 128,-1,23
 434 -207 434 -207 423.5 -251.5 c 128,-1,24
 413 -296 413 -296 405 -328 c 0,25,26
 404 -334 404 -334 397 -338 c 128,-1,27
 390 -342 390 -342 384 -342 c 0,28,29
 369 -342 369 -342 372 -326 c 0,30,31
 379 -291 379 -291 388.5 -247.5 c 128,-1,32
 398 -204 398 -204 408.5 -159 c 128,-1,33
 419 -114 419 -114 429 -69 c 128,-1,34
 439 -24 439 -24 447 14 c 2,35,-1
 538 437 l 2,36,37
 544 462 544 462 549 494.5 c 128,-1,38
 554 527 554 527 555.5 559.5 c 128,-1,39
 557 592 557 592 552.5 622 c 128,-1,40
 548 652 548 652 534 673 c 0,41,42
 520 695 520 695 490 710 c 128,-1,43
 460 725 460 725 422 725 c 0,44,45
 334 725 334 725 286 679 c 128,-1,46
 238 633 238 633 212 539 c 1,47,48
 204 525 204 525 195.5 527.5 c 128,-1,49
 187 530 187 530 183 535 c 1,0,1
EndSplineSet
EndChar
StartChar: uni0E46
Encoding: 3654 3654 70
Width: 637
Flags: W
Fore
657 530 m 0,0,1
 641 440 641 440 627.5 364 c 128,-1,2
 614 288 614 288 600 216.5 c 128,-1,3
 586 145 586 145 570 74.5 c 128,-1,4
 554 4 554 4 534 -75 c 0,5,6
 521 -126 521 -126 506.5 -181 c 128,-1,7
 492 -236 492 -236 475 -297 c 0,8,9
 473 -303 473 -303 469.5 -312 c 128,-1,10
 466 -321 466 -321 455 -326 c 256,11,12
 444 -331 444 -331 436 -327.5 c 128,-1,13
 428 -324 428 -324 426 -317 c 1,14,15
 442 -271 442 -271 460 -207 c 128,-1,16
 478 -143 478 -143 496.5 -69 c 128,-1,17
 515 5 515 5 533 84.5 c 128,-1,18
 551 164 551 164 567 242 c 128,-1,19
 583 320 583 320 597 392.5 c 128,-1,20
 611 465 611 465 621 524 c 0,21,22
 625 544 625 544 627.5 570 c 128,-1,23
 630 596 630 596 626 619.5 c 128,-1,24
 622 643 622 643 610.5 660 c 128,-1,25
 599 677 599 677 574 680 c 256,26,27
 549 683 549 683 530 667.5 c 128,-1,28
 511 652 511 652 497.5 628.5 c 128,-1,29
 484 605 484 605 474 579.5 c 128,-1,30
 464 554 464 554 457 537 c 0,31,32
 454 531 454 531 448 529.5 c 128,-1,33
 442 528 442 528 436 529 c 128,-1,34
 430 530 430 530 425.5 533.5 c 128,-1,35
 421 537 421 537 420 543 c 1,36,37
 426 574 426 574 422 600.5 c 128,-1,38
 418 627 418 627 407 646 c 128,-1,39
 396 665 396 665 379.5 675.5 c 128,-1,40
 363 686 363 686 345 686 c 256,41,42
 327 686 327 686 307.5 669.5 c 128,-1,43
 288 653 288 653 271 630 c 128,-1,44
 254 607 254 607 242 580.5 c 128,-1,45
 230 554 230 554 226 535 c 1,46,47
 242 546 242 546 263.5 548 c 128,-1,48
 285 550 285 550 303.5 542.5 c 128,-1,49
 322 535 322 535 334 517 c 128,-1,50
 346 499 346 499 344 471 c 0,51,52
 342 449 342 449 332.5 432.5 c 128,-1,53
 323 416 323 416 308 405.5 c 128,-1,54
 293 395 293 395 274 389.5 c 128,-1,55
 255 384 255 384 235 385 c 0,56,57
 205 390 205 390 193.5 416.5 c 128,-1,58
 182 443 182 443 184 479.5 c 128,-1,59
 186 516 186 516 200.5 558 c 128,-1,60
 215 600 215 600 237.5 636 c 128,-1,61
 260 672 260 672 288 696 c 128,-1,62
 316 720 316 720 346 721 c 0,63,64
 394 723 394 723 419.5 691.5 c 128,-1,65
 445 660 445 660 452 612 c 1,66,67
 457 632 457 632 470 652 c 128,-1,68
 483 672 483 672 500.5 688 c 128,-1,69
 518 704 518 704 539.5 714 c 128,-1,70
 561 724 561 724 583 723 c 0,71,72
 607 722 607 722 624.5 707.5 c 128,-1,73
 642 693 642 693 651.5 667.5 c 128,-1,74
 661 642 661 642 663 607 c 128,-1,75
 665 572 665 572 657 530 c 0,0,1
312 467 m 0,76,77
 315 483 315 483 307 499.5 c 128,-1,78
 299 516 299 516 270 518 c 0,79,80
 247 518 247 518 231.5 502 c 128,-1,81
 216 486 216 486 211.5 467 c 128,-1,82
 207 448 207 448 215.5 432 c 128,-1,83
 224 416 224 416 250 416 c 0,84,85
 255 416 255 416 263.5 418 c 128,-1,86
 272 420 272 420 281.5 425.5 c 128,-1,87
 291 431 291 431 299 441 c 128,-1,88
 307 451 307 451 312 467 c 0,76,77
EndSplineSet
EndChar
StartChar: uni0E47
Encoding: 3655 3655 71
Width: 0
Flags: W
Fore
-40 928 m 1,0,1
 -72 921 -72 921 -85.5 929.5 c 128,-1,2
 -99 938 -99 938 -104 948 c 0,3,4
 -113 968 -113 968 -108 989 c 0,5,6
 -104 1010 -104 1010 -82.5 1027.5 c 128,-1,7
 -61 1045 -61 1045 -36 1044 c 0,8,9
 -13 1043 -13 1043 2 1027 c 128,-1,10
 17 1011 17 1011 11 979 c 0,11,12
 7 960 7 960 -3.5 939 c 128,-1,13
 -14 918 -14 918 -28.5 900 c 128,-1,14
 -43 882 -43 882 -60.5 870 c 128,-1,15
 -78 858 -78 858 -96 858 c 256,16,17
 -114 858 -114 858 -125.5 871 c 128,-1,18
 -137 884 -137 884 -147.5 900 c 128,-1,19
 -158 916 -158 916 -169.5 929 c 128,-1,20
 -181 942 -181 942 -200 942 c 0,21,22
 -208 942 -208 942 -221.5 930 c 128,-1,23
 -235 918 -235 918 -249.5 904 c 128,-1,24
 -264 890 -264 890 -278.5 878 c 128,-1,25
 -293 866 -293 866 -304 866 c 0,26,27
 -318 866 -318 866 -330 879.5 c 128,-1,28
 -342 893 -342 893 -350 915.5 c 128,-1,29
 -358 938 -358 938 -360.5 966.5 c 128,-1,30
 -363 995 -363 995 -356 1026 c 0,31,32
 -348 1066 -348 1066 -324.5 1095.5 c 128,-1,33
 -301 1125 -301 1125 -270.5 1144.5 c 128,-1,34
 -240 1164 -240 1164 -208 1173.5 c 128,-1,35
 -176 1183 -176 1183 -151 1184 c 0,36,37
 -126 1184 -126 1184 -108.5 1181 c 128,-1,38
 -91 1178 -91 1178 -76 1171.5 c 128,-1,39
 -61 1165 -61 1165 -46.5 1154 c 128,-1,40
 -32 1143 -32 1143 -12 1128 c 1,41,42
 9 1133 9 1133 27 1155.5 c 128,-1,43
 45 1178 45 1178 52 1212 c 0,44,45
 57 1235 57 1235 57 1258.5 c 128,-1,46
 57 1282 57 1282 48 1298 c 1,47,48
 46 1314 46 1314 57 1319 c 128,-1,49
 68 1324 68 1324 80 1313 c 1,50,51
 91 1296 91 1296 90.5 1269.5 c 128,-1,52
 90 1243 90 1243 84 1214 c 0,53,54
 73 1167 73 1167 42 1131 c 0,55,56
 10 1096 10 1096 -27 1096 c 1,57,58
 -45 1110 -45 1110 -58 1121.5 c 128,-1,59
 -71 1133 -71 1133 -85 1140.5 c 128,-1,60
 -99 1148 -99 1148 -115.5 1151.5 c 128,-1,61
 -132 1155 -132 1155 -157 1153 c 256,62,63
 -182 1151 -182 1151 -209 1140.5 c 128,-1,64
 -236 1130 -236 1130 -260 1113.5 c 128,-1,65
 -284 1097 -284 1097 -301.5 1074.5 c 128,-1,66
 -319 1052 -319 1052 -326 1026 c 0,67,68
 -335 986 -335 986 -329.5 954 c 128,-1,69
 -324 922 -324 922 -300 901 c 1,70,71
 -294 901 -294 901 -283 912 c 128,-1,72
 -272 923 -272 923 -258 936.5 c 128,-1,73
 -244 950 -244 950 -227 962.5 c 128,-1,74
 -210 975 -210 975 -192 979 c 1,75,76
 -174 977 -174 977 -159 962.5 c 128,-1,77
 -144 948 -144 948 -131.5 931.5 c 128,-1,78
 -119 915 -119 915 -108 902 c 128,-1,79
 -97 889 -97 889 -87 889 c 0,80,81
 -81 889 -81 889 -73.5 893 c 128,-1,82
 -66 897 -66 897 -59 903 c 128,-1,83
 -52 909 -52 909 -46.5 915.5 c 128,-1,84
 -41 922 -41 922 -40 928 c 1,0,1
-37 1018 m 1,85,86
 -57 1018 -57 1018 -68 1006.5 c 128,-1,87
 -79 995 -79 995 -80 989 c 0,88,89
 -83 977 -83 977 -76 965.5 c 128,-1,90
 -69 954 -69 954 -53 954 c 0,91,92
 -41 954 -41 954 -29.5 962.5 c 128,-1,93
 -18 971 -18 971 -14 981 c 1,94,95
 -11 997 -11 997 -19.5 1006.5 c 128,-1,96
 -28 1016 -28 1016 -37 1018 c 1,85,86
EndSplineSet
Substitution: 0 65534 'L026' uni0E47.alt1
Substitution: 0 65534 'L026' uni0E47.alt1
EndChar
StartChar: uni0E48
Encoding: 3656 3656 72
Width: 0
Flags: W
Fore
148 1509 m 1,0,1
 155 1515 155 1515 165.5 1516 c 128,-1,2
 176 1517 176 1517 181 1509 c 1,3,-1
 130 1268 l 1,4,5
 122 1257 122 1257 111 1257 c 0,6,7
 102 1257 102 1257 97 1268 c 1,8,-1
 148 1509 l 1,0,1
EndSplineSet
Substitution: 0 65534 'L026' uni0E48.alt2
Substitution: 0 65534 'L026' uni0E48.alt2
EndChar
StartChar: uni0E49
Encoding: 3657 3657 73
Width: 0
Flags: W
Fore
-43 1276 m 0,0,1
 32 1290 32 1290 86 1309.5 c 128,-1,2
 140 1329 140 1329 180.5 1360 c 128,-1,3
 221 1391 221 1391 252.5 1438 c 128,-1,4
 284 1485 284 1485 314 1554 c 0,5,6
 320 1566 320 1566 331.5 1567.5 c 128,-1,7
 343 1569 343 1569 342 1556 c 1,8,9
 318 1471 318 1471 277.5 1416.5 c 128,-1,10
 237 1362 237 1362 186.5 1328.5 c 128,-1,11
 136 1295 136 1295 80 1278.5 c 128,-1,12
 24 1262 24 1262 -30 1253 c 0,13,14
 -60 1249 -60 1249 -76.5 1255.5 c 128,-1,15
 -93 1262 -93 1262 -85 1273 c 0,16,17
 -71 1291 -71 1291 -57 1307 c 128,-1,18
 -43 1323 -43 1323 -26 1339 c 0,19,20
 -10 1354 -10 1354 5 1374.5 c 128,-1,21
 20 1395 20 1395 36 1421 c 1,22,23
 15 1410 15 1410 -7 1408.5 c 128,-1,24
 -29 1407 -29 1407 -45.5 1415 c 128,-1,25
 -62 1423 -62 1423 -70.5 1440.5 c 128,-1,26
 -79 1458 -79 1458 -73 1485 c 0,27,28
 -67 1513 -67 1513 -42.5 1536 c 128,-1,29
 -18 1559 -18 1559 17 1563 c 0,30,31
 57 1567 57 1567 77 1546.5 c 128,-1,32
 97 1526 97 1526 91 1491 c 0,33,34
 86 1458 86 1458 71.5 1429.5 c 128,-1,35
 57 1401 57 1401 39 1377 c 128,-1,36
 21 1353 21 1353 3 1334 c 128,-1,37
 -15 1315 -15 1315 -28.5 1302 c 128,-1,38
 -42 1289 -42 1289 -47 1282 c 128,-1,39
 -52 1275 -52 1275 -43 1276 c 0,0,1
-48 1487 m 0,40,41
 -53 1462 -53 1462 -41 1445 c 128,-1,42
 -29 1428 -29 1428 -2 1432 c 0,43,44
 20 1435 20 1435 40.5 1450.5 c 128,-1,45
 61 1466 61 1466 66 1489 c 0,46,47
 67 1497 67 1497 66.5 1506 c 128,-1,48
 66 1515 66 1515 61 1522.5 c 128,-1,49
 56 1530 56 1530 46 1535 c 128,-1,50
 36 1540 36 1540 20 1540 c 0,51,52
 -2 1540 -2 1540 -22.5 1525.5 c 128,-1,53
 -43 1511 -43 1511 -48 1487 c 0,40,41
EndSplineSet
Substitution: 0 65534 'L026' uni0E49.alt2
Substitution: 0 65534 'L026' uni0E49.alt2
EndChar
StartChar: uni0E4A
Encoding: 3658 3658 74
Width: 0
Flags: W
Fore
136 1257 m 1,0,1
 151 1270 151 1270 165 1290.5 c 128,-1,2
 179 1311 179 1311 191 1335 c 128,-1,3
 203 1359 203 1359 212 1385.5 c 128,-1,4
 221 1412 221 1412 227 1438 c 0,5,6
 236 1481 236 1481 235.5 1529.5 c 128,-1,7
 235 1578 235 1578 221 1620 c 1,8,9
 218 1625 218 1625 220 1630 c 128,-1,10
 222 1635 222 1635 227 1637 c 128,-1,11
 232 1639 232 1639 238.5 1638 c 128,-1,12
 245 1637 245 1637 252 1630 c 1,13,14
 270 1602 270 1602 272.5 1550 c 128,-1,15
 275 1498 275 1498 262 1438 c 0,16,17
 248 1372 248 1372 213.5 1314.5 c 128,-1,18
 179 1257 179 1257 133 1225 c 0,19,20
 122 1219 122 1219 110 1223 c 128,-1,21
 98 1227 98 1227 100 1243 c 1,22,23
 112 1258 112 1258 121.5 1283 c 128,-1,24
 131 1308 131 1308 137 1335.5 c 128,-1,25
 143 1363 143 1363 145.5 1391 c 128,-1,26
 148 1419 148 1419 144.5 1442 c 128,-1,27
 141 1465 141 1465 131 1479 c 128,-1,28
 121 1493 121 1493 104 1493 c 0,29,30
 88 1493 88 1493 72 1477.5 c 128,-1,31
 56 1462 56 1462 41.5 1438.5 c 128,-1,32
 27 1415 27 1415 16 1386.5 c 128,-1,33
 5 1358 5 1358 -2 1331 c 0,34,35
 -9 1313 -9 1313 -20 1315 c 128,-1,36
 -31 1317 -31 1317 -28 1329 c 0,37,38
 -21 1360 -21 1360 -23 1390 c 128,-1,39
 -25 1420 -25 1420 -33.5 1443.5 c 128,-1,40
 -42 1467 -42 1467 -54.5 1481 c 128,-1,41
 -67 1495 -67 1495 -81 1495 c 0,42,43
 -101 1495 -101 1495 -118 1476.5 c 128,-1,44
 -135 1458 -135 1458 -147.5 1431.5 c 128,-1,45
 -160 1405 -160 1405 -169 1375.5 c 128,-1,46
 -178 1346 -178 1346 -183 1325 c 1,47,48
 -168 1334 -168 1334 -150 1334.5 c 128,-1,49
 -132 1335 -132 1335 -117.5 1327.5 c 128,-1,50
 -103 1320 -103 1320 -95 1305.5 c 128,-1,51
 -87 1291 -87 1291 -92 1270 c 0,52,53
 -98 1239 -98 1239 -118.5 1225.5 c 128,-1,54
 -139 1212 -139 1212 -168 1210 c 0,55,56
 -182 1210 -182 1210 -194.5 1214 c 128,-1,57
 -207 1218 -207 1218 -215 1231.5 c 128,-1,58
 -223 1245 -223 1245 -223.5 1271 c 128,-1,59
 -224 1297 -224 1297 -214 1341 c 0,60,61
 -208 1371 -208 1371 -194.5 1403.5 c 128,-1,62
 -181 1436 -181 1436 -162.5 1463.5 c 128,-1,63
 -144 1491 -144 1491 -121 1508.5 c 128,-1,64
 -98 1526 -98 1526 -74 1526 c 0,65,66
 -60 1526 -60 1526 -47.5 1517.5 c 128,-1,67
 -35 1509 -35 1509 -24.5 1495 c 128,-1,68
 -14 1481 -14 1481 -7.5 1462.5 c 128,-1,69
 -1 1444 -1 1444 1 1423 c 1,70,71
 11 1443 11 1443 24.5 1463 c 128,-1,72
 38 1483 38 1483 53 1498 c 128,-1,73
 68 1513 68 1513 82.5 1521.5 c 128,-1,74
 97 1530 97 1530 109 1528 c 0,75,76
 129 1526 129 1526 144.5 1512.5 c 128,-1,77
 160 1499 160 1499 168 1472 c 0,78,79
 184 1417 184 1417 172 1360 c 128,-1,80
 160 1303 160 1303 136 1257 c 1,0,1
-119 1270 m 1,81,82
 -116 1289 -116 1289 -125.5 1296 c 128,-1,83
 -135 1303 -135 1303 -148 1301.5 c 128,-1,84
 -161 1300 -161 1300 -174 1291.5 c 128,-1,85
 -187 1283 -187 1283 -191 1270 c 0,86,87
 -199 1237 -199 1237 -163 1237 c 0,88,89
 -153 1237 -153 1237 -139 1244 c 128,-1,90
 -125 1251 -125 1251 -119 1270 c 1,81,82
EndSplineSet
Substitution: 0 65534 'L026' uni0E4A.alt2
Substitution: 0 65534 'L026' uni0E4A.alt2
EndChar
StartChar: uni0E4B
Encoding: 3659 3659 75
Width: 0
Flags: W
Fore
112 1415 m 1,0,1
 114 1432 114 1432 119 1455.5 c 128,-1,2
 124 1479 124 1479 140 1546 c 0,3,4
 147 1564 147 1564 164 1562.5 c 128,-1,5
 181 1561 181 1561 178 1546 c 0,6,7
 159 1477 159 1477 154.5 1454.5 c 128,-1,8
 150 1432 150 1432 148 1415 c 1,9,10
 177 1415 177 1415 190.5 1415 c 128,-1,11
 204 1415 204 1415 214 1415 c 128,-1,12
 224 1415 224 1415 236 1416 c 128,-1,13
 248 1417 248 1417 273 1421 c 0,14,15
 286 1425 286 1425 289.5 1416 c 128,-1,16
 293 1407 293 1407 288 1397 c 0,17,18
 283 1389 283 1389 263.5 1385.5 c 128,-1,19
 244 1382 244 1382 221.5 1381 c 128,-1,20
 199 1380 199 1380 176.5 1381 c 128,-1,21
 154 1382 154 1382 143 1382 c 1,22,23
 116 1274 116 1274 111 1249 c 0,24,25
 108 1233 108 1233 92 1234 c 128,-1,26
 76 1235 76 1235 80 1253 c 2,27,-1
 107 1380 l 1,28,-1
 -31 1384 l 2,29,30
 -45 1386 -45 1386 -41.5 1402.5 c 128,-1,31
 -38 1419 -38 1419 -24 1419 c 2,32,-1
 112 1415 l 1,0,1
EndSplineSet
Substitution: 0 65534 'L026' uni0E4B.alt2
Substitution: 0 65534 'L026' uni0E4B.alt2
EndChar
StartChar: uni0E4C
Encoding: 3660 3660 76
Width: 0
Flags: W
Fore
24 1234 m 0,0,1
 52 1240 52 1240 67.5 1264 c 128,-1,2
 83 1288 83 1288 83.5 1312 c 128,-1,3
 84 1336 84 1336 67 1351 c 128,-1,4
 50 1366 50 1366 13 1354 c 0,5,6
 -19 1340 -19 1340 -34.5 1316 c 128,-1,7
 -50 1292 -50 1292 -49.5 1271 c 128,-1,8
 -49 1250 -49 1250 -30.5 1237.5 c 128,-1,9
 -12 1225 -12 1225 24 1234 c 0,0,1
18 1384 m 0,10,11
 36 1389 36 1389 54 1387 c 128,-1,12
 72 1385 72 1385 86 1376.5 c 128,-1,13
 100 1368 100 1368 109 1354 c 128,-1,14
 118 1340 118 1340 118 1321 c 0,15,16
 118 1286 118 1286 100.5 1258 c 128,-1,17
 83 1230 83 1230 56.5 1214.5 c 128,-1,18
 30 1199 30 1199 -1.5 1198.5 c 128,-1,19
 -33 1198 -33 1198 -60 1218 c 0,20,21
 -79 1232 -79 1232 -86.5 1252.5 c 128,-1,22
 -94 1273 -94 1273 -95 1298 c 1,23,24
 -87 1359 -87 1359 -56.5 1410.5 c 128,-1,25
 -26 1462 -26 1462 25.5 1494 c 128,-1,26
 77 1526 77 1526 148 1533.5 c 128,-1,27
 219 1541 219 1541 308 1516 c 1,28,29
 318 1506 318 1506 313.5 1497 c 128,-1,30
 309 1488 309 1488 294 1493 c 0,31,32
 240 1513 240 1513 179.5 1511 c 128,-1,33
 119 1509 119 1509 66.5 1484.5 c 128,-1,34
 14 1460 14 1460 -23.5 1413.5 c 128,-1,35
 -61 1367 -61 1367 -70 1298 c 1,36,37
 -58 1327 -58 1327 -37.5 1351 c 128,-1,38
 -17 1375 -17 1375 18 1384 c 0,10,11
EndSplineSet
Substitution: 0 65534 'L026' uni0E4C.alt2
Substitution: 0 65534 'L026' uni0E4C.alt2
EndChar
StartChar: uni0E4D
Encoding: 3661 3661 77
Width: 0
Flags: W
Fore
90 1059 m 256,0,1
 132 1059 132 1059 152 1033 c 128,-1,2
 172 1007 172 1007 164 965 c 0,3,4
 159 944 159 944 148 927 c 128,-1,5
 137 910 137 910 121 898 c 128,-1,6
 105 886 105 886 86.5 879 c 128,-1,7
 68 872 68 872 50 872 c 0,8,9
 13 872 13 872 -9.5 897.5 c 128,-1,10
 -32 923 -32 923 -23 965 c 0,11,12
 -15 1007 -15 1007 16.5 1033 c 128,-1,13
 48 1059 48 1059 90 1059 c 256,0,1
83 1028 m 0,14,15
 73 1029 73 1029 60.5 1024.5 c 128,-1,16
 48 1020 48 1020 36.5 1011.5 c 128,-1,17
 25 1003 25 1003 16 991 c 128,-1,18
 7 979 7 979 4 965 c 0,19,20
 -2 936 -2 936 12.5 918.5 c 128,-1,21
 27 901 27 901 56 901 c 256,22,23
 85 901 85 901 106.5 918.5 c 128,-1,24
 128 936 128 936 135 965 c 0,25,26
 141 993 141 993 126.5 1010.5 c 128,-1,27
 112 1028 112 1028 83 1028 c 0,14,15
EndSplineSet
Substitution: 0 65534 'L026' uni0E4D.alt1
Substitution: 0 65534 'L026' uni0E4D.alt1
EndChar
StartChar: uni0E4E
Encoding: 3662 3662 78
Width: 0
Flags: W
Fore
132 1213 m 0,0,1
 119 1230 119 1230 101.5 1234.5 c 128,-1,2
 84 1239 84 1239 68 1233 c 0,3,4
 51 1227 51 1227 38 1213.5 c 128,-1,5
 25 1200 25 1200 17 1180 c 0,6,7
 9 1157 9 1157 20 1135.5 c 128,-1,8
 31 1114 31 1114 65 1110 c 1,9,10
 75 1107 75 1107 77 1101.5 c 128,-1,11
 79 1096 79 1096 76.5 1091 c 128,-1,12
 74 1086 74 1086 67.5 1081.5 c 128,-1,13
 61 1077 61 1077 54 1077 c 0,14,15
 6 1073 6 1073 -25.5 1045.5 c 128,-1,16
 -57 1018 -57 1018 -64 987 c 0,17,18
 -70 956 -70 956 -57 932.5 c 128,-1,19
 -44 909 -44 909 -8 907 c 0,20,21
 25 902 25 902 58 928 c 0,22,23
 67 934 67 934 75 932.5 c 128,-1,24
 83 931 83 931 86.5 925 c 128,-1,25
 90 919 90 919 89 910.5 c 128,-1,26
 88 902 88 902 81 895 c 1,27,28
 38 864 38 864 -9 864 c 0,29,30
 -62 864 -62 864 -94 902 c 0,31,32
 -126 939 -126 939 -106 1001 c 0,33,34
 -95 1032 -95 1032 -71 1061 c 128,-1,35
 -47 1090 -47 1090 -13 1102 c 1,36,37
 -28 1118 -28 1118 -30.5 1137.5 c 128,-1,38
 -33 1157 -33 1157 -30 1171 c 0,39,40
 -25 1193 -25 1193 -12 1212 c 128,-1,41
 1 1231 1 1231 19 1245.5 c 128,-1,42
 37 1260 37 1260 58 1268 c 128,-1,43
 79 1276 79 1276 99 1276 c 0,44,45
 115 1276 115 1276 132 1269 c 128,-1,46
 149 1262 149 1262 163 1247 c 0,47,48
 170 1240 170 1240 168.5 1230.5 c 128,-1,49
 167 1221 167 1221 161.5 1214.5 c 128,-1,50
 156 1208 156 1208 147.5 1206.5 c 128,-1,51
 139 1205 139 1205 132 1213 c 0,0,1
EndSplineSet
Substitution: 0 65534 'L026' uni0E4E.alt1
Substitution: 0 65534 'L026' uni0E4E.alt1
EndChar
StartChar: uni0E4F
Encoding: 3663 3663 79
Width: 922
Flags: W
Fore
582 631 m 0,0,1
 645 631 645 631 695.5 609.5 c 128,-1,2
 746 588 746 588 779 551 c 128,-1,3
 812 514 812 514 824.5 464 c 128,-1,4
 837 414 837 414 824 358 c 256,5,6
 811 302 811 302 775.5 252.5 c 128,-1,7
 740 203 740 203 690 166 c 128,-1,8
 640 129 640 129 580 107.5 c 128,-1,9
 520 86 520 86 457 86 c 0,10,11
 395 86 395 86 344.5 107.5 c 128,-1,12
 294 129 294 129 261.5 166 c 128,-1,13
 229 203 229 203 216 252.5 c 128,-1,14
 203 302 203 302 216 358 c 256,15,16
 229 414 229 414 264.5 464 c 128,-1,17
 300 514 300 514 350 551 c 128,-1,18
 400 588 400 588 460 609.5 c 128,-1,19
 520 631 520 631 582 631 c 0,0,1
466 127 m 256,20,21
 519 127 519 127 570 145 c 128,-1,22
 621 163 621 163 663.5 194 c 128,-1,23
 706 225 706 225 736 267.5 c 128,-1,24
 766 310 766 310 777 358 c 0,25,26
 789 407 789 407 778 449.5 c 128,-1,27
 767 492 767 492 739.5 523 c 128,-1,28
 712 554 712 554 669 572 c 128,-1,29
 626 590 626 590 573 590 c 256,30,31
 520 590 520 590 469.5 572 c 128,-1,32
 419 554 419 554 377 523 c 128,-1,33
 335 492 335 492 305 449.5 c 128,-1,34
 275 407 275 407 263 358 c 0,35,36
 252 310 252 310 262.5 267.5 c 128,-1,37
 273 225 273 225 300.5 194 c 128,-1,38
 328 163 328 163 370.5 145 c 128,-1,39
 413 127 413 127 466 127 c 256,20,21
547 477 m 0,40,41
 521 477 521 477 495 468.5 c 128,-1,42
 469 460 469 460 446.5 444.5 c 128,-1,43
 424 429 424 429 407.5 407 c 128,-1,44
 391 385 391 385 385 358 c 256,45,46
 379 331 379 331 385.5 309 c 128,-1,47
 392 287 392 287 407 272 c 128,-1,48
 422 257 422 257 444 248.5 c 128,-1,49
 466 240 466 240 492 240 c 0,50,51
 520 240 520 240 547 249 c 128,-1,52
 574 258 574 258 596 273.5 c 128,-1,53
 618 289 618 289 633 310.5 c 128,-1,54
 648 332 648 332 654 358 c 256,55,56
 660 384 660 384 654.5 406 c 128,-1,57
 649 428 649 428 635 443.5 c 128,-1,58
 621 459 621 459 598 468 c 128,-1,59
 575 477 575 477 547 477 c 0,40,41
536 428 m 0,60,61
 571 428 571 428 589 409 c 128,-1,62
 607 390 607 390 599 358 c 0,63,64
 592 326 592 326 565 307.5 c 128,-1,65
 538 289 538 289 503 289 c 0,66,67
 471 289 471 289 450.5 306.5 c 128,-1,68
 430 324 430 324 438 358 c 256,69,70
 446 392 446 392 475 410 c 128,-1,71
 504 428 504 428 536 428 c 0,60,61
EndSplineSet
EndChar
StartChar: uni0E50
Encoding: 3664 3664 80
Width: 686
Flags: W
Fore
670 289 m 0,0,1
 660 241 660 241 632.5 192.5 c 128,-1,2
 605 144 605 144 562.5 106 c 128,-1,3
 520 68 520 68 464 44 c 128,-1,4
 408 20 408 20 342 20 c 0,5,6
 271 20 271 20 222 44.5 c 128,-1,7
 173 69 173 69 145.5 108 c 128,-1,8
 118 147 118 147 110.5 196 c 128,-1,9
 103 245 103 245 115 293 c 0,10,11
 125 341 125 341 153.5 389 c 128,-1,12
 182 437 182 437 226.5 475 c 128,-1,13
 271 513 271 513 330.5 537 c 128,-1,14
 390 561 390 561 462 561 c 0,15,16
 532 561 532 561 577.5 534.5 c 128,-1,17
 623 508 623 508 647 468 c 128,-1,18
 671 428 671 428 675.5 380 c 128,-1,19
 680 332 680 332 670 289 c 0,0,1
636 289 m 0,20,21
 644 329 644 329 638.5 371 c 128,-1,22
 633 413 633 413 611.5 447.5 c 128,-1,23
 590 482 590 482 551 504 c 128,-1,24
 512 526 512 526 454 526 c 0,25,26
 398 526 398 526 348 507.5 c 128,-1,27
 298 489 298 489 257.5 458.5 c 128,-1,28
 217 428 217 428 189.5 387 c 128,-1,29
 162 346 162 346 152 301 c 0,30,31
 141 252 141 252 148.5 207 c 128,-1,32
 156 162 156 162 181.5 128 c 128,-1,33
 207 94 207 94 249 73.5 c 128,-1,34
 291 53 291 53 349 53 c 0,35,36
 399 53 399 53 445.5 71.5 c 128,-1,37
 492 90 492 90 530.5 122.5 c 128,-1,38
 569 155 569 155 596.5 198 c 128,-1,39
 624 241 624 241 636 289 c 0,20,21
EndSplineSet
EndChar
StartChar: uni0E51
Encoding: 3665 3665 81
Width: 680
Flags: W
Fore
366 197 m 1,0,1
 349 200 349 200 329.5 207.5 c 128,-1,2
 310 215 310 215 299 229 c 0,3,4
 277 258 277 258 286.5 296 c 128,-1,5
 296 334 296 334 334 365 c 0,6,7
 360 385 360 385 390.5 391 c 128,-1,8
 421 397 421 397 447.5 389 c 128,-1,9
 474 381 474 381 490.5 358.5 c 128,-1,10
 507 336 507 336 504 299 c 0,11,12
 502 267 502 267 482.5 239.5 c 128,-1,13
 463 212 463 212 433.5 191 c 128,-1,14
 404 170 404 170 367.5 158 c 128,-1,15
 331 146 331 146 294 146 c 128,-1,16
 257 146 257 146 223 159.5 c 128,-1,17
 189 173 189 173 165 203 c 0,18,19
 136 245 136 245 132.5 290.5 c 128,-1,20
 129 336 129 336 144.5 378.5 c 128,-1,21
 160 421 160 421 192 459.5 c 128,-1,22
 224 498 224 498 266.5 526 c 128,-1,23
 309 554 309 554 358.5 570 c 128,-1,24
 408 586 408 586 458.5 583.5 c 128,-1,25
 509 581 509 581 557.5 559 c 128,-1,26
 606 537 606 537 647 489 c 0,27,28
 674 454 674 454 680.5 403.5 c 128,-1,29
 687 353 687 353 675.5 300 c 128,-1,30
 664 247 664 247 635 196.5 c 128,-1,31
 606 146 606 146 563 111 c 0,32,33
 511 68 511 68 449 42.5 c 128,-1,34
 387 17 387 17 327 12.5 c 128,-1,35
 267 8 267 8 214.5 24.5 c 128,-1,36
 162 41 162 41 129 82 c 0,37,38
 123 89 123 89 124.5 97 c 128,-1,39
 126 105 126 105 131 110 c 128,-1,40
 136 115 136 115 143.5 115.5 c 128,-1,41
 151 116 151 116 158 109 c 0,42,43
 191 73 191 73 236.5 59.5 c 128,-1,44
 282 46 282 46 332 51.5 c 128,-1,45
 382 57 382 57 433 77.5 c 128,-1,46
 484 98 484 98 526 129 c 0,47,48
 567 162 567 162 595.5 206 c 128,-1,49
 624 250 624 250 636.5 296.5 c 128,-1,50
 649 343 649 343 644 387.5 c 128,-1,51
 639 432 639 432 614 465 c 0,52,53
 576 515 576 515 522.5 532 c 128,-1,54
 469 549 469 549 413 541 c 128,-1,55
 357 533 357 533 305 504 c 128,-1,56
 253 475 253 475 219 433 c 128,-1,57
 185 391 185 391 175 339.5 c 128,-1,58
 165 288 165 288 192 236 c 1,59,60
 213 209 213 209 235 196.5 c 128,-1,61
 257 184 257 184 279 181 c 128,-1,62
 301 178 301 178 323 183 c 128,-1,63
 345 188 345 188 366 197 c 1,0,1
329 248 m 0,64,65
 350 225 350 225 378 226.5 c 128,-1,66
 406 228 406 228 429 244 c 0,67,68
 472 278 472 278 470 308 c 0,69,70
 469 332 469 332 457 346.5 c 128,-1,71
 445 361 445 361 428 365.5 c 128,-1,72
 411 370 411 370 390.5 365 c 128,-1,73
 370 360 370 360 351 344 c 0,74,75
 326 324 326 324 319 296.5 c 128,-1,76
 312 269 312 269 329 248 c 0,64,65
EndSplineSet
EndChar
StartChar: uni0E52
Encoding: 3666 3666 82
Width: 795
Flags: W
Fore
504 328 m 1,0,1
 497 359 497 359 488 393.5 c 128,-1,2
 479 428 479 428 466.5 457 c 128,-1,3
 454 486 454 486 436.5 505 c 128,-1,4
 419 524 419 524 394 524 c 0,5,6
 368 524 368 524 346.5 500.5 c 128,-1,7
 325 477 325 477 307.5 442.5 c 128,-1,8
 290 408 290 408 277 369 c 128,-1,9
 264 330 264 330 257 299 c 2,10,-1
 253 281 l 1,11,12
 267 305 267 305 297 321.5 c 128,-1,13
 327 338 327 338 362 338 c 0,14,15
 378 338 378 338 395 333.5 c 128,-1,16
 412 329 412 329 425 318.5 c 128,-1,17
 438 308 438 308 444.5 291 c 128,-1,18
 451 274 451 274 446 250 c 0,19,20
 439 216 439 216 406 182 c 0,21,22
 374 150 374 150 320 150 c 0,23,24
 260 150 260 150 233.5 184.5 c 128,-1,25
 207 219 207 219 222 291 c 0,26,27
 232 325 232 325 247 370.5 c 128,-1,28
 262 416 262 416 283.5 457 c 128,-1,29
 305 498 305 498 333.5 526.5 c 128,-1,30
 362 555 362 555 398 555 c 0,31,32
 427 555 427 555 449 538 c 128,-1,33
 471 521 471 521 486.5 497 c 128,-1,34
 502 473 502 473 510.5 446.5 c 128,-1,35
 519 420 519 420 521 401 c 1,36,37
 532 419 532 419 550 446 c 128,-1,38
 568 473 568 473 591 497.5 c 128,-1,39
 614 522 614 522 642 539.5 c 128,-1,40
 670 557 670 557 702 555 c 0,41,42
 736 553 736 553 756 530.5 c 128,-1,43
 776 508 776 508 784 471.5 c 128,-1,44
 792 435 792 435 790 388.5 c 128,-1,45
 788 342 788 342 778 293 c 0,46,47
 757 200 757 200 736 144 c 128,-1,48
 715 88 715 88 685 58 c 128,-1,49
 655 28 655 28 610.5 19 c 128,-1,50
 566 10 566 10 499 10 c 2,51,-1
 222 10 l 2,52,53
 139 10 139 10 117 80 c 0,54,55
 94 150 94 150 117 254 c 0,56,57
 124 280 124 280 133 312 c 128,-1,58
 142 344 142 344 154 381 c 0,59,60
 167 418 167 418 177 454.5 c 128,-1,61
 187 491 187 491 195 526 c 0,62,63
 205 565 205 565 209 601 c 128,-1,64
 213 637 213 637 207 665 c 128,-1,65
 201 693 201 693 184 711 c 128,-1,66
 167 729 167 729 136 733 c 1,67,68
 128 745 128 745 135.5 751 c 128,-1,69
 143 757 143 757 163 757 c 0,70,71
 199 757 199 757 217 736 c 128,-1,72
 235 715 235 715 240.5 681.5 c 128,-1,73
 246 648 246 648 242 605.5 c 128,-1,74
 238 563 238 563 229 520 c 0,75,76
 211 440 211 440 184 358 c 0,77,78
 170 316 170 316 160.5 283.5 c 128,-1,79
 151 251 151 251 146 225 c 0,80,81
 138 194 138 194 138.5 160.5 c 128,-1,82
 139 127 139 127 148.5 99.5 c 128,-1,83
 158 72 158 72 177 53.5 c 128,-1,84
 196 35 196 35 226 35 c 2,85,-1
 512 37 l 2,86,87
 563 37 563 37 598.5 42.5 c 128,-1,88
 634 48 634 48 660.5 73 c 128,-1,89
 687 98 687 98 707.5 149.5 c 128,-1,90
 728 201 728 201 749 293 c 0,91,92
 756 325 756 325 756.5 365.5 c 128,-1,93
 757 406 757 406 750 441.5 c 128,-1,94
 743 477 743 477 729.5 501.5 c 128,-1,95
 716 526 716 526 694 526 c 0,96,97
 674 526 674 526 652.5 509.5 c 128,-1,98
 631 493 631 493 608 465 c 128,-1,99
 585 437 585 437 559 401.5 c 128,-1,100
 533 366 533 366 504 328 c 1,0,1
259 252 m 0,101,102
 253 224 253 224 264 199 c 0,103,104
 275 176 275 176 324 176 c 0,105,106
 366 176 366 176 389.5 199.5 c 128,-1,107
 413 223 413 223 419 250 c 0,108,109
 423 272 423 272 406 291.5 c 128,-1,110
 389 311 389 311 355 311 c 0,111,112
 324 311 324 311 294 293 c 0,113,114
 264 276 264 276 259 252 c 0,101,102
EndSplineSet
EndChar
StartChar: uni0E53
Encoding: 3667 3667 83
Width: 795
Flags: W
Fore
183 27 m 0,0,1
 112 28 112 28 92 96 c 0,2,3
 81 135 81 135 85 185.5 c 128,-1,4
 89 236 89 236 103.5 288 c 128,-1,5
 118 340 118 340 142 390 c 128,-1,6
 166 440 166 440 196 478.5 c 128,-1,7
 226 517 226 517 260.5 541 c 128,-1,8
 295 565 295 565 330 565 c 256,9,10
 365 565 365 565 391.5 544 c 128,-1,11
 418 523 418 523 435 490.5 c 128,-1,12
 452 458 452 458 459 419.5 c 128,-1,13
 466 381 466 381 461 346 c 1,14,15
 474 382 474 382 497.5 421.5 c 128,-1,16
 521 461 521 461 551 493 c 128,-1,17
 581 525 581 525 614.5 546 c 128,-1,18
 648 567 648 567 681 567 c 0,19,20
 725 567 725 567 752 542.5 c 128,-1,21
 779 518 779 518 791 478 c 128,-1,22
 803 438 803 438 802 387 c 128,-1,23
 801 336 801 336 790 283 c 0,24,25
 781 245 781 245 764 200.5 c 128,-1,26
 747 156 747 156 725 117.5 c 128,-1,27
 703 79 703 79 677.5 53 c 128,-1,28
 652 27 652 27 626 27 c 0,29,30
 612 27 612 27 618 37 c 1,31,32
 643 56 643 56 665 86 c 128,-1,33
 687 116 687 116 704.5 151 c 128,-1,34
 722 186 722 186 734.5 222.5 c 128,-1,35
 747 259 747 259 754 291 c 0,36,37
 765 337 765 337 767.5 380.5 c 128,-1,38
 770 424 770 424 761 458 c 128,-1,39
 752 492 752 492 731 513.5 c 128,-1,40
 710 535 710 535 676 537 c 0,41,42
 641 537 641 537 606.5 506.5 c 128,-1,43
 572 476 572 476 542 430.5 c 128,-1,44
 512 385 512 385 489 333 c 128,-1,45
 466 281 466 281 454 238 c 2,46,-1
 408 59 l 2,47,48
 401 25 401 25 383 25 c 0,49,50
 366 25 366 25 374 57 c 2,51,-1
 414 238 l 2,52,53
 430 290 430 290 428.5 343 c 128,-1,54
 427 396 427 396 413.5 438.5 c 128,-1,55
 400 481 400 481 376.5 508 c 128,-1,56
 353 535 353 535 325 535 c 0,57,58
 305 535 305 535 281.5 517 c 128,-1,59
 258 499 258 499 235 469 c 128,-1,60
 212 439 212 439 190.5 400.5 c 128,-1,61
 169 362 169 362 153 320 c 128,-1,62
 137 278 137 278 127.5 236 c 128,-1,63
 118 194 118 194 120 158 c 1,64,65
 126 171 126 171 138.5 181.5 c 128,-1,66
 151 192 151 192 166.5 199.5 c 128,-1,67
 182 207 182 207 199 211 c 128,-1,68
 216 215 216 215 232 215 c 0,69,70
 275 215 275 215 295 188.5 c 128,-1,71
 315 162 315 162 308 119 c 0,72,73
 307 115 307 115 302 100.5 c 128,-1,74
 297 86 297 86 283 69.5 c 128,-1,75
 269 53 269 53 245 40 c 128,-1,76
 221 27 221 27 183 27 c 0,0,1
132 117 m 1,77,78
 127 102 127 102 131.5 89.5 c 128,-1,79
 136 77 136 77 145.5 68.5 c 128,-1,80
 155 60 155 60 168 55.5 c 128,-1,81
 181 51 181 51 193 51 c 0,82,83
 219 51 219 51 244.5 68.5 c 128,-1,84
 270 86 270 86 279 119 c 0,85,86
 282 131 282 131 280 143.5 c 128,-1,87
 278 156 278 156 271 166.5 c 128,-1,88
 264 177 264 177 252.5 183.5 c 128,-1,89
 241 190 241 190 227 190 c 256,90,91
 213 190 213 190 198 185 c 128,-1,92
 183 180 183 180 169 171 c 128,-1,93
 155 162 155 162 145 148.5 c 128,-1,94
 135 135 135 135 132 117 c 1,77,78
EndSplineSet
EndChar
StartChar: uni0E54
Encoding: 3668 3668 84
Width: 752
Flags: W
Fore
519 324 m 0,0,1
 518 301 518 301 507.5 285 c 128,-1,2
 497 269 497 269 480.5 258.5 c 128,-1,3
 464 248 464 248 444.5 243 c 128,-1,4
 425 238 425 238 407 238 c 0,5,6
 378 238 378 238 362 256 c 1,7,8
 356 222 356 222 366 203 c 128,-1,9
 376 184 376 184 394 175 c 128,-1,10
 412 166 412 166 433 164 c 128,-1,11
 454 162 454 162 470 162 c 0,12,13
 502 162 502 162 531 178 c 0,14,15
 563 195 563 195 590 195 c 0,16,17
 593 195 593 195 602 192 c 128,-1,18
 611 189 611 189 611 184 c 1,19,20
 603 149 603 149 585.5 123.5 c 128,-1,21
 568 98 568 98 536.5 80.5 c 128,-1,22
 505 63 505 63 458.5 53.5 c 128,-1,23
 412 44 412 44 347 43 c 0,24,25
 260 41 260 41 203.5 65.5 c 128,-1,26
 147 90 147 90 116 129.5 c 128,-1,27
 85 169 85 169 78 219 c 128,-1,28
 71 269 71 269 82 319 c 0,29,30
 91 362 91 362 118.5 408 c 128,-1,31
 146 454 146 454 188 492.5 c 128,-1,32
 230 531 230 531 284 555.5 c 128,-1,33
 338 580 338 580 400 580 c 0,34,35
 435 580 435 580 457 572 c 128,-1,36
 479 564 479 564 493.5 552.5 c 128,-1,37
 508 541 508 541 518 527.5 c 128,-1,38
 528 514 528 514 539 502.5 c 128,-1,39
 550 491 550 491 565 483 c 128,-1,40
 580 475 580 475 605 475 c 0,41,42
 629 475 629 475 642.5 496.5 c 128,-1,43
 656 518 656 518 666.5 550.5 c 128,-1,44
 677 583 677 583 688.5 621.5 c 128,-1,45
 700 660 700 660 720.5 694.5 c 128,-1,46
 741 729 741 729 775 753.5 c 128,-1,47
 809 778 809 778 864 784 c 0,48,49
 874 785 874 785 877.5 782 c 128,-1,50
 881 779 881 779 882 774 c 256,51,52
 883 769 883 769 881 762 c 1,53,54
 824 756 824 756 792.5 730.5 c 128,-1,55
 761 705 761 705 742.5 670 c 128,-1,56
 724 635 724 635 714.5 595.5 c 128,-1,57
 705 556 705 556 692.5 522.5 c 128,-1,58
 680 489 680 489 658.5 466.5 c 128,-1,59
 637 444 637 444 597 442 c 0,60,61
 570 442 570 442 553.5 449 c 128,-1,62
 537 456 537 456 525 467 c 128,-1,63
 513 478 513 478 503.5 490.5 c 128,-1,64
 494 503 494 503 481 514.5 c 128,-1,65
 468 526 468 526 449 534 c 128,-1,66
 430 542 430 542 399 543 c 0,67,68
 340 543 340 543 292 520.5 c 128,-1,69
 244 498 244 498 207 462 c 128,-1,70
 170 426 170 426 146 382 c 128,-1,71
 122 338 122 338 112 295 c 0,72,73
 104 258 104 258 114 218.5 c 128,-1,74
 124 179 124 179 151 147 c 128,-1,75
 178 115 178 115 223 94 c 128,-1,76
 268 73 268 73 331 73 c 0,77,78
 383 73 383 73 419.5 78 c 128,-1,79
 456 83 456 83 483 93 c 0,80,81
 511 103 511 103 534.5 121.5 c 128,-1,82
 558 140 558 140 574 162 c 0,83,84
 577 166 577 166 567.5 161.5 c 128,-1,85
 558 157 558 157 542.5 150 c 128,-1,86
 527 143 527 143 507 137 c 128,-1,87
 487 131 487 131 469 131 c 0,88,89
 436 131 436 131 406.5 137.5 c 128,-1,90
 377 144 377 144 356.5 161.5 c 128,-1,91
 336 179 336 179 327.5 208.5 c 128,-1,92
 319 238 319 238 328 283 c 0,93,94
 336 322 336 322 353 347 c 128,-1,95
 370 372 370 372 391.5 384.5 c 128,-1,96
 413 397 413 397 436 398.5 c 128,-1,97
 459 400 459 400 477.5 391.5 c 128,-1,98
 496 383 496 383 507.5 365.5 c 128,-1,99
 519 348 519 348 519 324 c 0,0,1
363 291 m 0,100,101
 364 276 364 276 380 270 c 128,-1,102
 396 264 396 264 416 264 c 0,103,104
 440 264 440 264 461 276.5 c 128,-1,105
 482 289 482 289 488 317 c 1,106,107
 488 341 488 341 478.5 353 c 128,-1,108
 469 365 469 365 454.5 368 c 128,-1,109
 440 371 440 371 424 366 c 128,-1,110
 408 361 408 361 394 350 c 128,-1,111
 380 339 380 339 371 323.5 c 128,-1,112
 362 308 362 308 363 291 c 0,100,101
EndSplineSet
EndChar
StartChar: uni0E55
Encoding: 3669 3669 85
Width: 801
Flags: W
Fore
322 221 m 0,0,1
 320 301 320 301 358.5 344 c 128,-1,2
 397 387 397 387 460 387 c 0,3,4
 493 387 493 387 514 367 c 128,-1,5
 535 347 535 347 529 309 c 0,6,7
 522 267 522 267 492.5 248.5 c 128,-1,8
 463 230 463 230 414 230 c 0,9,10
 396 230 396 230 380 235 c 128,-1,11
 364 240 364 240 354 250 c 1,12,13
 358 197 358 197 383.5 177.5 c 128,-1,14
 409 158 409 158 452 158 c 0,15,16
 487 158 487 158 520.5 163.5 c 128,-1,17
 554 169 554 169 599 175 c 1,18,19
 609 171 609 171 610.5 164 c 128,-1,20
 612 157 612 157 610 149 c 0,21,22
 602 117 602 117 579.5 95.5 c 128,-1,23
 557 74 557 74 527 59 c 128,-1,24
 497 44 497 44 463 36 c 128,-1,25
 429 28 429 28 398 23.5 c 128,-1,26
 367 19 367 19 343 18 c 128,-1,27
 319 17 319 17 308 16 c 0,28,29
 248 16 248 16 198.5 32.5 c 128,-1,30
 149 49 149 49 115 82.5 c 128,-1,31
 81 116 81 116 66.5 167 c 128,-1,32
 52 218 52 218 63 287 c 0,33,34
 92 421 92 421 181 492 c 128,-1,35
 270 563 270 563 407 563 c 0,36,37
 440 563 440 563 464 557.5 c 128,-1,38
 488 552 488 552 505.5 543.5 c 128,-1,39
 523 535 523 535 535 523.5 c 128,-1,40
 547 512 547 512 556 500 c 0,41,42
 566 489 566 489 575 478 c 128,-1,43
 584 467 584 467 593 457 c 0,44,45
 612 438 612 438 653 438 c 0,46,47
 697 438 697 438 738 469 c 0,48,49
 760 485 760 485 772 497.5 c 128,-1,50
 784 510 784 510 793 530 c 1,51,52
 776 520 776 520 753.5 515 c 128,-1,53
 731 510 731 510 711 510 c 0,54,55
 687 510 687 510 668 518.5 c 128,-1,56
 649 527 649 527 636 541.5 c 128,-1,57
 623 556 623 556 618.5 576.5 c 128,-1,58
 614 597 614 597 619 621 c 0,59,60
 624 643 624 643 637.5 662 c 128,-1,61
 651 681 651 681 669.5 694.5 c 128,-1,62
 688 708 688 708 709.5 715.5 c 128,-1,63
 731 723 731 723 752 723 c 0,64,65
 780 723 780 723 802 711.5 c 128,-1,66
 824 700 824 700 836.5 681 c 128,-1,67
 849 662 849 662 849.5 639 c 128,-1,68
 850 616 850 616 836 592 c 1,69,70
 856 621 856 621 872.5 655.5 c 128,-1,71
 889 690 889 690 909 750 c 1,72,73
 919 756 919 756 924.5 754.5 c 128,-1,74
 930 753 930 753 933 748 c 0,75,76
 937 743 937 743 937 733 c 1,77,78
 919 672 919 672 888.5 613.5 c 128,-1,79
 858 555 858 555 819 509 c 128,-1,80
 780 463 780 463 735.5 434.5 c 128,-1,81
 691 406 691 406 645 406 c 0,82,83
 595 406 595 406 572 425 c 0,84,85
 561 435 561 435 550 445.5 c 128,-1,86
 539 456 539 456 528 468 c 0,87,88
 518 480 518 480 506 491 c 128,-1,89
 494 502 494 502 478 511 c 128,-1,90
 462 520 462 520 441 525 c 128,-1,91
 420 530 420 530 391 530 c 0,92,93
 336 530 336 530 288 511.5 c 128,-1,94
 240 493 240 493 202 460.5 c 128,-1,95
 164 428 164 428 137.5 383 c 128,-1,96
 111 338 111 338 99 285 c 0,97,98
 87 229 87 229 101 185 c 128,-1,99
 115 141 115 141 146.5 110 c 128,-1,100
 178 79 178 79 222.5 63 c 128,-1,101
 267 47 267 47 315 47 c 0,102,103
 341 47 341 47 380.5 52.5 c 128,-1,104
 420 58 420 58 460 69 c 128,-1,105
 500 80 500 80 533 98 c 128,-1,106
 566 116 566 116 579 141 c 1,107,108
 548 133 548 133 513.5 128 c 128,-1,109
 479 123 479 123 447 123 c 0,110,111
 396 123 396 123 361.5 146.5 c 128,-1,112
 327 170 327 170 322 221 c 0,0,1
795 569 m 1,113,114
 809 587 809 587 813.5 608.5 c 128,-1,115
 818 630 818 630 813 648.5 c 128,-1,116
 808 667 808 667 792.5 679.5 c 128,-1,117
 777 692 777 692 750 692 c 0,118,119
 716 692 716 692 687.5 672.5 c 128,-1,120
 659 653 659 653 653 625 c 0,121,122
 650 610 650 610 653.5 595 c 128,-1,123
 657 580 657 580 666 568 c 128,-1,124
 675 556 675 556 689.5 548.5 c 128,-1,125
 704 541 704 541 722 541 c 0,126,127
 758 541 758 541 795 569 c 1,113,114
498 309 m 1,128,129
 497 337 497 337 487 347.5 c 128,-1,130
 477 358 477 358 454 360 c 0,131,132
 442 361 442 361 430 357.5 c 128,-1,133
 418 354 418 354 407.5 347 c 128,-1,134
 397 340 397 340 389.5 330.5 c 128,-1,135
 382 321 382 321 379 309 c 0,136,137
 377 291 377 291 383 281.5 c 128,-1,138
 389 272 389 272 397.5 267 c 128,-1,139
 406 262 406 262 415.5 261 c 128,-1,140
 425 260 425 260 430 260 c 0,141,142
 453 260 453 260 473 272.5 c 128,-1,143
 493 285 493 285 498 309 c 1,128,129
EndSplineSet
EndChar
